<svg id="Layer_1" data-name="Layer 1" xmlns="http://www.w3.org/2000/svg" viewBox="0 0 1080 1080">
  <title>Bloops</title>
  <defs>
    <linearGradient id="linear-gradient" x2="1080" y2="1080" gradientUnits="userSpaceOnUse">
      <stop offset="0" stop-color="#ffffff" />
      <stop offset="1" stop-color="#ffffff" />
    </linearGradient>
  </defs>
  <rect width="1080" height="1080" fill="url(#linear-gradient)" />



  <!-- BODY -->

  <!-- 
    TIER 1 
    
    <g fill="#e0e0e0" stroke="#000" stroke-linecap="round" stroke-linejoin="round" stroke-width="10">
        <path
            d="M806.25,804.25h-34V446.75c0-126.75-102.75-229.5-229.5-229.5h0c-126.75,0-229.5,102.75-229.5,229.5v357.5h-38a29,29,0,0,0-29,29h0a29,29,0,0,0,29,29h531a29,29,0,0,0,29-29h0A29,29,0,0,0,806.25,804.25Z" />
        <rect x="704" y="901" width="77" height="51" rx="25.5" />
        <rect x="155" y="854.88" width="50" height="33.12" rx="16.56" />
        <rect x="870" y="837.88" width="50" height="33.12" rx="16.56" />
        <line x1="316.25" y1="636.08" x2="365" y2="636.08" opacity="0.2" stroke-width="25" stroke-linecap="butt" />
    </g>
    -->

  <!-- 
    TIER 2 
    
    <g fill="#e0e0e0" stroke="#000" stroke-linecap="round" stroke-linejoin="round" stroke-width="10">
        <path
            d="M806.25,804.25H785.52A349,349,0,0,0,895,550c0-193.3-156.7-350-350-350S195,356.7,195,550A349,349,0,0,0,304.48,804.25H275.25a29,29,0,0,0-29,29h0a29,29,0,0,0,29,29h531a29,29,0,0,0,29-29h0A29,29,0,0,0,806.25,804.25Z"
            transform="translate(0)" />
        <rect x="704" y="901" width="77" height="51" rx="25.5" />
        <rect x="155" y="854.88" width="50" height="33.12" rx="16.56" />
        <rect x="870" y="837.88" width="50" height="33.12" rx="16.56" />
        <line x1="206.25" y1="636.08" x2="275" y2="636.08" opacity="0.2" stroke-width="25" stroke-linecap="butt" />
        <line x1="216.25" y1="676.08" x2="275" y2="676.08" opacity="0.2" stroke-width="25" stroke-linecap="butt" />
    </g>
    -->


  <!-- 
    TIER 3 
    
    <g fill="#ff0000" stroke="#000" stroke-linecap="round" stroke-linejoin="round" stroke-width="10">
        <circle cx="540" cy="473" r="273" stroke-miterlimit="10" />
        <rect x="423" y="834" width="237" height="58" rx="29" opacity="0.2" fill="#000000" stroke="none" />
        <rect x="704" y="901" width="77" height="51" rx="25.5" />
        <rect x="155" y="854.88" width="50" height="33.12" rx="16.56" />
        <rect x="870" y="837.88" width="50" height="33.12" rx="16.56" />
        <line x1="275.25" y1="526.08" x2="356" y2="526.08" opacity="0.2" stroke-width="25" stroke-linecap="butt" />
        <line x1="285.25" y1="566.08" x2="356" y2="566.08" opacity="0.2" stroke-width="25" stroke-linecap="butt" />
        <line x1="305.25" y1="606.08" x2="356" y2="606.08" opacity="0.2" stroke-width="25" stroke-linecap="butt" />
    </g>
    -->







</svg>