<svg id="Layer_1" data-name="Layer 1" xmlns="http://www.w3.org/2000/svg" viewBox="0 0 1080 1080">
    <title>Bloops</title>

    <!-- BG -->

    <defs>
        <linearGradient id="linear-gradient" x2="1080" y2="1080" gradientUnits="userSpaceOnUse">
            <stop offset="0" stop-color="#ff1f9a" />
            <stop offset="1" stop-color="#ff008c" />
        </linearGradient>
    </defs>
    <rect width="1080" height="1080" fill="url(#linear-gradient)" />



    <!-- BLOOP -->

    <g stroke="#000" stroke-linecap="round" stroke-linejoin="round" stroke-width="10">


        <!-- BODY -->

        <g fill="#4d1ac5">

            <!-- 
        TIER 1 

            <path
                d="M806.25,804.25h-34V434.75c0-126.75-102.75-229.5-229.5-229.5h0c-126.75,0-229.5,102.75-229.5,229.5v369.5h-38a29,29,0,0,0-29,29h0a29,29,0,0,0,29,29h531a29,29,0,0,0,29-29h0A29,29,0,0,0,806.25,804.25Z" />
            <rect x="704" y="901" width="77" height="51" rx="25.5" />
            <rect x="155" y="854.88" width="50" height="33.12" rx="16.56" />
            <rect x="870" y="837.88" width="50" height="33.12" rx="16.56" />
            -->


            <!-- 
        TIER 2 

            <rect x="157" y="854.88" width="50" height="33.12" rx="16.56" />
            <rect x="872" y="837.88" width="50" height="33.12" rx="16.56" />
            <rect x="704" y="901" width="77" height="51" rx="25.5" />
            <rect x="395" y="834" width="305" height="58" rx="29" opacity="0.2" stroke="none" fill="#000" />
            <path
                d="M774,630V434.61c0-126.75-102.75-229.5-229.5-229.5S315,307.86,315,434.61V630l-.12,3.38A94.24,94.24,0,1,0,421.26,787.11a141.39,141.39,0,0,0,245.89-.53A94.24,94.24,0,1,0,774.22,633.43Z" />
            <path
                d="M403,717a140.88,140.88,0,0,0,13,59.19c1.63,3.53,3.41,7,5.31,10.35a141.41,141.41,0,0,0,245.91.53q3.13-5.48,5.78-11.25"
                fill="none" />

            -->


            <!-- 
        TIER 3 
        -->
            <rect x="704" y="901" width="77" height="51" rx="25.5" />
            <rect x="155" y="854.88" width="50" height="33.12" rx="16.56" />
            <rect x="870" y="837.88" width="50" height="33.12" rx="16.56" />
            <rect x="313" y="205" width="459" height="595" rx="229.5" />
            <rect x="389" y="834" width="305" height="58" rx="29" fill="#000" opacity="0.2" stroke="none" />
            -->

        </g>




        <!-- HAT -->


        <!--
            1. PLANET

        <g>
            <circle cx="543" cy="116" r="38" fill="#ff0000"/>
            <path
                d="M579.05,104h24a12,12,0,0,1,12,12h0a12,12,0,0,1-12,12H483a12,12,0,0,1-12-12h0a12,12,0,0,1,12-12h23.94"
                fill="none" />
        </g>
        -->

        <!--
            2. HALO

        <g fill="#ffe000" >
            <path
                d="M584.56,85H504.44a35.13,35.13,0,0,0-35.13,35.12h0a35.13,35.13,0,0,0,35.13,35.13h80.12a35.13,35.13,0,0,0,35.13-35.13h0A35.13,35.13,0,0,0,584.56,85ZM593,120.45a9.89,9.89,0,0,1-9.89,9.89H505.89a9.89,9.89,0,0,1-9.89-9.89v-.65a9.89,9.89,0,0,1,9.89-9.89h77.22A9.89,9.89,0,0,1,593,119.8Z"/>
        </g>
    -->

        <!--
            3. DIAMOND

        <g fill="#4AFF70">
            <polygon points="515.5 117 545 67.5 574.5 117 545 166.5 515.5 117" />
        </g>
        -->

        <!--
            4. SWEAT BAND

        <g fill="#4a8bff" >
            <rect x="326" y="273" width="437" height="53"/>
            <rect x="316" y="291" width="457" height="17" fill="#fff" />
        </g>
        -->

        <!--
            5. MOHICAN

        <g fill="#a5ff2e" transform="translate(15 -7)">
            <rect x="552" y="114" width="42" height="132" />
            <path d="M552,246V114h0a99,99,0,0,0-99,99v14.16S519,216,552,246Z" />
        </g>
        -->

        <!--
            6. HORNS

        <g fill="#f1ece4">
            <path d="M407.5,242H366a67,67,0,0,1-67-67v50a74,74,0,0,0,74,74H407.5a28.5,28.5,0,0,0,0-57Z" />
            <path d="M376.5,242h0A28.5,28.5,0,0,1,405,270.5h0A28.5,28.5,0,0,1,376.5,299h0" fill="none" />
            <path
                d="M725,242H683.5a28.36,28.36,0,0,0-12.61,2.94,230.29,230.29,0,0,1,55.5,53.58A74,74,0,0,0,792,225V175A67,67,0,0,1,725,242Z" />
        </g>
        -->

        <!--
            7. CAP

        <g fill="#bd15ff" transform="translate(20 -10)">
            <path
                d="M504.08,84h37.83A46.09,46.09,0,0,1,588,130.09V183a0,0,0,0,1,0,0H441a0,0,0,0,1,0,0V147.08A63.08,63.08,0,0,1,504.08,84Z" />
            <path d="M588,167h77a8,8,0,0,1,8,8v0a8,8,0,0,1-8,8H588a0,0,0,0,1,0,0V167A0,0,0,0,1,588,167Z" />
            <path d="M443,136h15a14,14,0,0,1,14,14h0a14,14,0,0,1-14,14H441" fill="#000" />
            <rect x="506" y="68" width="20" height="16" rx="8" />
            <polygon points="559 150 588 150 588 138.45 588 130 559 130 559 150" fill="#ffd000" />
            <line x1="441" y1="164" x2="426" y2="164" />
        </g>
        -->

        <!--
            8. BEANIE

        <g transform="translate(0 15)" fill="#28345c">
            <rect x="358.5" y="246.5" width="367" height="29" />
            <path d="M712.76,246.5a229,229,0,0,0-342.52,0Z" />

            <line x1="376.91" y1="248" x2="376.91" y2="268" />
            <line x1="406.91" y1="248" x2="406.91" y2="268" />
            <line x1="436.91" y1="248" x2="436.91" y2="268" />
            <line x1="466.91" y1="248" x2="466.91" y2="268" />
            <line x1="496.91" y1="248" x2="496.91" y2="268" />
            <line x1="526.91" y1="248" x2="526.91" y2="268" />
            <line x1="556.91" y1="248" x2="556.91" y2="268" />
            <line x1="586.91" y1="248" x2="586.91" y2="268" />
            <line x1="616.91" y1="248" x2="616.91" y2="268" />
            <line x1="646.91" y1="248" x2="646.91" y2="268" />
            <line x1="676.91" y1="248" x2="676.91" y2="268" />
            <line x1="706.91" y1="248" x2="706.91" y2="268" />

        </g>
        -->

        <!--
            9. AFRO

        <g fill="#ff46c7">
            <circle cx="358.5" cy="342.5" r="3.5" />
            <circle cx="391.5" cy="362.5" r="3.5" />
            <circle cx="351.5" cy="382.5" r="3.5" />
            <circle cx="397.5" cy="323.5" r="3.5" />
            <path
                d="M728.44,230.73A35.49,35.49,0,0,0,668.5,199.3a35.49,35.49,0,0,0-50,0,35.49,35.49,0,0,0-50,0,35.49,35.49,0,0,0-50,0,35.49,35.49,0,0,0-50,0,35.49,35.49,0,0,0-50,0,35.49,35.49,0,0,0-60,30.87,35.5,35.5,0,1,0,34,59.53,35.49,35.49,0,0,0,50,0,35.49,35.49,0,0,0,50,0,35.49,35.49,0,0,0,50,0,35.49,35.49,0,0,0,50,0,35.49,35.49,0,0,0,50,0,35.49,35.49,0,0,0,50,0,35.5,35.5,0,1,0,35.94-59Z" />
        </g>
        -->

        <!--
            10. CROWN
            
        <g transform="translate(0 -10)">
            <defs>
                <linearGradient id="linear-gradient-crown" x1="459" y1="126" x2="621" y2="126"
                    gradientUnits="userSpaceOnUse">
                    <stop offset="0" stop-color="#ffe000" />
                    <stop offset="1" stop-color="#ff00a4" />
                </linearGradient>
            </defs>
            <polygon points="621 182 621 70 580.5 110.5 540 70 499.5 110.5 459 70 459 182 621 182"
                fill="url(#linear-gradient-crown)" />
            <circle cx="494" cy="143" r="9" fill="#fff" />
            <circle cx="584" cy="143" r="9" fill="#fff" />
            <circle cx="540" cy="143" r="9" fill="#fff" />
        </g>
        -->

        <!--
            11. TOUPE
        
        <g fill="#000000">
            <path
                d="M742.94,145a37.07,37.07,0,0,0-37.07,36.94l0,13.06H383.6A103.6,103.6,0,0,0,280,298.6V468a28,28,0,0,0-28,28v17a28,28,0,0,0,28,28h32V409.45A57.45,57.45,0,0,1,369.45,352H434V275H719.11A60.89,60.89,0,0,0,780,214.11V182.06A37.06,37.06,0,0,0,742.94,145Z" />
        </g>
        -->

        <!--
            12. CONDOM
        
        <g fill="#8688ff">
            
            <path d="M504,222V169a37,37,0,0,1,37-37h0a37,37,0,0,1,37,37v53" />
            <path d="M541,150h0a19,19,0,0,1,19,19" stroke="#ffffff" />
        </g>
        -->

        <!--
            13. MIC
        
        <g>
            <path
                d="M971.49,228.13c14.74-10.43,19.5-28.26,16.71-45.52a67,67,0,0,0-29.1-45.56C927,115.9,885.92,120.52,850,126c-24.57,3.73-49.58,8-74.45,4.7-5.67-.76-8.12,7.91-2.4,8.68,37.49,5,73.8-6,111-8.48,32.35-2.18,73.86,2.93,89.63,35.78,8.14,16.94,10.57,41.44-6.77,53.71-4.69,3.32-.2,11.13,4.54,7.78Z"
                stroke-width="3" transform="translate(-2 0)" />
            transform="translate(736.5 -453.5) rotate(90)" />

            <path d="M542.75,205.25h0c2.76,0,5.51.07,8.25.16V154H530v51.61C534.22,205.38,538.47,205.25,542.75,205.25Z"
                fill="#545454" />
            <rect x="645.5" y="39.5" width="21" height="204" fill="#545454"
                transform="translate(797.5 -514.5) rotate(90)" />
            <circle cx="541" cy="142" r="20" fill="#545454" />
            <rect x="793" y="119" width="21" height="135" fill="#545454"
                transform="translate(103.46 622.78) rotate(-45)" />
            <path d="M902.28,234.54h0a26,26,0,0,1,26,26v88a0,0,0,0,1,0,0h-52a0,0,0,0,1,0,0v-88a26,26,0,0,1,26-26Z"
                transform="translate(1334.13 1135.7) rotate(-135)" fill="#545454" />
            <path d="M871.17,285.88l-20.51-20.5a21,21,0,0,1,0-29.7h0a21,21,0,0,1,29.7,0L937.63,293" fill="none"
                stroke-width="16" />
            <rect x="840.17" y="288.65" width="62" height="68" rx="15.46"
                transform="translate(1259.02 1166.81) rotate(-135)" />
            <rect x="936.97" y="227.68" width="38.34" height="20" transform="translate(111.98 745.71) rotate(-45)"
                fill="#fff" />
            <circle cx="758" cy="142" r="20" fill="#545454" />
        </g>
        -->

        <!--
            14. COWBOY
        
        <g fill="#b3611f">
            <path
                d="M639,115.76v30.68a15.39,15.39,0,0,1-15.39,15.39H455.77a15.39,15.39,0,0,1-15.39-15.39V115.76a21,21,0,0,0-21-21h0a21,21,0,0,0-21,21v30h0a29.52,29.52,0,0,0,29.52,29.52H651.48A29.52,29.52,0,0,0,681,145.73h0v-30a21,21,0,0,0-21-21h0A21,21,0,0,0,639,115.76Z" />
            <path
                d="M639,115.76v30.68a15.39,15.39,0,0,1-15.39,15.39H455.77a15.39,15.39,0,0,1-15.39-15.39V115.76a21,21,0,0,0-21-21h0a21,21,0,0,0-21,21v30h0a29.52,29.52,0,0,0,29.52,29.52H651.48A29.52,29.52,0,0,0,681,145.73h0v-30a21,21,0,0,0-21-21h0A21,21,0,0,0,639,115.76Z"
                fill="#000" opacity="0.3" />
            <path
                d="M549.73,71.15v1.28a9.85,9.85,0,0,1-9.84,9.84h0a9.85,9.85,0,0,1-9.84-9.84V71.15a27.39,27.39,0,0,0-27.39-27.4h-.45a27.4,27.4,0,0,0-27.4,27.4v90.68H604.52V71.15a27.4,27.4,0,0,0-27.4-27.4h0A27.39,27.39,0,0,0,549.73,71.15Z" />
            <rect x="474.81" y="110.84" width="129.7" height="29.52" fill="#ead9a0" />
            <circle cx="540" cy="126" r="22" fill="#ead9a0" />
        </g>
        -->

        <!--
            15. FRIED CHICKEN BUCKET
        
        <g>
            <path
                d="M594.51,41.81a11.24,11.24,0,0,0,3,2.15L572.78,68.67l10.6,10.61,24.84-24.84a11.37,11.37,0,1,0,2.37-12.63l-.17.18h0l.18-.17a11.37,11.37,0,1,0-16.08,0Z"
                fill="#fff" />
            <circle cx="567.65" cy="84.75" r="31.45" fill="#d68330" />
            <circle cx="538.48" cy="71.85" r="31.45" fill="#d68330" />
            <circle cx="509.38" cy="93.4" r="31.45" fill="#d68330" />
            <polygon points="601.55 98 481.55 98 489.55 178 593.55 178 601.55 98" fill="#fff" />
            <rect x="472.35" y="78" width="138.4" height="20" fill="#fff" />
            <polygon points="503.8 103 510.07 173 529.92 173 529.92 103 503.8 103" fill="#ff3636" stroke="none" />
            <polygon points="579 103 572.73 173 552.88 173 552.88 103 579 103" fill="#ff3636" stroke="none" />
            <rect x="525" y="131" width="32" height="5" fill="#fff" />
        </g>
        -->

        <!--
            17. SOMBRERO
        
        <g transform="translate(0 10)">
            <path d="M340,110.5H741a0,0,0,0,1,0,0v0a56,56,0,0,1-56,56H396a56,56,0,0,1-56-56v0A0,0,0,0,1,340,110.5Z"
                fill="#fff6b3" />
            <path
                d="M539.3,20.5h0a54.15,54.15,0,0,1,54.15,54.15V110.5a0,0,0,0,1,0,0H485.15a0,0,0,0,1,0,0V74.65A54.15,54.15,0,0,1,539.3,20.5Z"
                fill="#fff6b3" />
            <path
                d="M734.84,115.82h-1.13L711,134.67c-8.57,7.12-22.45,7.12-31,0l-22.69-18.85h-.9v.08l-22.59,18.77c-8.56,7.12-22.44,7.12-31,0l-22.69-18.85H579l-22.69,18.85c-8.56,7.12-22.44,7.12-31,0l-22.69-18.85h-.9v.08l-22.59,18.77c-8.56,7.12-22.44,7.12-31,0l-22.69-18.85h-1.14L401.6,134.67c-8.56,7.12-22.44,7.12-31,0l-22.69-18.85H347v.08"
                fill="none" stroke="#ff3636" stroke-width="15" />
            <path
                d="M734.84,126.35h-1.13L711,145.21c-8.57,7.11-22.45,7.11-31,0l-22.69-18.86h-.9v.09l-22.59,18.77c-8.56,7.11-22.44,7.11-31,0l-22.69-18.86H579l-22.69,18.86c-8.56,7.11-22.44,7.11-31,0l-22.69-18.86h-.9v.09l-22.59,18.77c-8.56,7.11-22.44,7.11-31,0l-22.69-18.86h-1.14L401.6,145.21c-8.56,7.11-22.44,7.11-31,0l-22.69-18.86H347v.09"
                fill="none" stroke="#54cc54" stroke-width="15" transform="translate(0 3)" />
            <path d="M340,110.5H741a0,0,0,0,1,0,0v0a56,56,0,0,1-56,56H396a56,56,0,0,1-56-56v0A0,0,0,0,1,340,110.5Z"
                fill="none" />
            <rect x="491.16" y="69.5" width="96.27" height="12" fill="#ff3636" stroke="none" />
            <rect x="491.16" y="80.5" width="96.27" height="12" fill="#54cc54" stroke="none" />
        </g>
        -->

        <!--
            18. BUN
        
        <g fill="#8660e0">
            <circle cx="541" cy="148" r="45" />
            <circle cx="501" cy="192" r="13" fill="#fff" />
            <circle cx="521" cy="192" r="13" fill="#fff" />
            <circle cx="541" cy="192" r="13" fill="#fff" />
            <circle cx="561" cy="192" r="13" fill="#fff" />
            <circle cx="581" cy="192" r="13" fill="#fff" />
        </g>
        -->

        <!--
            19. BUNNY EARS
        
        <g fill="#e7e7e7">
            <rect x="324" y="266" width="432" height="40" rx="13" />
            <rect x="396.99" y="200" width="33.02" height="66.18" fill="#ffa6f5" stroke="#000" stroke-linecap="round"
                stroke-miterlimit="10" stroke-width="10" transform="translate(-20 0)" />
            <path
                d="M430,200H361.79a25,25,0,0,0-25,25V337.27A34.73,34.73,0,0,0,371.5,372h0a34.73,34.73,0,0,0,34.73-34.73V215H430v51h18V218A18,18,0,0,0,430,200Z"
                transform="translate(-20 0)" />
            <path
                d="M698.27,266h20V62.73A34.73,34.73,0,0,0,683.5,28h0a34.73,34.73,0,0,0-34.73,34.73V231.05A230.29,230.29,0,0,1,698.27,266Z" />
            <path d="M698.49,266.18H700V129.91a16.51,16.51,0,1,0-33,0V241.68A230.3,230.3,0,0,1,698.49,266.18Z"
                fill="#ffa6f5" />
        </g>
        -->

        <!--
            19. BUNNY EARS
        
        <g fill="#e7e7e7">
            <rect x="324" y="266" width="432" height="40" rx="13" />
            <rect x="396.99" y="200" width="33.02" height="66.18" fill="#ffa6f5" stroke="#000" stroke-linecap="round"
                stroke-miterlimit="10" stroke-width="10" transform="translate(-20 0)" />
            <path
                d="M430,200H361.79a25,25,0,0,0-25,25V337.27A34.73,34.73,0,0,0,371.5,372h0a34.73,34.73,0,0,0,34.73-34.73V215H430v51h18V218A18,18,0,0,0,430,200Z"
                transform="translate(-20 0)" />
            <path
                d="M698.27,266h20V62.73A34.73,34.73,0,0,0,683.5,28h0a34.73,34.73,0,0,0-34.73,34.73V231.05A230.29,230.29,0,0,1,698.27,266Z" />
            <path d="M698.49,266.18H700V129.91a16.51,16.51,0,1,0-33,0V241.68A230.3,230.3,0,0,1,698.49,266.18Z"
                fill="#ffa6f5" />
        </g>
        -->











        <!-- FACE -->



        <!--
            1. DEFAULT     
        
        <g>
            <circle cx="454.88" cy="448.25" r="26" fill="#fff" />
            <circle cx="714.88" cy="448.25" r="26" fill="#fff" />
            <line x1="545.38" y1="513" x2="624.38" y2="513" />
        </g>
        -->

        <!--
            2. SMOKER  
        
        <g>
            <rect x="863" y="443" width="39" height="137" fill="#fff" transform="translate(351 1394) rotate(-90)" />
            <rect x="819" y="487" width="39" height="49" transform="translate(307 1350) rotate(-90)" fill="#d68a25" />
            <rect x="922.5" y="502.5" width="39" height="18" transform="translate(410.5 1453.5) rotate(-90)" />
            <line x1="913" y1="430" x2="913" y2="462" />
            <line x1="931" y1="462" x2="931" y2="398" />
            <circle cx="585" cy="511" r="12" />
            <circle cx="454.88" cy="447.25" r="26" fill="#fff" />
            <circle cx="714.88" cy="447.25" r="26" fill="#fff" />
        </g>
        -->

        <!--
            3. RAY GOGGLES

        <g>
            <line x1="545.38" y1="513" x2="624.38" y2="513" fill="#fff" stroke="#000" stroke-linecap="round"
                stroke-miterlimit="10" stroke-width="10" />
            <rect x="378.86" y="404" width="412.29" height="74" rx="37" fill="#fff" stroke="#000" stroke-linecap="round"
                stroke-miterlimit="10" stroke-width="10" />
            <line x1="413.21" y1="441" x2="756.79" y2="441" fill="#fff" stroke="#000" stroke-linecap="round"
                stroke-miterlimit="10" stroke-width="20" />
        </g>
        -->

        <!--
            4. HOCKEY MASK
        
        <g>
            <path d="M297,427h77a0,0,0,0,1,0,0v36a0,0,0,0,1,0,0H297a18,18,0,0,1-18-18v0A18,18,0,0,1,297,427Z" />
            <line x1="548.38" y1="509" x2="627.38" y2="509" />
            <rect x="354" y="310" width="462" height="288" rx="144" fill="#fff" />
            <circle cx="454.88" cy="445.25" r="26" />
            <circle cx="714.88" cy="445.25" r="26" />
            <circle cx="588" cy="530" r="5" />
            <circle cx="528" cy="530" r="5" />
            <circle cx="558" cy="490" r="5" />
            <circle cx="618" cy="490" r="5" />
            <circle cx="648" cy="530" r="5" />
            <path d="M541.68,380h91.64a0,0,0,0,1,0,0v0a42,42,0,0,1-42,42h-7.64a42,42,0,0,1-42-42v0a0,0,0,0,1,0,0Z"
                fill="#ff4848" stroke="none" />
            <circle cx="762" cy="519" r="13" fill="#ff4848" stroke="none" />
            <path d="M711,535h0a20,20,0,0,0-20,20v41.75a142.67,142.67,0,0,0,40-11.36V555A20,20,0,0,0,711,535Z"
                fill="#ff4848" stroke="none" />
            <path
                d="M749.5,538A12.5,12.5,0,0,0,737,550.5v32a143.21,143.21,0,0,0,25-16.12V550.5A12.5,12.5,0,0,0,749.5,538Z"
                fill="#ff4848" stroke="none" />
            <rect x="354" y="310" width="462" height="288" rx="144" fill="none" />
            <circle cx="439" cy="548" r="16" fill="#ff4848" stroke="none" />
            <line x1="498" y1="310" x2="498" y2="344" />
            <line x1="478" y1="313" x2="478" y2="367" />
        </g>
        -->

        <!--
            5. THREE EYES
        
        <g>
            <circle cx="451.88" cy="437.25" r="26" fill="#fff" />
            <circle cx="711.88" cy="437.25" r="26" fill="#fff" />
            <circle cx="582" cy="407" r="26" fill="#fff" />
            <line x1="542.38" y1="502" x2="621.38" y2="502" />
        </g>
        -->

        <!--
            6. SHADES
        
        <g>
            <line x1="542.38" y1="502" x2="621.38" y2="502" />
            <path d="M390,396H279a14,14,0,0,0-14,14h0v19" fill="none" />
            <line x1="514" y1="396.45" x2="650" y2="396.45" />
            <path d="M530,385.39H374V408h15.1v27.68a62.9,62.9,0,0,0,62.9,62.9h0a62.9,62.9,0,0,0,62.9-62.9V408H530Z"
                fill="#3d3d3d" />
            <path d="M790,385.39H634V408h15.1v27.68a62.9,62.9,0,0,0,62.9,62.9h0a62.9,62.9,0,0,0,62.9-62.9V408H790Z"
                fill="#3d3d3d" />
        </g>
        -->

        <!--
            7. GLASSES
        
        <g fill="#6a17b8">
            <line x1="545.38" y1="512" x2="624.38" y2="512" />
            <circle cx="454.88" cy="447.25" r="39.75" />
            <circle cx="714.88" cy="447.25" r="39.75" />
            <line x1="490.27" y1="429.17" x2="679.48" y2="429.17" />
            <path d="M419.48,429.17H298.83A24.83,24.83,0,0,0,274,454h0" fill="none" />
        </g>
        -->

        <!--
            8. COVID MASK
        
        <g>
            <circle cx="456.88" cy="448.25" r="26" fill="#fff" />
            <circle cx="716.88" cy="448.25" r="26" fill="#fff" />
            <line x1="547.38" y1="513" x2="626.38" y2="513" />
            <rect x="472" y="487" width="229" height="118" rx="23" fill="#cbe7ff" />
            <path d="M472,510a23,23,0,0,1,23-23H678a23,23,0,0,1,23,23Z" fill="#fff" />
            <line x1="498" y1="535" x2="675" y2="535" />
            <line x1="498" y1="558" x2="675" y2="558" />
            <line x1="498" y1="581" x2="675" y2="581" />
            <path d="M472.29,565.25H296.71a29.13,29.13,0,0,1-29.12-29.13h0A29.12,29.12,0,0,1,296.71,507H472.29"
                fill="none" />
            <path d="M772.16,507H700.59" fill="none" />
            <path d="M700.59,565.25h71.57" fill="none" />
        </g>
        -->

        <!--
            9. 3D GLASSES
            
        <g>
            <line x1="547" y1="513" x2="626" y2="513" />
            <path d="M258,446.69V488h40V469.6a5.6,5.6,0,0,1,5.6-5.6H383V412H292.69A34.69,34.69,0,0,0,258,446.69Z"
                fill="#fff" />
            <path d="M383,389v99H553.77a35,35,0,0,1,66.46,0H791V389Z" fill="#fff" />
            <rect x="671" y="413" width="92" height="51" transform="translate(1434 877) rotate(180)" fill="#ff4848" />
            <rect x="411" y="413" width="92" height="51" transform="translate(914 877) rotate(180)" fill="#4a8bff" />
        </g>
        -->

        <!--
            10. JOKER EYES
            
        <g fill="#7e839c">
            <line x1="547" y1="513" x2="626" y2="513" />
            <polygon points="399.79 450 457 354 514.21 450 457 546 399.79 450" />
            <polygon points="659.79 450 717 354 774.21 450 717 546 659.79 450" />
            <circle cx="457" cy="448" r="26" fill="#fff" />
            <circle cx="717" cy="448" r="26" fill="#fff" />
        </g>
        -->

        <!--
            11. MOBSTER
            
        <g>
            <g fill="#ffdf22">
                <rect x="594.5" y="592.5" width="19" height="50" />
                <rect x="325" y="572.56" width="440" height="20" />
                <rect x="562" y="618" width="79.5" height="55.5" rx="13.11" />
                <rect x="302" y="563.06" width="39" height="39" rx="13.22" />
                <rect x="364.86" y="563.06" width="39" height="39" rx="13.22" />
                <rect x="427.71" y="563.06" width="39" height="39" rx="13.22" />
                <rect x="490.57" y="563.06" width="39" height="39" rx="13.22" />
                <rect x="679.14" y="563.06" width="39" height="39" rx="13.22" />
                <rect x="742" y="563.06" width="39" height="39" rx="13.22" />
                <rect x="616.29" y="563.06" width="39" height="39" rx="13.22" />
                <rect x="553.43" y="563.06" width="39" height="39" rx="13.22" />
            </g>
            <circle cx="453.88" cy="448.25" r="26" fill="#fff" />
            <circle cx="713.88" cy="448.25" r="26" fill="#fff" />
            <line x1="544.38" y1="513" x2="623.38" y2="513" />
            <rect x="518" y="491" width="55" height="6" />
            <rect x="594" y="491" width="55" height="6" />
            <rect x="580" y="528" width="8" height="16" />
        </g>
        -->

        <!--
            12. IG GLASSES
           
        <g fill="#ff1b1b" transform="translate(0 )">
            <circle cx="453.88" cy="448.25" r="26" fill="#fff" />
            <circle cx="713.88" cy="448.25" r="26" fill="#fff" />
            <line x1="544.38" y1="513" x2="623.38" y2="513" />
            <rect x="377" y="448" width="154" height="30" rx="15" opacity="0.5" />
            <rect x="637" y="448" width="154" height="30" rx="15" opacity="0.5" />
            <rect x="377" y="448" width="154" height="30" rx="15" fill="none" />
            <rect x="637" y="448" width="154" height="30" rx="15" fill="none" />
            <line x1="531" y1="463" x2="637" y2="463" />
            <path d="M377,463H292.73A10.72,10.72,0,0,0,282,473.73V489" fill="none" />
        </g>
        -->

        <!--
            13. LAZER EYE
        
        <g fill="#ff00d4">
            <path
                d="M634.86,448.5h0a132.18,132.18,0,0,0,70.5-83.09l9.14-31.91,9.14,31.91a132.18,132.18,0,0,0,70.5,83.09h0a132.18,132.18,0,0,0-70.5,83.09L714.5,563.5l-9.14-31.91a132.18,132.18,0,0,0-70.5-83.09Z"
                fill="#fff" stroke="#000" stroke-linecap="round" stroke-linejoin="round" stroke-width="11.79" />
            <circle cx="714.88" cy="448.25" r="26" />
            <line x1="545" y1="513" x2="624" y2="513" />
            <circle cx="454.87" cy="448.25" r="26" fill="#fff" />
            <rect x="713" y="441" width="367" height="16" stroke="none" />
        </g>
        -->

        <!--
            14. GOGGLES
            
        <g fill="#2aff4d">
            <rect x="533.5" y="466.5" width="101" height="46" fill="#000" />
            <rect x="739.5" y="196.5" width="38" height="196" fill="#fff" />
            <rect x="299.5" y="422.5" width="71" height="44" />
            <rect x="739.5" y="216.5" width="38" height="17" />
            <path
                d="M584,433a53,53,0,0,1,37.57,15.53l31.11,31.12a51.81,51.81,0,0,0,36.88,15.27H714a46.93,46.93,0,1,0,0-93.86H453a46.93,46.93,0,1,0,0,93.86h25.46a51.81,51.81,0,0,0,36.88-15.27l31.11-31.12A53,53,0,0,1,584,433Z"
                fill="#fff" fill-opacity="0.5" />
            <polygon points="446.5 395.5 540 489 601.55 462.44 654 515 727.5 515.5 581.5 369.5 446.5 395.5"
                fill="#ffffff" stroke="none" />
            <path
                d="M714,360H453a88,88,0,0,0,0,176h25.46a92.65,92.65,0,0,0,65.92-27.3l31.11-31.12a12.07,12.07,0,0,1,17.06,0l31.11,31.12A92.65,92.65,0,0,0,689.55,536H714a88,88,0,0,0,0-176Zm0,134.93H689.55a51.81,51.81,0,0,1-36.88-15.27l-31.11-31.12a53.21,53.21,0,0,0-75.14,0l-31.11,31.12a51.81,51.81,0,0,1-36.88,15.27H453a46.93,46.93,0,1,1,0-93.86H714a46.93,46.93,0,1,1,0,93.86Z" />
            <circle cx="734" cy="146" r="13.5" fill="#fff" fill-opacity="0.5" />
            <circle cx="781.5" cy="120.5" r="21" fill="#fff" fill-opacity="0.5" />
            <line x1="327.5" y1="448.5" x2="327.5" y2="466.5" />
            <line x1="340.5" y1="448.5" x2="340.5" y2="466.5" />
        </g>
        -->

        <!--
            15. <BANDANA>
            
        <g fill="#5b745b">
            <polygon points="303 503 585 648 654.64 598.71 780 510 780 490 303 490 303 503" />
            <circle cx="288" cy="498" r="21" />
            <path d="M267,498H239.69A24.68,24.68,0,0,1,215,473.31V446Z" />
            <path d="M267,498v27.31A24.68,24.68,0,0,1,242.31,550H215Z" />
            <path d="M615,495a39,39,0,0,1-78,0" />
            <path d="M595,495a19,19,0,0,1-38,0" fill="none" stroke="#fff" stroke-linecap="butt" />
            <circle cx="455" cy="446" r="26" fill="#fff" />
            <circle cx="715" cy="446" r="26" fill="#fff" />
            <polyline points="738.93 498.94 642.56 567.14 588.52 605.38" fill="none" stroke="#000"
                stroke-dasharray="1 14.98" />
            <polyline points="582.41 609.71 582 610 582 610.32 581.55 610.09" />
            <line x1="567.84" y1="603.04" x2="355.3" y2="493.75" fill="none" stroke-dasharray="1.03 15.42"
                stroke-linecap="round" stroke-linejoin="round" />

            <line x1="712" y1="501.72" x2="711.59" y2="502.01" fill="none" stroke="#fff" />
            <polyline points="699.4 510.64 628.43 560.87 588.5 589.12" fill="none" stroke="#fff"
                stroke-dasharray="1 14.93" />
            <polyline points="582 594.39 582 594.89 581.55 594.66" fill="none" stroke="#fff" />
            <line x1="568.53" y1="587.97" x2="408.3" y2="505.58" fill="none" stroke-dasharray="0.98 14.65"
                stroke="#fff" />
            <line x1="401.78" y1="502.23" x2="401.34" y2="502" fill="none" stroke="#fff" />

            <line x1="666.14" y1="506" x2="665.73" y2="506.29" fill="none" stroke="#fff" stroke-width="20" />
            <polyline points="638.56 525.52 612.05 544.28 595.99 555.64" fill="none" stroke="#fff" stroke-width="20"
                stroke-dasharray="1.11 33.29" />
            <polyline points="581.76 567.5 581.7 568 581.25 567.77" fill="none" stroke="#fff" stroke-width="20" />
            <line x1="552.06" y1="552.76" x2="476.16" y2="513.73" fill="none" stroke-dasharray="1.09 32.83"
                stroke-width="20" stroke="#fff" />
            <line x1="461.56" y1="506.23" x2="461.12" y2="506" fill="none" stroke="#fff" stroke-width="20" />

        </g>
        -->

        <!--
            16. GASK MASK
        
        <g>
            <rect x="304" y="467" width="91" height="22" />
            <rect x="304" y="400" width="91" height="22" />
            <path
                d="M741.66,363H415.34C389.75,363,369,382.9,369,407.45v83.1C369,515.1,389.75,535,415.34,535H531.46A16.53,16.53,0,0,1,548,551.54V589h73V551.54A16.53,16.53,0,0,1,637.54,535H741.66c25.59,0,46.34-19.9,46.34-44.45v-83.1C788,382.9,767.25,363,741.66,363Z"
                fill="#444" />
            <rect x="555" y="542" width="59" height="29" fill="#444" />
            <circle cx="455" cy="446" r="58" fill="#939393" />
            <circle cx="455" cy="446" r="35.07" fill="#a6ff27" />
            <circle cx="715" cy="446" r="58" fill="#939393" />
            <circle cx="715" cy="446" r="35.07" fill="#a6ff27" />
            <rect x="555" y="571" width="59" height="18" />
            <rect x="522" y="641" width="125" height="18" fill="#939393" />
            <path
                d="M522,582H647a0,0,0,0,1,0,0v38.57A20.43,20.43,0,0,1,626.57,641H542.43A20.43,20.43,0,0,1,522,620.57V582A0,0,0,0,1,522,582Z"
                transform="translate(1169 1223) rotate(180)" fill="#2a492a" />
            <line x1="584" y1="659" x2="584" y2="653" />
            <line x1="604" y1="659" x2="604" y2="653" />
            <line x1="624" y1="659" x2="624" y2="653" />
            <line x1="564" y1="659" x2="564" y2="653" />
            <line x1="544" y1="659" x2="544" y2="653" />
            <rect x="576" y="570" width="17" height="125" transform="translate(1217 48) rotate(90)" />
            <path d="M555,553V519a18,18,0,0,0-18-18h0" fill="none" />
            <path d="M614,553V519a18,18,0,0,1,18-18h0" fill="none" />
            <line x1="546" y1="408" x2="624" y2="408" />
            <line x1="546" y1="428" x2="624" y2="428" />
            <line x1="546" y1="448" x2="624" y2="448" />
            <line x1="546" y1="468" x2="624" y2="468" />
        </g>
        -->

        <!--
            17. WHISTLE
        
        <g>
            <path d="M485,493a31,31,0,0,1,0,62" fill="none" />
            <path d="M659,493a31,31,0,0,1,0,62" fill="none" />
            <circle cx="817" cy="543" r="10" />
            <line x1="827" y1="514" x2="827" y2="546" />
            <rect x="827" y="512" width="12" height="4.94" />
            <circle cx="455" cy="446" r="26" fill="#fff" />
            <circle cx="715" cy="446" r="26" fill="#fff" />
            <path d="M571,520a11,11,0,1,1,11,11" fill="none" />
            <path d="M571,542a11,11,0,1,0,11-11" fill="none" />
            <path
                d="M367.39,475.27a17.5,17.5,0,1,0-12.56,29.86l18.22,18.22a9.5,9.5,0,0,0,13.43-13.43L371.1,494.53A17.49,17.49,0,0,0,367.39,475.27Z"
                fill="#fff" />
        </g>
        -->

        <!--
            18. SASSY
        
        <g>
            <path d="M330,504a69,69,0,1,0,69,69A69,69,0,0,0,330,504Zm0,118a49,49,0,1,1,49-49A49,49,0,0,1,330,622Z"
                fill="#ffe02c" />
            <path d="M772,505.06v20.43a49,49,0,0,1,0,95v20.43a69,69,0,0,0,0-135.88Z" fill="#ffe02c" />
            <path d="M458,405a29,29,0,0,1-29,29" fill="none" />
            <path d="M478,405a29,29,0,0,1-29,29" fill="none" />
            <path d="M498,405a29,29,0,0,1-29,29" fill="none" />
            <path d="M429,446a26,26,0,1,0,49.06-12H431.94A25.78,25.78,0,0,0,429,446Z" fill="#fff" />
            <path d="M718,405a29,29,0,0,1-29,29" fill="none" />
            <path d="M738,405a29,29,0,0,1-29,29" fill="none" />
            <path d="M758,405a29,29,0,0,1-29,29" fill="none" />
            <path d="M689,446a26,26,0,1,0,49.06-12H691.94A25.78,25.78,0,0,0,689,446Z" fill="#fff" />
            <circle cx="585" cy="511" r="9" />
            <circle cx="616" cy="511" r="54" fill="#ffa6f5" opacity="0.5" />
            <circle cx="616" cy="511" r="54" fill="none" />
            <path d="M616,473a38,38,0,0,1,38,38" fill="none" stroke="#fff" />
        </g>
        -->

        <!--
            19. NINJA
        
        <g fill="#ff3636">
            <rect x="302" y="420" width="479" height="72" />
            <path d="M481,446a26,26,0,0,1-52,0Z" fill="#fff" />
            <path d="M741,446a26,26,0,0,1-52,0Z" fill="#fff" />
            <circle cx="278" cy="456" r="21" />
            <path d="M257,456H229.69A24.68,24.68,0,0,1,205,431.31V404Z" />
            <path d="M257,456v27.31A24.68,24.68,0,0,1,232.31,508H205Z" />
            <line x1="545" y1="511" x2="624" y2="511" />
        </g>
        -->

        <!--
            20. <MUNCHIES>
        
        <g>
            <path d="M481,446a26,26,0,0,1-52,0Z" fill="#e58080" />
            <path d="M741,446a26,26,0,0,1-52,0Z" fill="#e58080" />
            <path
                d="M645.39,531a10.39,10.39,0,0,1,0-20.78,11.85,11.85,0,0,0,11.83-11.83,10.39,10.39,0,0,1,20.78,0A32.65,32.65,0,0,1,645.39,531Z"
                fill="#ffa329" />
            <path d="M594,541H581.5A29.5,29.5,0,0,1,552,511.5h0A29.5,29.5,0,0,1,581.5,482H594" fill="none" />
            <path d="M557.5,496c-.37,0-.75,0-1.12,0a29.5,29.5,0,0,0,25.12,45h2.84a30.51,30.51,0,0,0-26.84-45Z"
                fill="#a82e2e" />
            <polygon points="964 449 937 452 831 452 806 449 806 570 831 567 937 567 964 570 964 449" fill="#ffa329" />
            <polygon points="937 567 827.79 567 876.91 452 937 452 964 449 964 570 937 567" fill="#ff5e33" />
            <path
                d="M899.71,526.3A6,6,0,0,0,889,531.61a6.78,6.78,0,0,1-3,9.09,6,6,0,1,0,5.3,10.68A18.73,18.73,0,0,0,899.71,526.3Z"
                fill="#ffa329" stroke="none" />
            <path
                d="M909.62,530.3a6,6,0,0,1,10.68,5.31,6.78,6.78,0,0,0,3.05,9.09,6,6,0,1,1-5.3,10.68A18.73,18.73,0,0,1,909.62,530.3Z"
                fill="#ffa329" stroke="none" />
            <path
                d="M912.94,500.86a6,6,0,1,0,1.18,11.86,6.79,6.79,0,0,1,7.42,6.08,6,6,0,0,0,11.86-1.18A18.72,18.72,0,0,0,912.94,500.86Z"
                fill="#ffa329" stroke="none" />
            <path
                d="M935.11,541.53a6,6,0,0,1,.17-11.93,6.79,6.79,0,0,0,6.88-6.69,6,6,0,0,1,11.92.17A18.74,18.74,0,0,1,935.11,541.53Z"
                fill="#ffa329" stroke="none" />
            <path
                d="M874.94,493.86a6,6,0,1,0,1.18,11.86,6.79,6.79,0,0,1,7.42,6.08,6,6,0,0,0,11.86-1.18A18.72,18.72,0,0,0,874.94,493.86Z"
                fill="#ffa329" stroke="none" />
            <path
                d="M894.75,484.44A6,6,0,0,0,906,488.38a6.78,6.78,0,0,1,8.64-4.16A6,6,0,0,0,918.59,473,18.74,18.74,0,0,0,894.75,484.44Z"
                fill="#ffa329" stroke="none" />
            <rect x="838" y="467" width="23" height="85" rx="11.5" fill="#ffd62c" />
        </g>
        -->










        <!-- FULL HEAD -->


        <!--
            ANIMAL SKULL
        
        <g fill="#ff4848">
            <path d="M505.5,110h0A27.5,27.5,0,0,0,478,137.5V193l27.5,40L533,193V137.5A27.5,27.5,0,0,0,505.5,110Z"
                fill="#f0f0f0" />
            <path d="M663.5,110h0A27.5,27.5,0,0,0,636,137.5V193l27.5,40L691,193V137.5A27.5,27.5,0,0,0,663.5,110Z"
                fill="#f0f0f0" />
            <path d="M584.5,60h0A27.5,27.5,0,0,0,557,87.5V193l27.5,40L612,193V87.5A27.5,27.5,0,0,0,584.5,60Z"
                fill="#f0f0f0" />
            <line x1="506" y1="233" x2="506" y2="291" />
            <line x1="585" y1="233" x2="585" y2="291" />
            <line x1="664" y1="233" x2="664" y2="291" />
            <line x1="585" y1="180" x2="611.89" y2="153.11" />
            <line x1="584" y1="146" x2="611.91" y2="118.09" />
            <line x1="506" y1="192" x2="531.96" y2="166.04" />
            <line x1="664" y1="190" x2="636.5" y2="162.5" />
            <path d="M478,137.5A27.5,27.5,0,0,1,505.5,110h0A27.5,27.5,0,0,1,533,137.5l-27.75,27.75Z" />
            <path d="M557,86.5A27.5,27.5,0,0,1,584.5,59h0A27.5,27.5,0,0,1,612,86.5l-27.75,27.75Z" />
            <path d="M636.5,137A27.5,27.5,0,0,1,664,109.5h0A27.5,27.5,0,0,1,691.5,137l-27.75,27.75Z" />
            <path d="M533,150.58V137.5A27.5,27.5,0,0,0,505.5,110h0A27.5,27.5,0,0,0,478,137.5V154" fill="none" />
            <path d="M612,99.58V86.5A27.5,27.5,0,0,0,584.5,59h0A27.5,27.5,0,0,0,557,86.5V103" fill="none" />
            <path d="M691,149.58V136.5A27.5,27.5,0,0,0,663.5,109h0A27.5,27.5,0,0,0,636,136.5V153" fill="none" />
            <line x1="585" y1="114" x2="557.5" y2="86.5" />
            <path
                d="M728,383.05H715.73V362.72a27.56,27.56,0,0,0-27.56-27.56H651.08V267.92H518.19v67.24H481.1a27.56,27.56,0,0,0-27.56,27.56v20.33H441.27a63.15,63.15,0,0,0-63.15,63.15h0a63.15,63.15,0,0,0,63.15,63.15h12.27v46.87a64.66,64.66,0,0,0,64.65,64.65h0v98a66.45,66.45,0,0,0,66.44,66.45h0a66.45,66.45,0,0,0,66.45-66.45v-98h0a64.66,64.66,0,0,0,64.65-64.65V509.35H728a63.15,63.15,0,0,0,63.15-63.15h0A63.15,63.15,0,0,0,728,383.05Z"
                fill="#f4f1df" />
            <rect x="593.33" y="679.99" width="25.56" height="70.55" rx="12.78" fill="#000" />
            <rect x="550.38" y="679.99" width="25.56" height="70.55" rx="12.78" fill="#000" />
            <circle cx="453.47" cy="446.86" r="38.86" fill="#000" />
            <circle cx="715.23" cy="446.86" r="38.86" fill="#000" />
            <path d="M610.4,642V392.4a25.3,25.3,0,0,1,25.3-25.29h0" fill="none" />
            <path d="M558.56,642.16V392.52a25.29,25.29,0,0,0-25.29-25.29h0" fill="none" />
            <path d="M518.19,312.16h-227A86.16,86.16,0,0,1,205,226h0a50.1,50.1,0,0,0,50.1,50.1H518.19Z"
                fill="#d6d1ab" />
            <path d="M650.81,312.16h227A86.16,86.16,0,0,0,964,226h0a50.1,50.1,0,0,1-50.1,50.1H650.81Z" fill="#d6d1ab" />
            <line x1="549" y1="322" x2="620" y2="322" />
            <line x1="489.43" y1="276.1" x2="489.43" y2="312.16" />
            <line x1="679" y1="276.1" x2="679" y2="312.16" />
            <g transform="translate(-60 0)">
                <path d="M354.44,273A19.56,19.56,0,0,1,374,292.56V350a49,49,0,0,1-49,49h0V309.16" fill="none" />
                <line x1="325" y1="399" x2="325" y2="461" />
                <path d="M355.2,273A18.8,18.8,0,0,1,374,291.8V350a49,49,0,0,1-49,49h0V309.16" fill="none"
                    stroke-width="18" stroke-dasharray="0.1 40" />
                <line x1="325" y1="399" x2="325" y2="461" />
                <circle cx="325" cy="461" r="18" />
            </g>

        </g>
        -->

        <!--
            SKI MASK
             
        <g fill="#3d3d3d">
            <circle cx="454.88" cy="448.25" r="26" fill="#fff" />
            <circle cx="714.88" cy="448.25" r="26" fill="#fff" />
            <path
                d="M540.5,207h0C413.75,207,311,309.75,311,436.5V600H770V436.5C770,309.75,667.25,207,540.5,207ZM756,448.5A42.5,42.5,0,0,1,713.5,491h-261A42.5,42.5,0,0,1,410,448.5h0A42.5,42.5,0,0,1,452.5,406h261A42.5,42.5,0,0,1,756,448.5Z" />
            <rect x="311" y="569" width="459" height="31" />
            <line x1="346.91" y1="569" x2="346.91" y2="600" />
            <line x1="376.91" y1="569" x2="376.91" y2="600" />
            <line x1="406.91" y1="569" x2="406.91" y2="600" />
            <line x1="436.91" y1="569" x2="436.91" y2="600" />
            <line x1="466.91" y1="569" x2="466.91" y2="600" />
            <line x1="496.91" y1="569" x2="496.91" y2="600" />
            <line x1="526.91" y1="569" x2="526.91" y2="600" />
            <line x1="556.91" y1="569" x2="556.91" y2="600" />
            <line x1="586.91" y1="569" x2="586.91" y2="600" />
            <line x1="616.91" y1="569" x2="616.91" y2="600" />
            <line x1="646.91" y1="569" x2="646.91" y2="600" />
            <line x1="676.91" y1="569" x2="676.91" y2="600" />
            <line x1="706.91" y1="569" x2="706.91" y2="600" />
            <line x1="736.91" y1="569" x2="736.91" y2="600" />

        </g>
        -->

        <!--
            APE
            
        <g fill="#4d1ac5">
            <path
                d="M714,390H456a58,58,0,0,0-58,58h0a58,58,0,0,0,58,58h71v31a58,58,0,0,0,58,58h0a58,58,0,0,0,58-58V506h71a58,58,0,0,0,58-58h0A58,58,0,0,0,714,390Z"
                fill="#ede0a9" />
            <path
                d="M650.5,262a28.42,28.42,0,0,1-20-8.2,28.5,28.5,0,1,1,0-40.6,28.49,28.49,0,0,1,40,0A28.51,28.51,0,0,1,718,226.09a28.73,28.73,0,0,1,1,7.41"
                stroke="none"/>
            <path
                d="M650.5,262a28.42,28.42,0,0,0,20-8.2,28.5,28.5,0,1,0,0-40.6,28.49,28.49,0,0,0-40,0A28.51,28.51,0,0,0,583,226.09a28.73,28.73,0,0,0-1,7.41"
                />
            <path d="M772,528a53,53,0,0,0,0-106Z" fill="#ede0a9" />
            <circle cx="454.88" cy="448.25" r="26" fill="#fff" />
            <circle cx="714.88" cy="448.25" r="26" fill="#fff" />
            <circle cx="315" cy="475" r="53" fill="#ede0a9" />
            <path d="M315,500a25,25,0,0,1,0-50" fill="none" />
            <circle cx="583" cy="485" r="19" fill="#000" />
            <line x1="583.5" y1="487.5" x2="583.5" y2="543.5" />

        </g>
        -->

        <!--
            OLD PC
            
        <g>
            <rect x="304" y="540" width="68" height="24" fill="#000"/>
            <rect x="341" y="173" width="465" height="410" rx="52.21" fill="#fff7d4" />
            <rect x="387.5" y="214" width="372" height="297" rx="33.3" fill="#227cff"/>
            <path d="M341,230.5l-53.44,53.43a19.89,19.89,0,0,0-5.81,14V520.14A19.86,19.86,0,0,0,301.61,540h41.65Z"
                fill="#d3c89c"/>
            <line x1="397" y1="545" x2="507" y2="545"/>
            <circle cx="610" cy="545" r="10" fill="#000"/>
            <circle cx="650" cy="545" r="10" fill="#000"/>
            <circle cx="690" cy="545" r="10" fill="#000"/>
            <circle cx="730" cy="545" r="10" fill="#ff3636"/>
            <line x1="301" y1="511" x2="325" y2="511"/>
            <line x1="301" y1="491" x2="325" y2="491"/>
            <line x1="301" y1="471" x2="325" y2="471"/>
            <line x1="301" y1="451" x2="325" y2="451"/>
            <line x1="422" y1="252" x2="624" y2="252" stroke="#fff"/>
            <line x1="649" y1="252" x2="721" y2="252" stroke="#fff"/>
            <line x1="422" y1="292" x2="594" y2="292" stroke="#fff"/>
            <line x1="422" y1="272" x2="445" y2="272" stroke="#fff"/>
            <line x1="471" y1="272" x2="573" y2="272" stroke="#fff"/>
            <line x1="614" y1="292" x2="660" y2="292" stroke="#fff"/>
            <line x1="422" y1="332" x2="544" y2="332" stroke="#fff"/>
            <line x1="422" y1="372" x2="534" y2="372" stroke="#fff"/>
            <line x1="422" y1="352" x2="485" y2="352" stroke="#fff"/>
            <line x1="511" y1="352" x2="573" y2="352" stroke="#fff"/>
            <line x1="554" y1="372" x2="660" y2="372" stroke="#fff"/>
            <line x1="574" y1="332" x2="600" y2="332" stroke="#fff"/>
            <line x1="630" y1="332" x2="650" y2="332" stroke="#fff"/>
            <line x1="594" y1="352" x2="700" y2="352" stroke="#fff"/>
            <line x1="422" y1="447" x2="544" y2="447" stroke="#fff"/>
            <line x1="422" y1="467" x2="485" y2="467" stroke="#fff"/>
            <line x1="511" y1="467" x2="573" y2="467" stroke="#fff"/>
            <line x1="574" y1="447" x2="600" y2="447" stroke="#fff"/>
            <line x1="594" y1="467" x2="700" y2="467" stroke="#fff"/>
            <line x1="684" y1="372" x2="730" y2="372" stroke="#fff"/>
        </g>
        -->

        <!--
            PAPER BAG MASK
            
        <g transform="translate(10 0)">
            <polygon
                points="301.81 576.11 330.2 604.5 331.05 604.5 359.44 576.11 387.83 604.5 388.5 604.5 388.5 199.5 273.5 199.5 273.5 604.42 301.81 576.11"
                fill="#998362" />
            <polygon
                points="734 200 619 200 504 200 389 200 389 604.92 417.31 576.61 445.7 605 446.55 605 474.94 576.61 503.33 605 504 605 504 604.92 532.31 576.61 560.7 605 561.55 605 589.94 576.61 618.33 605 619 605 619 604.92 647.31 576.61 675.7 605 676.55 605 704.94 576.61 733.33 605 734 605 734 604.92 762.31 576.61 790.7 605 791 605 791 200 734 200"
                fill="#b29b76" />
            <line x1="331" y1="258" x2="331" y2="605" />
            <polygon points="274 200 331.5 257.5 389 200 274 200" fill="#7f6c52" />
            <rect x="418" y="404" width="84" height="84" rx="42" fill="#2e271d" />
            <rect x="678" y="404" width="84" height="84" rx="42" fill="#2e271d" />
            <path d="M743,324h48a0,0,0,0,1,0,0v34a0,0,0,0,1,0,0H743a17,17,0,0,1-17-17v0A17,17,0,0,1,743,324Z"
                fill="#7f6c52" stroke="none" />
            <path d="M769,284h22a0,0,0,0,1,0,0v34a0,0,0,0,1,0,0H769a17,17,0,0,1-17-17v0A17,17,0,0,1,769,284Z"
                fill="#7f6c52" stroke="none" />
            <path d="M624,200H791a0,0,0,0,1,0,0v75a0,0,0,0,1,0,0H699a75,75,0,0,1-75-75v0A0,0,0,0,1,624,200Z"
                fill="#7f6c52" stroke="none" />
            <circle cx="703" cy="308" r="14" fill="#7f6c52" stroke="none" />
            <rect x="368" y="308" width="87" height="41" rx="20.5" fill="#7f6c52" stroke="none" />
            <polygon
                points="734 200 619 200 504 200 389 200 389 604.92 417.31 576.61 445.7 605 446.55 605 474.94 576.61 503.33 605 504 605 504 604.92 532.31 576.61 560.7 605 561.55 605 589.94 576.61 618.33 605 619 605 619 604.92 647.31 576.61 675.7 605 676.55 605 704.94 576.61 733.33 605 734 605 734 604.92 762.31 576.61 790.7 605 791 605 791 200 734 200"
                fill="none" />
        </g>
        -->

        <!--
            MUMMY
        
        <g>
            <rect x="299" y="540" width="487" height="43" fill="#dbdbc3" />
            <rect x="299" y="510" width="487" height="43" fill="#dbdbc3" />
            <rect x="304" y="470" width="477" height="43" fill="#dbdbc3" />
            <rect x="296" y="440" width="483" height="43" fill="#dbdbc3" />
            <rect x="304" y="400" width="477" height="43" fill="#dbdbc3" />
            <rect x="304" y="360" width="477" height="43" fill="#dbdbc3" />
            <path d="M674,225a287.77,287.77,0,0,0-132.4-31.73h0A287.77,287.77,0,0,0,409.2,225Z"
                transform="translate(0 -2)" fill="#dbdbc3" />
            <path d="M380.47,255H702.73a241.21,241.21,0,0,0-67.79-43H448.26A241.35,241.35,0,0,0,380.47,255Z"
                transform="translate(0 -2)" fill="#dbdbc3" />
            <path d="M741,285a249.79,249.79,0,0,0-46.27-43H388.48a250.16,250.16,0,0,0-46.28,43Z"
                transform="translate(0 -2)" fill="#dbdbc3" />
            <path d="M327.2,315H756a242.21,242.21,0,0,0-32-43H359.23A242.26,242.26,0,0,0,327.2,315Z"
                transform="translate(0 -2)" fill="#dbdbc3" />
            <path d="M321.81,335H761.39a240.58,240.58,0,0,0-25.17-43H347A241.18,241.18,0,0,0,321.81,335Z"
                transform="translate(0 -2)" fill="#dbdbc3" />
            <path d="M302.2,375H781a235.37,235.37,0,0,0-15.78-43H318A236.11,236.11,0,0,0,302.2,375Z"
                transform="translate(0 -2)" fill="#dbdbc3" />
            <polygon points="380.47 246 771.51 344.26 781 394.43 345.59 279.03 380.47 246" fill="#dbdbc3" />
            <path d="M778.31,405H445.69c-29.31,0-57.63,14.35-79.69,40.38h0l.21.25C388.16,471,416.12,485,445,485H779Z"
                transform="translate(0 -2)" />
            <circle cx="455" cy="446" r="26" fill="#ff0000" />
            <circle cx="715" cy="446" r="26" fill="#ff0000" />
        </g>
        -->


    </g>





</svg>