<svg id="Layer_1" data-name="Layer 1" xmlns="http://www.w3.org/2000/svg" viewBox="0 0 1080 1080">
    <title>Bloops</title>

    <!-- BG -->

    <defs>
        <linearGradient id="linear-gradient" x2="1080" y2="1080" gradientUnits="userSpaceOnUse">
            <stop offset="0" stop-color="#0e1647" />
            <stop offset="1" stop-color="#593885" />
        </linearGradient>
        <filter id="glow">
            <feGaussianBlur stdDeviation="20" result="coloredBlur" />
            <feMerge>
                <feMergeNode in="coloredBlur" />
                <feMergeNode in="SourceGraphic" />
            </feMerge>
        </filter>
    </defs>
    <rect width="1080" height="1080" fill="url(#linear-gradient)" />



    <!-- BLOOP -->

    <g transform="translate(0 20)" stroke="#000" stroke-linecap="round" stroke-linejoin="round" stroke-width="10">



        <!-- EXTRA -->


        <!--
            WINGS
        
        <g>
            <g>
                <path
                    d="M527,558H486.85a106.86,106.86,0,0,1-76.08-31.52l-56.25-56.25A146.64,146.64,0,0,0,250.15,427H214a20,20,0,0,0-12.72,35.43L99.86,563.86a20,20,0,0,0,25.28,30.74,20,20,0,0,0,33,7.54l3.14-3.14a20,20,0,0,0,32.86,7.14l8.14-8.14a20,20,0,0,0,32.86,7.14L245.28,595a20,20,0,0,0,32.86,7.14L295.28,585a20,20,0,0,0,32.86,7.14l7.14-7.14a20,20,0,0,0,32.86,7.14l4.65-4.64a19.95,19.95,0,0,0,33.07,8.88,20,20,0,0,0,32.28,5.76l9.41-9.4a148.36,148.36,0,0,0,39.3,5.26H527a20,20,0,0,0,0-40Z"
                    fill="#fff" />
                <line x1="166.09" y1="537.63" x2="236.9" y2="466.81" />
                <path d="M206.86,576.86l25.21-25.22" />
                <path
                    d="M250.15,467H214a20,20,0,0,1,0-40h36.15a146.64,146.64,0,0,1,104.37,43.23l56.25,56.25A106.86,106.86,0,0,0,486.85,558H527a20,20,0,0,1,0,40H486.85a146.64,146.64,0,0,1-104.37-43.23"
                    fill="none" />
            </g>
            <g transform="translate(-80 0)">
                <path
                    d="M553,558h40.15a106.86,106.86,0,0,0,76.08-31.52l56.25-56.25A146.64,146.64,0,0,1,829.85,427H866a20,20,0,0,1,12.72,35.43L980.14,563.86a20,20,0,0,1-25.28,30.74,20,20,0,0,1-33,7.54L918.72,599a20,20,0,0,1-32.86,7.14L877.72,598a20,20,0,0,1-32.86,7.14L834.72,595a20,20,0,0,1-32.86,7.14L784.72,585a20,20,0,0,1-32.86,7.14L744.72,585a20,20,0,0,1-32.86,7.14l-4.65-4.64a19.95,19.95,0,0,1-33.07,8.88,20,20,0,0,1-32.28,5.76l-9.41-9.4a148.36,148.36,0,0,1-39.3,5.26H553a20,20,0,0,1,0-40Z"
                    fill="#fff" />
                <line x1="913.91" y1="537.63" x2="843.1" y2="466.81" />
                <path d="M873.14,576.86l-25.21-25.22" />
                <path
                    d="M829.85,467H866a20,20,0,0,0,0-40H829.85a146.64,146.64,0,0,0-104.37,43.23l-56.25,56.25A106.86,106.86,0,0,1,593.15,558H553a20,20,0,0,0,0,40h40.15a146.64,146.64,0,0,0,104.37-43.23"
                    fill="none" />
            </g>

        </g>
        -->

        <!--
            BACKPACK
        
        <g fill="#ffd4b0" transform="translate(20 10)">
            <rect x="247" y="627" width="15" height="51" fill="#000" stroke="none" />
            <path d="M266.63,670.6V666H243.38v4.6a10,10,0,0,1,0,18.8V696h23.25v-6.6a10,10,0,0,1,0-18.8Z" fill="#000" />
            <path
                d="M269.19,389H345a0,0,0,0,1,0,0V637a0,0,0,0,1,0,0H269.19A40.19,40.19,0,0,1,229,596.81V429.19A40.19,40.19,0,0,1,269.19,389Z" />
            <path
                d="M309.19,389H385a0,0,0,0,1,0,0V637a0,0,0,0,1,0,0H309.19A40.19,40.19,0,0,1,269,596.81V429.19A40.19,40.19,0,0,1,309.19,389Z" />
            <path
                d="M309.19,389H385a0,0,0,0,1,0,0V637a0,0,0,0,1,0,0H309.19A40.19,40.19,0,0,1,269,596.81V429.19A40.19,40.19,0,0,1,309.19,389Z"
                fill="#000" opacity="0.3" />
            <line x1="249" y1="466.81" x2="249" y2="466.31" />
            <path d="M249,456.14V429.19a40.2,40.2,0,0,1,34.61-39.81" fill="none" stroke-dasharray="1.02 10.18" />
            <path d="M288.69,389h.5" />
            <path
                d="M212.9,432H229a0,0,0,0,1,0,0v68a0,0,0,0,1,0,0H212.9A18.9,18.9,0,0,1,194,481.1V450.9A18.9,18.9,0,0,1,212.9,432Z" />
            <path
                d="M212.9,518H229a0,0,0,0,1,0,0v86a0,0,0,0,1,0,0h-4.89A30.11,30.11,0,0,1,194,573.89v-37A18.9,18.9,0,0,1,212.9,518Z" />
            <path
                d="M212.9,432H229a0,0,0,0,1,0,0v68a0,0,0,0,1,0,0H212.9A18.9,18.9,0,0,1,194,481.1V450.9A18.9,18.9,0,0,1,212.9,432Z"
                fill="#000" opacity="0.3" />
            <path
                d="M212.9,518H229a0,0,0,0,1,0,0v86a0,0,0,0,1,0,0h-4.89A30.11,30.11,0,0,1,194,573.89v-37A18.9,18.9,0,0,1,212.9,518Z"
                fill="#000" opacity="0.3" />
            <circle cx="249" cy="479" r="8" fill="#fff" />
            <line x1="217" y1="456" x2="194" y2="456" fill="none" stroke-dasharray="1 10" />
            <line x1="217" y1="547" x2="194" y2="547" fill="none" stroke-dasharray="1 10" />
            <rect x="247" y="489" width="4" height="26" />


        </g>
        -->

        <!--
            TURTLE
        -->
        <g>
            <path d="M306.91,665.54S307,729,235,729c0,0,56.32-34.88,41.66-76.94" fill="#345b37" stroke="#000"
                stroke-linecap="round" stroke-linejoin="round" stroke-width="10" />
            <circle cx="306.59" cy="534.48" r="114.09" fill="#345b37" />
            <path d="M240.85,472.51h0a11.9,11.9,0,0,1-11.9-11.9V455" transform="translate(0 0)" fill="none"
                stroke="#6c8259" />
            <line x1="218.61" y1="511.52" x2="198.62" y2="511.52" stroke="#6c8259" />
            <path d="M241.61,548.74H219V514.51a13,13,0,0,1,13-13h9.67" transform="translate(0 0)" fill="none"
                stroke="#6c8259" />
            <path d="M219,548.83v3a13.62,13.62,0,0,1-13.62,13.62h-8.57" transform="translate(0 0)" fill="none"
                stroke="#6c8259" />
            <line x1="214.95" y1="602.44" x2="244.49" y2="602.44" stroke="#6c8259" />
            <circle cx="306.59" cy="534.48" r="114.09" fill="none" />
            <rect x="260.5" y="424.16" width="149.61" height="226.68" rx="74.8" fill="#a58e62" />
            <path
                d="M335.31,403.76h0a93.7,93.7,0,0,0-93.7,93.69v80.1a93.7,93.7,0,0,0,93.7,93.69h0A93.69,93.69,0,0,0,429,577.55v-80.1A93.69,93.69,0,0,0,335.31,403.76ZM410.11,576a74.8,74.8,0,0,1-74.8,74.8h0A74.8,74.8,0,0,1,260.5,576V499a74.8,74.8,0,0,1,74.81-74.8h0a74.8,74.8,0,0,1,74.8,74.8Z"
                transform="translate(0 0)" fill="#eaddbe" />
            <line x1="263.14" y1="519.24" x2="407.4" y2="519.24" stroke="#eaddbe" />
            <line x1="260.5" y1="564.12" x2="410.11" y2="564.12" stroke="#eaddbe" />
            <line x1="262.01" y1="608.01" x2="407.84" y2="608.01" stroke="#eaddbe" />
            <line x1="335.31" y1="424.16" x2="335.31" y2="650.84" stroke="#eaddbe" />
            <path
                d="M278.59,450.22a167.64,167.64,0,0,0,113.29-.16,74.6,74.6,0,0,0-56.57-25.9h0A74.61,74.61,0,0,0,278.59,450.22Z"
                transform="translate(0 0)" />
            <path d="M267.87,471.62a301.08,301.08,0,0,0,134.83-.21" fill="none" stroke="#eaddbe" />
            <rect x="260.5" y="424.16" width="149.61" height="226.68" rx="74.8" fill="none" />
            <path d="M262.24,592A74.88,74.88,0,0,0,296,639.68v-5.53A43.15,43.15,0,0,0,262.24,592Z" />
        </g>
        -->

        <!--
            ARROWS
        
        <g>
            <line x1="254.93" y1="497.71" x2="172.88" y2="415.65" />
            <polygon points="172.88 415.65 146.62 415.65 163.03 432.06 189.29 432.06 172.88 415.65" fill="#bababa" />
            <polygon points="172.88 415.65 172.88 389.39 189.29 405.8 189.29 432.06 172.88 415.65" fill="#bababa" />
            <line x1="245.09" y1="441.91" x2="163.03" y2="359.85" />
            <polygon points="163.03 359.85 136.77 359.85 153.18 376.26 179.44 376.26 163.03 359.85" fill="#bababa" />
            <polygon points="163.03 359.85 163.03 333.59 179.44 350 179.44 376.26 163.03 359.85" fill="#bababa" />
            <line x1="300.89" y1="451.75" x2="218.83" y2="369.7" />
            <polygon points="218.83 369.7 192.57 369.7 208.98 386.11 235.24 386.11 218.83 369.7" fill="#bababa" />
            <polygon points="218.83 369.7 218.83 343.44 235.24 359.85 235.24 386.11 218.83 369.7" fill="#bababa" />
            <rect x="294.02" y="398.93" width="91.68" height="273.87" transform="translate(-279.37 397.27) rotate(-45)"
                fill="#7c5837" />
            <rect x="200.15" y="434.45" width="107.92" height="31.33" transform="translate(-243.85 311.52) rotate(-45)"
                fill="#69421e" />
            <line x1="248.06" y1="478.32" x2="355.56" y2="585.81" />
        </g>
        -->

        <!--
            AK47
        
        <g transform="translate(130 -100) rotate(20)">
            <path
                d="M193.55,396.76H338a4.55,4.55,0,0,1,4.55,4.55v0a4.55,4.55,0,0,1-4.55,4.55H193.55a0,0,0,0,1,0,0v-9.09A0,0,0,0,1,193.55,396.76Z"
                transform="translate(173.8 874.59) rotate(-135)" fill="#232323" stroke="#000" stroke-linecap="round"
                stroke-linejoin="round" stroke-width="10" />
            <polygon points="227.48 353.83 242.81 369.16 250.72 341.46 245.28 336.02 227.48 353.83" fill="#232323"
                stroke="#000" stroke-linecap="round" stroke-linejoin="round" stroke-width="10" />
            <polygon points="269.51 395.86 314.52 440.86 326.88 428.5 291.77 393.39 269.51 395.86" fill="#232323"
                stroke="#000" stroke-linecap="round" stroke-linejoin="round" stroke-width="10" />
            <line x1="366.94" y1="484.87" x2="343.69" y2="461.63" fill="#b56924" stroke="#000" stroke-linecap="round"
                stroke-linejoin="round" stroke-width="10" />
            <polygon
                points="371.63 473.25 496.25 597.87 496.25 632.24 472.27 649.55 361.99 523.45 348.14 480.92 371.63 473.25"
                fill="#232323" stroke="#000" stroke-linecap="round" stroke-linejoin="round" stroke-width="10" />
            <rect x="360.58" y="483.35" width="55.25" height="18.88" transform="translate(314.25 1115.74) rotate(-135)"
                stroke-width="10" stroke="#000" stroke-linecap="round" stroke-linejoin="round" fill="#232323" />
            <path
                d="M378.8,473l-11.86,11.86,20.27,20.28L365.7,526.66a7.35,7.35,0,0,1-10.39,0h0a7.35,7.35,0,0,1,0-10.38h0a2.45,2.45,0,0,0,0-3.47l-56.95-56.95a6.52,6.52,0,0,1,0-9.23l27-27Z"
                fill="#b56924" stroke="#000" stroke-linecap="round" stroke-linejoin="round" stroke-width="10" />
            <path
                d="M468.66,645.94l-10.77,3.11a15,15,0,0,0-9.66,8.59l-15.15,36.14a3.44,3.44,0,0,1-4.58,1.8l-22.31-10a3.45,3.45,0,0,1-1.73-4.56l2.24-4.92a3.45,3.45,0,0,1,4.22-1.84h0a3.43,3.43,0,0,0,4.24-1.9l14.48-33.78a15,15,0,0,0,.65-9.94l-2-7.28,10.11-10.12Z"
                fill="#b56924" stroke="#000" stroke-linecap="round" stroke-linejoin="round" stroke-width="10" />
            <path d="M438.15,611.47l-11.79,11.78a6.4,6.4,0,0,1-9.07,0l-16.15-16.14a6.43,6.43,0,0,1,0-9.08l13.55-13.55Z"
                fill="none" stroke="#000" stroke-linecap="round" stroke-linejoin="round" stroke-width="10" />
            <path d="M414.41,606.53h0a9.8,9.8,0,0,0,13.85,0l3.68-3.69" fill="none" stroke="#000" stroke-linecap="round"
                stroke-linejoin="round" stroke-width="10" />
            <path
                d="M264.24,610.62l9.27-43.38A185.43,185.43,0,0,0,379,544.17l29.74,33.61A229.44,229.44,0,0,1,264.24,610.62Z"
                fill="#232323" stroke="#000" stroke-linecap="round" stroke-linejoin="round" stroke-width="10" />
        </g>
        -->




        <!-- BODY -->

        <g fill="#b8feff">

            <!-- 
        TIER 1 

            <path
                d="M806.25,804.25h-34V434.75c0-126.75-102.75-229.5-229.5-229.5h0c-126.75,0-229.5,102.75-229.5,229.5v369.5h-38a29,29,0,0,0-29,29h0a29,29,0,0,0,29,29h531a29,29,0,0,0,29-29h0A29,29,0,0,0,806.25,804.25Z" />
            <rect x="704" y="901" width="77" height="51" rx="25.5" />
            <rect x="155" y="854.88" width="50" height="33.12" rx="16.56" />
            <rect x="870" y="837.88" width="50" height="33.12" rx="16.56" />
            <line x1="313" y1="804" x2="481" y2="804" />
            -->


            <!-- 
        TIER 2 
        
            <rect x="157" y="854.88" width="50" height="33.12" rx="16.56" />
            <rect x="872" y="837.88" width="50" height="33.12" rx="16.56" />
            <rect x="704" y="901" width="77" height="51" rx="25.5" />
            <rect x="395" y="834" width="305" height="58" rx="29" opacity="0.2" stroke="none" fill="#000" />
            <path
                d="M774,630V434.61c0-126.75-102.75-229.5-229.5-229.5S315,307.86,315,434.61V630l-.12,3.38A94.24,94.24,0,1,0,421.26,787.11a141.39,141.39,0,0,0,245.89-.53A94.24,94.24,0,1,0,774.22,633.43Z" />
            <path
                d="M403,717a140.88,140.88,0,0,0,13,59.19c1.63,3.53,3.41,7,5.31,10.35a141.41,141.41,0,0,0,245.91.53q3.13-5.48,5.78-11.25"
                fill="none" />

            -->


            <!-- 
        TIER 3 
        -->
            <rect x="704" y="901" width="77" height="51" rx="25.5" />
            <rect x="155" y="854.88" width="50" height="33.12" rx="16.56" />
            <rect x="870" y="837.88" width="50" height="33.12" rx="16.56" />
            <rect x="313" y="205" width="459" height="595" rx="229.5" />
            <rect x="389" y="834" width="305" height="58" rx="29" fill="#000" opacity="0.2" stroke="none" />
            -->

        </g>





        <!-- FULL HEAD -->


        <!--
            ANIMAL SKULL
        
        <g fill="#fc1717">
            <path d="M505.5,110h0A27.5,27.5,0,0,0,478,137.5V193l27.5,40L533,193V137.5A27.5,27.5,0,0,0,505.5,110Z"
                fill="#f0f0f0" />
            <path d="M663.5,110h0A27.5,27.5,0,0,0,636,137.5V193l27.5,40L691,193V137.5A27.5,27.5,0,0,0,663.5,110Z"
                fill="#f0f0f0" />
            <path d="M584.5,60h0A27.5,27.5,0,0,0,557,87.5V193l27.5,40L612,193V87.5A27.5,27.5,0,0,0,584.5,60Z"
                fill="#f0f0f0" />
            <line x1="506" y1="233" x2="506" y2="291" />
            <line x1="585" y1="233" x2="585" y2="291" />
            <line x1="664" y1="233" x2="664" y2="291" />
            <line x1="585" y1="180" x2="611.89" y2="153.11" />
            <line x1="584" y1="146" x2="611.91" y2="118.09" />
            <line x1="506" y1="192" x2="531.96" y2="166.04" />
            <line x1="664" y1="190" x2="636.5" y2="162.5" />
            <path d="M478,137.5A27.5,27.5,0,0,1,505.5,110h0A27.5,27.5,0,0,1,533,137.5l-27.75,27.75Z" />
            <path d="M557,86.5A27.5,27.5,0,0,1,584.5,59h0A27.5,27.5,0,0,1,612,86.5l-27.75,27.75Z" />
            <path d="M636.5,137A27.5,27.5,0,0,1,664,109.5h0A27.5,27.5,0,0,1,691.5,137l-27.75,27.75Z" />
            <path d="M533,150.58V137.5A27.5,27.5,0,0,0,505.5,110h0A27.5,27.5,0,0,0,478,137.5V154" fill="none" />
            <path d="M612,99.58V86.5A27.5,27.5,0,0,0,584.5,59h0A27.5,27.5,0,0,0,557,86.5V103" fill="none" />
            <path d="M691,149.58V136.5A27.5,27.5,0,0,0,663.5,109h0A27.5,27.5,0,0,0,636,136.5V153" fill="none" />
            <line x1="585" y1="114" x2="557.5" y2="86.5" />
            <path
                d="M728,383.05H715.73V362.72a27.56,27.56,0,0,0-27.56-27.56H651.08V267.92H518.19v67.24H481.1a27.56,27.56,0,0,0-27.56,27.56v20.33H441.27a63.15,63.15,0,0,0-63.15,63.15h0a63.15,63.15,0,0,0,63.15,63.15h12.27v46.87a64.66,64.66,0,0,0,64.65,64.65h0v98a66.45,66.45,0,0,0,66.44,66.45h0a66.45,66.45,0,0,0,66.45-66.45v-98h0a64.66,64.66,0,0,0,64.65-64.65V509.35H728a63.15,63.15,0,0,0,63.15-63.15h0A63.15,63.15,0,0,0,728,383.05Z"
                fill="#f4f1df" />
            <rect x="593.33" y="679.99" width="25.56" height="70.55" rx="12.78" fill="#000" />
            <rect x="550.38" y="679.99" width="25.56" height="70.55" rx="12.78" fill="#000" />
            <circle cx="453.47" cy="446.86" r="38.86" fill="#000" />
            <circle cx="715.23" cy="446.86" r="38.86" fill="#000" />
            <path d="M610.4,642V392.4a25.3,25.3,0,0,1,25.3-25.29h0" fill="none" />
            <path d="M558.56,642.16V392.52a25.29,25.29,0,0,0-25.29-25.29h0" fill="none" />
            <path d="M518.19,312.16h-227A86.16,86.16,0,0,1,205,226h0a50.1,50.1,0,0,0,50.1,50.1H518.19Z"
                fill="#d6d1ab" />
            <path d="M650.81,312.16h227A86.16,86.16,0,0,0,964,226h0a50.1,50.1,0,0,1-50.1,50.1H650.81Z" fill="#d6d1ab" />
            <line x1="549" y1="322" x2="620" y2="322" />
            <line x1="489.43" y1="276.1" x2="489.43" y2="312.16" />
            <line x1="679" y1="276.1" x2="679" y2="312.16" />
            <g transform="translate(510 0)">
                <path d="M354.44,273A19.56,19.56,0,0,1,374,292.56V350a49,49,0,0,1-49,49h0V309.16" fill="none" />
                <line x1="325" y1="399" x2="325" y2="461" />
                <path d="M355.2,273A18.8,18.8,0,0,1,374,291.8V350a49,49,0,0,1-49,49h0V309.16" fill="none"
                    stroke-width="18" stroke-dasharray="0.1 40" />
                <line x1="325" y1="399" x2="325" y2="461" />
                <circle cx="325" cy="461" r="18" />
            </g>

        </g>
        -->

        <!--
            SKI MASK
            
        <g fill="#20da29">
            <path
                d="M542.5,196.37h0c-131.72,0-238.5,106.78-238.5,238.5V609H781V434.87C781,303.15,674.22,196.37,542.5,196.37ZM496,483a63,63,0,0,1-24.57,5H446a42,42,0,0,1-42-42h0a42,42,0,0,1,42-42h25.43A63,63,0,0,1,496,409h0c16.68,7.06,40,20.34,47,37-7,16.67-30.32,29.95-47,37Zm131.5,47h-85a18.5,18.5,0,0,1,0-37h85a18.5,18.5,0,0,1,0,37ZM766,446a42,42,0,0,1-42,42H698.57A63,63,0,0,1,674,483c-16.68-7.06-40-20.34-47-37,7-16.67,30.32-29.95,47-37a63,63,0,0,1,24.57-5H724a42,42,0,0,1,42,42Z" />
            <g opacity="0.1">
                <polyline
                    points="356.39 298.74 332.03 323.11 332.03 323.68 332.1 323.68 356.39 347.98 332.03 372.34 332.03 373.06 356.39 397.43 332.03 421.79 332.03 422.36 332.1 422.36 356.39 446.66 332.03 471.02 332.03 471.75 356.39 496.11 332.03 520.47 332.03 521.05 332.1 521.05 356.39 545.34 332.03 569.7" />
                <path
                    d="M405.39,249.3,381,273.66v.72l24.36,24.36L381,323.1v.58h.06l24.3,24.3L381,372.34v.72l24.36,24.37L381,421.79v.57h.06L401.73,443a5.17,5.17,0,0,1,0,7.31L381,471v.73l24.36,24.36L381,520.47v.58h.06l24.3,24.29L381,569.7" />
                <polyline
                    points="448.58 489.3 455.39 496.11 431.03 520.47 431.03 521.05 431.1 521.05 455.39 545.34 431.03 569.7" />
                <polyline
                    points="431.1 225 455.39 249.29 431.03 273.66 431.03 274.38 455.39 298.74 431.03 323.11 431.03 323.68 431.1 323.68 455.39 347.98 431.03 372.34 431.03 373.06 455.39 397.43 451.1 401.71" />
                <polyline
                    points="495.8 407.01 505.39 397.43 481.03 373.06 481.03 372.34 505.39 347.98 481.1 323.68 481.03 323.68 481.03 323.11 505.39 298.74 481.03 274.38 481.03 273.66 505.39 249.29 481.1 225 504.55 201.55" />
                <polyline
                    points="481.03 569.7 505.39 545.34 481.1 521.05 481.03 521.05 481.03 520.47 505.39 496.11 494.79 485.5" />
                <polyline
                    points="550.57 491.29 531.03 471.75 531.03 471.02 555.39 446.66 531.1 422.36 531.03 422.36 531.03 421.79 555.39 397.43 531.03 373.06 531.03 372.34 555.39 347.98 531.1 323.68 531.03 323.68 531.03 323.11 555.39 298.74 531.03 274.38 531.03 273.66 555.39 249.29 531.1 225 557.05 199.05" />
                <polyline points="531.03 569.7 555.39 545.34 540.67 530.63" />
                <polyline
                    points="600.57 491.29 581.03 471.75 581.03 471.02 605.39 446.66 581.1 422.36 581.03 422.36 581.03 421.79 605.39 397.43 581.03 373.06 581.03 372.34 605.39 347.98 581.1 323.68 581.03 323.68 581.03 323.11 605.39 298.74 581.03 274.38 581.03 273.66 605.39 249.29 581.1 225 601.02 205.08" />
                <polyline points="581.03 569.7 605.39 545.34 590.67 530.63" />
                <polyline
                    points="637.47 428.74 631.1 422.36 631.03 422.36 631.03 421.79 655.39 397.43 631.03 373.06 631.03 372.34 655.39 347.98 631.1 323.68 631.03 323.68 631.03 323.11 655.39 298.74 631.03 274.38 631.03 273.66 655.39 249.29 631.1 225 636.05 220.05" />
                <polyline points="646.75 504.74 655.39 496.11 631.03 471.75 631.03 471.02 638.01 464.04" />
                <polyline points="631.03 569.7 655.39 545.34 641.83 531.78" />
                <polyline
                    points="700.87 401.95 705.39 397.43 681.03 373.06 681.03 372.34 705.39 347.98 681.1 323.68 681.03 323.68 681.03 323.11 705.39 298.74 681.03 274.38 681.03 273.66 696.84 257.84" />
                <polyline
                    points="681.03 569.7 705.39 545.34 681.1 521.05 681.03 521.05 681.03 520.47 705.39 496.11 698.46 489.18" />
                <polyline
                    points="745.16 407.65 755.39 397.43 731.03 373.06 731.03 372.34 755.39 347.98 731.1 323.68 731.03 323.68 731.03 323.11 743.07 311.07" />
                <polyline
                    points="731.03 569.7 755.39 545.34 731.1 521.05 731.03 521.05 731.03 520.47 755.39 496.11 744.78 485.5" />
            </g>
            <path
                d="M781,609V434.87c0-131.72-106.78-238.5-238.5-238.5h0c-131.72,0-238.5,106.78-238.5,238.5V609ZM496,483a63,63,0,0,1-24.57,5H446a42,42,0,0,1-42-42h0a42,42,0,0,1,42-42h25.43A63,63,0,0,1,496,409h0c16.68,7.06,40,20.34,47,37-7,16.67-30.32,29.95-47,37Zm131.5,47h-85a18.5,18.5,0,0,1,0-37h85a18.5,18.5,0,0,1,0,37ZM766,446a42,42,0,0,1-42,42H698.57A63,63,0,0,1,674,483c-16.68-7.06-40-20.34-47-37,7-16.67,30.32-29.95,47-37a63,63,0,0,1,24.57-5H724a42,42,0,0,1,42,42Z"
                fill="none" />
            <rect x="296" y="574" width="493" height="39" />
            <line x1="316.75" y1="574" x2="316.75" y2="613" />
            <line x1="346.75" y1="574" x2="346.75" y2="613" />
            <line x1="376.75" y1="574" x2="376.75" y2="613" />
            <line x1="406.75" y1="574" x2="406.75" y2="613" />
            <line x1="436.75" y1="574" x2="436.75" y2="613" />
            <line x1="466.75" y1="574" x2="466.75" y2="613" />
            <line x1="496.75" y1="574" x2="496.75" y2="613" />
            <line x1="526.75" y1="574" x2="526.75" y2="613" />
            <line x1="556.75" y1="574" x2="556.75" y2="613" />
            <line x1="586.75" y1="574" x2="586.75" y2="613" />
            <line x1="616.75" y1="574" x2="616.75" y2="613" />
            <line x1="646.75" y1="574" x2="646.75" y2="613" />
            <line x1="676.75" y1="574" x2="676.75" y2="613" />
            <line x1="706.75" y1="574" x2="706.75" y2="613" />
            <line x1="736.75" y1="574" x2="736.75" y2="613" />
            <line x1="766.75" y1="574" x2="766.75" y2="613" />
            <line x1="545" y1="511" x2="624" y2="511" />
        </g>
        -->

        <!--
            APE
            
        <g fill="#1bbedb">
            <path
                d="M714,390H456a58,58,0,0,0-58,58h0a58,58,0,0,0,58,58h71v31a58,58,0,0,0,58,58h0a58,58,0,0,0,58-58V506h71a58,58,0,0,0,58-58h0A58,58,0,0,0,714,390Z"
                fill="#c9ae90" />
            <path
                d="M650.5,262a28.42,28.42,0,0,1-20-8.2,28.5,28.5,0,1,1,0-40.6,28.49,28.49,0,0,1,40,0A28.51,28.51,0,0,1,718,226.09a28.73,28.73,0,0,1,1,7.41"
                stroke="none" />
            <path
                d="M650.5,262a28.42,28.42,0,0,0,20-8.2,28.5,28.5,0,1,0,0-40.6,28.49,28.49,0,0,0-40,0A28.51,28.51,0,0,0,583,226.09a28.73,28.73,0,0,0-1,7.41" />
            <path d="M772,528a53,53,0,0,0,0-106Z" fill="#c9ae90" transform="translate(0 10)" />
            <circle cx="315" cy="475" r="53" fill="#c9ae90" transform="translate(0 10)" />
            <path d="M315,500a25,25,0,0,1,0-50" fill="none" transform="translate(0 10)" />
            <circle cx="583" cy="485" r="19" fill="#000" />
            <line x1="583.5" y1="487.5" x2="583.5" y2="543.5" />

        </g>
        -->

        <!--
            OLD PC
            
        <g>
            <rect x="304" y="540" width="68" height="24" fill="#000" />
            <rect x="341" y="173" width="465" height="410" rx="52.21" fill="#fff7d4" />
            <rect x="387.5" y="214" width="372" height="297" rx="33.3" fill="#2243ff" />
            <path d="M341,230.5l-53.44,53.43a19.89,19.89,0,0,0-5.81,14V520.14A19.86,19.86,0,0,0,301.61,540h41.65Z"
                fill="#d3c89c" />
            <line x1="397" y1="545" x2="507" y2="545" />
            <circle cx="610" cy="545" r="10" fill="#000" />
            <circle cx="650" cy="545" r="10" fill="#000" />
            <circle cx="690" cy="545" r="10" fill="#000" />
            <circle cx="730" cy="545" r="10" fill="#ff3636" />
            <line x1="301" y1="511" x2="325" y2="511" />
            <line x1="301" y1="491" x2="325" y2="491" />
            <line x1="301" y1="471" x2="325" y2="471" />
            <line x1="301" y1="451" x2="325" y2="451" />
            <line x1="422" y1="252" x2="624" y2="252" stroke="#fff" />
            <line x1="649" y1="252" x2="721" y2="252" stroke="#fff" />
            <line x1="422" y1="292" x2="594" y2="292" stroke="#fff" />
            <line x1="422" y1="272" x2="445" y2="272" stroke="#fff" />
            <line x1="471" y1="272" x2="573" y2="272" stroke="#fff" />
            <line x1="614" y1="292" x2="660" y2="292" stroke="#fff" />
            <line x1="422" y1="332" x2="544" y2="332" stroke="#fff" />
            <line x1="422" y1="372" x2="534" y2="372" stroke="#fff" />
            <line x1="422" y1="352" x2="485" y2="352" stroke="#fff" />
            <line x1="511" y1="352" x2="573" y2="352" stroke="#fff" />
            <line x1="554" y1="372" x2="660" y2="372" stroke="#fff" />
            <line x1="574" y1="332" x2="600" y2="332" stroke="#fff" />
            <line x1="630" y1="332" x2="650" y2="332" stroke="#fff" />
            <line x1="594" y1="352" x2="700" y2="352" stroke="#fff" />
            <line x1="422" y1="447" x2="544" y2="447" stroke="#fff" />
            <line x1="422" y1="467" x2="485" y2="467" stroke="#fff" />
            <line x1="511" y1="467" x2="573" y2="467" stroke="#fff" />
            <line x1="574" y1="447" x2="600" y2="447" stroke="#fff" />
            <line x1="594" y1="467" x2="700" y2="467" stroke="#fff" />
            <line x1="684" y1="372" x2="730" y2="372" stroke="#fff" />
        </g>
        -->

        <!--
            PAPER BAG MASK
            
        <g transform="translate(10 0)">
            <polygon
                points="301.81 576.11 330.2 604.5 331.05 604.5 359.44 576.11 387.83 604.5 388.5 604.5 388.5 199.5 273.5 199.5 273.5 604.42 301.81 576.11"
                fill="#998362" />
            <polygon
                points="734 200 619 200 504 200 389 200 389 604.92 417.31 576.61 445.7 605 446.55 605 474.94 576.61 503.33 605 504 605 504 604.92 532.31 576.61 560.7 605 561.55 605 589.94 576.61 618.33 605 619 605 619 604.92 647.31 576.61 675.7 605 676.55 605 704.94 576.61 733.33 605 734 605 734 604.92 762.31 576.61 790.7 605 791 605 791 200 734 200"
                fill="#b29b76" />
            <line x1="331" y1="258" x2="331" y2="605" />
            <polygon points="274 200 331.5 257.5 389 200 274 200" fill="#7f6c52" />
            <rect x="418" y="404" width="84" height="84" rx="42" fill="#2e271d" />
            <rect x="678" y="404" width="84" height="84" rx="42" fill="#2e271d" />
            <path d="M743,324h48a0,0,0,0,1,0,0v34a0,0,0,0,1,0,0H743a17,17,0,0,1-17-17v0A17,17,0,0,1,743,324Z"
                fill="#7f6c52" stroke="none" />
            <path d="M769,284h22a0,0,0,0,1,0,0v34a0,0,0,0,1,0,0H769a17,17,0,0,1-17-17v0A17,17,0,0,1,769,284Z"
                fill="#7f6c52" stroke="none" />
            <path d="M624,200H791a0,0,0,0,1,0,0v75a0,0,0,0,1,0,0H699a75,75,0,0,1-75-75v0A0,0,0,0,1,624,200Z"
                fill="#7f6c52" stroke="none" />
            <circle cx="703" cy="308" r="14" fill="#7f6c52" stroke="none" />
            <rect x="368" y="308" width="87" height="41" rx="20.5" fill="#7f6c52" stroke="none" />
            <polygon
                points="734 200 619 200 504 200 389 200 389 604.92 417.31 576.61 445.7 605 446.55 605 474.94 576.61 503.33 605 504 605 504 604.92 532.31 576.61 560.7 605 561.55 605 589.94 576.61 618.33 605 619 605 619 604.92 647.31 576.61 675.7 605 676.55 605 704.94 576.61 733.33 605 734 605 734 604.92 762.31 576.61 790.7 605 791 605 791 200 734 200"
                fill="none" />
        </g>
        -->

        <!--
            MUMMY
        
        <g>
            <rect x="299" y="540" width="487" height="43" fill="#dbdbc3" />
            <rect x="299" y="510" width="487" height="43" fill="#dbdbc3" />
            <rect x="304" y="470" width="477" height="43" fill="#dbdbc3" />
            <rect x="296" y="440" width="483" height="43" fill="#dbdbc3" />
            <rect x="304" y="400" width="477" height="43" fill="#dbdbc3" />
            <rect x="304" y="360" width="477" height="43" fill="#dbdbc3" />
            <path d="M674,225a287.77,287.77,0,0,0-132.4-31.73h0A287.77,287.77,0,0,0,409.2,225Z"
                transform="translate(0 -2)" fill="#dbdbc3" />
            <path d="M380.47,255H702.73a241.21,241.21,0,0,0-67.79-43H448.26A241.35,241.35,0,0,0,380.47,255Z"
                transform="translate(0 -2)" fill="#dbdbc3" />
            <path d="M741,285a249.79,249.79,0,0,0-46.27-43H388.48a250.16,250.16,0,0,0-46.28,43Z"
                transform="translate(0 -2)" fill="#dbdbc3" />
            <path d="M327.2,315H756a242.21,242.21,0,0,0-32-43H359.23A242.26,242.26,0,0,0,327.2,315Z"
                transform="translate(0 -2)" fill="#dbdbc3" />
            <path d="M321.81,335H761.39a240.58,240.58,0,0,0-25.17-43H347A241.18,241.18,0,0,0,321.81,335Z"
                transform="translate(0 -2)" fill="#dbdbc3" />
            <path d="M302.2,375H781a235.37,235.37,0,0,0-15.78-43H318A236.11,236.11,0,0,0,302.2,375Z"
                transform="translate(0 -2)" fill="#dbdbc3" />
            <polygon points="380.47 246 771.51 344.26 781 394.43 345.59 279.03 380.47 246" fill="#dbdbc3" />
            <path d="M778.31,405H445.69c-29.31,0-57.63,14.35-79.69,40.38h0l.21.25C388.16,471,416.12,485,445,485H779Z"
                transform="translate(0 -2)" />
            <circle cx="455" cy="446" r="26" fill="#ff0000" />
            <circle cx="715" cy="446" r="26" fill="#ff0000" />
        </g>
        -->







        <!-- HAT -->




        <!--
            PLANET
        
        <g fill="#ff0000">
            <circle cx="543" cy="116" r="38" />
            <path
                d="M579.05,104h24a12,12,0,0,1,12,12h0a12,12,0,0,1-12,12H483a12,12,0,0,1-12-12h0a12,12,0,0,1,12-12h23.94"
                fill="none" />
        </g>
        -->

        <!--
            HALO
        
        <g>
            <path
                d="M584.56,85H504.44a35.13,35.13,0,0,0-35.13,35.12h0a35.13,35.13,0,0,0,35.13,35.13h80.12a35.13,35.13,0,0,0,35.13-35.13h0A35.13,35.13,0,0,0,584.56,85ZM593,120.45a9.89,9.89,0,0,1-9.89,9.89H505.89a9.89,9.89,0,0,1-9.89-9.89v-.65a9.89,9.89,0,0,1,9.89-9.89h77.22A9.89,9.89,0,0,1,593,119.8Z"
                fill="#ffeb33" />
        </g>
        -->

        <!--
            DIAMOND
        
        <g fill="#4AFF70">
            <polygon points="515.5 117 545 67.5 574.5 117 545 166.5 515.5 117" />
        </g>
        -->

        <!--
            SWEAT BAND
        
        <g fill="#4a8bff">
            <rect x="326" y="273" width="437" height="53" />
            <rect x="316" y="291" width="457" height="17" fill="#fff" />
        </g>
        -->

        <!--
            MOHICAN
        
        <g fill="#a5ff2e" transform="translate(15 -7)">
            <rect x="552" y="114" width="42" height="132" />
            <path d="M552,246V114h0a99,99,0,0,0-99,99v14.16S519,216,552,246Z" />
        </g>
        -->

        <!--
            HORNS
        
        <g fill="#f1ece4">
            <path d="M407.5,242H366a67,67,0,0,1-67-67v50a74,74,0,0,0,74,74H407.5a28.5,28.5,0,0,0,0-57Z" />
            <path d="M376.5,242h0A28.5,28.5,0,0,1,405,270.5h0A28.5,28.5,0,0,1,376.5,299h0" fill="none" />
            <path
                d="M725,242H683.5a28.36,28.36,0,0,0-12.61,2.94,230.29,230.29,0,0,1,55.5,53.58A74,74,0,0,0,792,225V175A67,67,0,0,1,725,242Z" />
        </g>
        -->

        <!--
            CAP

        <g fill="#bd15ff" transform="translate(20 -10)">
            <path
                d="M504.08,84h37.83A46.09,46.09,0,0,1,588,130.09V183a0,0,0,0,1,0,0H441a0,0,0,0,1,0,0V147.08A63.08,63.08,0,0,1,504.08,84Z" />
            <path d="M588,167h77a8,8,0,0,1,8,8v0a8,8,0,0,1-8,8H588a0,0,0,0,1,0,0V167A0,0,0,0,1,588,167Z" />
            <path d="M443,136h15a14,14,0,0,1,14,14h0a14,14,0,0,1-14,14H441" fill="#000" />
            <rect x="506" y="68" width="20" height="16" rx="8" />
            <polygon points="559 150 588 150 588 138.45 588 130 559 130 559 150" fill="#ffffff" stroke="#fff" />
            <line x1="441" y1="164" x2="426" y2="164" />
            <path
                d="M504.08,84h37.83A46.09,46.09,0,0,1,588,130.09V183a0,0,0,0,1,0,0H441a0,0,0,0,1,0,0V147.08A63.08,63.08,0,0,1,504.08,84Z"
                fill="none" />


        </g>
        -->

        <!--
            BEANIE

        <g transform="translate(0 15)" fill="#28345c">
            <rect x="358.5" y="246.5" width="367" height="29" />
            <path d="M712.76,246.5a229,229,0,0,0-342.52,0Z" />

            <line x1="376.91" y1="248" x2="376.91" y2="268" />
            <line x1="406.91" y1="248" x2="406.91" y2="268" />
            <line x1="436.91" y1="248" x2="436.91" y2="268" />
            <line x1="466.91" y1="248" x2="466.91" y2="268" />
            <line x1="496.91" y1="248" x2="496.91" y2="268" />
            <line x1="526.91" y1="248" x2="526.91" y2="268" />
            <line x1="556.91" y1="248" x2="556.91" y2="268" />
            <line x1="586.91" y1="248" x2="586.91" y2="268" />
            <line x1="616.91" y1="248" x2="616.91" y2="268" />
            <line x1="646.91" y1="248" x2="646.91" y2="268" />
            <line x1="676.91" y1="248" x2="676.91" y2="268" />
            <line x1="706.91" y1="248" x2="706.91" y2="268" />

        </g>
        -->

        <!--
            AFRO
        
        <g fill="#610e5a">
            <circle cx="358.5" cy="342.5" r="3.5" />
            <circle cx="391.5" cy="362.5" r="3.5" />
            <circle cx="351.5" cy="382.5" r="3.5" />
            <circle cx="397.5" cy="323.5" r="3.5" />
            <path
                d="M728.44,230.73A35.49,35.49,0,0,0,668.5,199.3a35.49,35.49,0,0,0-50,0,35.49,35.49,0,0,0-50,0,35.49,35.49,0,0,0-50,0,35.49,35.49,0,0,0-50,0,35.49,35.49,0,0,0-50,0,35.49,35.49,0,0,0-60,30.87,35.5,35.5,0,1,0,34,59.53,35.49,35.49,0,0,0,50,0,35.49,35.49,0,0,0,50,0,35.49,35.49,0,0,0,50,0,35.49,35.49,0,0,0,50,0,35.49,35.49,0,0,0,50,0,35.49,35.49,0,0,0,50,0,35.5,35.5,0,1,0,35.94-59Z" />
        </g>
        -->

        <!--
            CROWN
        
        <g transform="translate(0 -10)">
            <defs>
                <linearGradient id="linear-gradient-crown" x1="459" y1="126" x2="621" y2="126"
                    gradientUnits="userSpaceOnUse">
                    <stop offset="0" stop-color="#ffe000" />
                    <stop offset="1" stop-color="#ff00a4" />
                </linearGradient>
            </defs>
            <polygon points="621 182 621 70 580.5 110.5 540 70 499.5 110.5 459 70 459 182 621 182"
                fill="url(#linear-gradient-crown)" />
            <circle cx="494" cy="143" r="9" fill="#fff" />
            <circle cx="584" cy="143" r="9" fill="#fff" />
            <circle cx="540" cy="143" r="9" fill="#fff" />
        </g>
        -->

        <!--
            TOUPE
        
        <g fill="#000000">
            <path
                d="M742.94,145a37.07,37.07,0,0,0-37.07,36.94l0,13.06H383.6A103.6,103.6,0,0,0,280,298.6V468a28,28,0,0,0-28,28v17a28,28,0,0,0,28,28h32V409.45A57.45,57.45,0,0,1,369.45,352H434V275H719.11A60.89,60.89,0,0,0,780,214.11V182.06A37.06,37.06,0,0,0,742.94,145Z"
                transform="translate(3 0)" />
        </g>
        -->

        <!--
            CONDOM
        
        <g fill="#8688ff">
            
            <path d="M504,222V169a37,37,0,0,1,37-37h0a37,37,0,0,1,37,37v53" />
            <path d="M541,150h0a19,19,0,0,1,19,19" stroke="#ffffff" />
        </g>
        -->

        <!--
            MIC
        
        <g>
            <path
                d="M971.49,228.13c14.74-10.43,19.5-28.26,16.71-45.52a67,67,0,0,0-29.1-45.56C927,115.9,885.92,120.52,850,126c-24.57,3.73-49.58,8-74.45,4.7-5.67-.76-8.12,7.91-2.4,8.68,37.49,5,73.8-6,111-8.48,32.35-2.18,73.86,2.93,89.63,35.78,8.14,16.94,10.57,41.44-6.77,53.71-4.69,3.32-.2,11.13,4.54,7.78Z"
                stroke-width="3" transform="translate(-2 0)" />
            transform="translate(736.5 -453.5) rotate(90)" />

            <path d="M542.75,205.25h0c2.76,0,5.51.07,8.25.16V154H530v51.61C534.22,205.38,538.47,205.25,542.75,205.25Z"
                fill="#545454" />
            <rect x="645.5" y="39.5" width="21" height="204" fill="#545454"
                transform="translate(797.5 -514.5) rotate(90)" />
            <circle cx="541" cy="142" r="20" fill="#545454" />
            <rect x="793" y="119" width="21" height="135" fill="#545454"
                transform="translate(103.46 622.78) rotate(-45)" />
            <path d="M902.28,234.54h0a26,26,0,0,1,26,26v88a0,0,0,0,1,0,0h-52a0,0,0,0,1,0,0v-88a26,26,0,0,1,26-26Z"
                transform="translate(1334.13 1135.7) rotate(-135)" fill="#545454" />
            <path d="M871.17,285.88l-20.51-20.5a21,21,0,0,1,0-29.7h0a21,21,0,0,1,29.7,0L937.63,293" fill="none"
                stroke-width="16" />
            <rect x="840.17" y="288.65" width="62" height="68" rx="15.46"
                transform="translate(1259.02 1166.81) rotate(-135)" />
            <rect x="936.97" y="227.68" width="38.34" height="20" transform="translate(111.98 745.71) rotate(-45)"
                fill="#fff" />
            <circle cx="758" cy="142" r="20" fill="#545454" />
        </g>
        -->

        <!--
            COWBOY
        
        <g fill="#b3611f">
            <path
                d="M639,115.76v30.68a15.39,15.39,0,0,1-15.39,15.39H455.77a15.39,15.39,0,0,1-15.39-15.39V115.76a21,21,0,0,0-21-21h0a21,21,0,0,0-21,21v30h0a29.52,29.52,0,0,0,29.52,29.52H651.48A29.52,29.52,0,0,0,681,145.73h0v-30a21,21,0,0,0-21-21h0A21,21,0,0,0,639,115.76Z" />
            <path
                d="M639,115.76v30.68a15.39,15.39,0,0,1-15.39,15.39H455.77a15.39,15.39,0,0,1-15.39-15.39V115.76a21,21,0,0,0-21-21h0a21,21,0,0,0-21,21v30h0a29.52,29.52,0,0,0,29.52,29.52H651.48A29.52,29.52,0,0,0,681,145.73h0v-30a21,21,0,0,0-21-21h0A21,21,0,0,0,639,115.76Z"
                fill="#000" opacity="0.3" />
            <path
                d="M549.73,71.15v1.28a9.85,9.85,0,0,1-9.84,9.84h0a9.85,9.85,0,0,1-9.84-9.84V71.15a27.39,27.39,0,0,0-27.39-27.4h-.45a27.4,27.4,0,0,0-27.4,27.4v90.68H604.52V71.15a27.4,27.4,0,0,0-27.4-27.4h0A27.39,27.39,0,0,0,549.73,71.15Z" />
            <rect x="474.81" y="110.84" width="129.7" height="29.52" fill="#ead9a0" />
            <circle cx="540" cy="126" r="22" fill="#ead9a0" />
        </g>
        -->

        <!--
            FRIED CHICKEN BUCKET
        
        <g>
            <path
                d="M594.51,41.81a11.24,11.24,0,0,0,3,2.15L572.78,68.67l10.6,10.61,24.84-24.84a11.37,11.37,0,1,0,2.37-12.63l-.17.18h0l.18-.17a11.37,11.37,0,1,0-16.08,0Z"
                fill="#fff" />
            <circle cx="567.65" cy="84.75" r="31.45" fill="#d68330" />
            <circle cx="538.48" cy="71.85" r="31.45" fill="#d68330" />
            <circle cx="509.38" cy="93.4" r="31.45" fill="#d68330" />
            <polygon points="601.55 98 481.55 98 489.55 178 593.55 178 601.55 98" fill="#fff" />
            <rect x="472.35" y="78" width="138.4" height="20" fill="#fff" />
            <polygon points="503.8 103 510.07 173 529.92 173 529.92 103 503.8 103" fill="#ff3636" stroke="none" />
            <polygon points="579 103 572.73 173 552.88 173 552.88 103 579 103" fill="#ff3636" stroke="none" />
            <rect x="525" y="131" width="32" height="5" fill="#fff" />
        </g>
        -->

        <!--
            SOMBRERO
        
        <g fill="#3bff4b">
            <path d="M339,120.5H740a0,0,0,0,1,0,0v0a56,56,0,0,1-56,56H395a56,56,0,0,1-56-56v0A0,0,0,0,1,339,120.5Z"
                fill="#fff6b3" />
            <path
                d="M538.3,30.5h0a54.15,54.15,0,0,1,54.15,54.15V120.5a0,0,0,0,1,0,0H484.15a0,0,0,0,1,0,0V84.65A54.15,54.15,0,0,1,538.3,30.5Z"
                fill="#fff6b3" />
            <path
                d="M617.33,157.54a31.77,31.77,0,0,1-20.3-7.1L578.57,135.1,560.1,150.44c-11.38,9.46-29.21,9.46-40.59,0l-18.3-15.2-18.29,15.2c-11.38,9.46-29.21,9.46-40.59,0L423.86,135.1,405.4,150.44c-11.39,9.46-29.22,9.46-40.6,0l-20.91-17.38a7.45,7.45,0,0,1-5.39-7.16,7.57,7.57,0,0,1,7.5-7.58h.91a7.49,7.49,0,0,1,4.79,1.73l22.69,18.86c5.81,4.82,15.61,4.82,21.42,0l22.69-18.86a7.47,7.47,0,0,1,4.79-1.73h1.14a7.47,7.47,0,0,1,4.79,1.73l22.69,18.86c5.81,4.82,15.61,4.82,21.42,0l22.07-18.34a7.38,7.38,0,0,1,5.31-2.25h.9a7.5,7.5,0,0,1,4.8,1.73l22.69,18.86c5.8,4.82,15.61,4.82,21.42,0l22.69-18.85a7.47,7.47,0,0,1,4.79-1.73h1.14a7.49,7.49,0,0,1,4.79,1.73l22.69,18.86c5.8,4.82,15.61,4.82,21.42,0l22.06-18.34a7.42,7.42,0,0,1,5.32-2.25h.9a7.47,7.47,0,0,1,4.79,1.73l22.69,18.86c5.81,4.82,15.62,4.82,21.42,0l22.69-18.86a7.5,7.5,0,0,1,4.8-1.73h1.13a7.5,7.5,0,0,1,1.85,14.77l-20.88,17.35c-11.38,9.46-29.21,9.46-40.59,0l-18.3-15.2-18.3,15.2A31.82,31.82,0,0,1,617.33,157.54Z"
                fill="#ff3636" stroke="none" />
            <path
                d="M617.33,172.07A31.77,31.77,0,0,1,597,165l-18.46-15.34L560.1,165c-11.38,9.46-29.21,9.46-40.59,0l-18.3-15.2L482.92,165c-11.38,9.46-29.21,9.46-40.59,0l-18.47-15.34L405.4,165c-11.39,9.46-29.22,9.46-40.6,0L343.89,147.6a7.45,7.45,0,0,1-5.39-7.16,7.58,7.58,0,0,1,7.5-7.59h.91a7.47,7.47,0,0,1,4.79,1.73l22.69,18.86c5.81,4.82,15.61,4.82,21.42,0l22.69-18.86a7.47,7.47,0,0,1,4.79-1.73h1.14a7.47,7.47,0,0,1,4.79,1.73l22.69,18.86c5.81,4.82,15.62,4.82,21.42,0l22.06-18.34a7.46,7.46,0,0,1,5.32-2.25h.9a7.5,7.5,0,0,1,4.8,1.73l22.69,18.86c5.8,4.82,15.61,4.82,21.42,0l22.69-18.86a7.47,7.47,0,0,1,4.79-1.73h1.14a7.49,7.49,0,0,1,4.79,1.73l22.69,18.86c5.8,4.82,15.61,4.82,21.42,0L650.1,135.1a7.46,7.46,0,0,1,5.32-2.25h.9a7.47,7.47,0,0,1,4.79,1.73l22.69,18.86c5.81,4.82,15.62,4.82,21.42,0l22.69-18.86a7.5,7.5,0,0,1,4.8-1.73h1.13a7.5,7.5,0,0,1,1.85,14.77L714.81,165c-11.38,9.46-29.21,9.46-40.59,0l-18.3-15.2L637.62,165A31.77,31.77,0,0,1,617.33,172.07Z"
                stroke="none" />
            <path d="M339,120.5H740a0,0,0,0,1,0,0v0a56,56,0,0,1-56,56H395a56,56,0,0,1-56-56v0A0,0,0,0,1,339,120.5Z"
                fill="none" />
            <rect x="488.59" y="79.5" width="99.41" height="12" fill="#ff3636" stroke="none" />
            <rect x="488.59" y="90.5" width="99.41" height="12" stroke="none" />
        </g>
        -->

        <!--
            BUN
        
        <g fill="#422f17">
            <polyline points="479 159 504.37 177.48 479 177" fill="none" />
            <circle cx="540" cy="150" r="45" />
            <path d="M546,161a29,29,0,0,1-29,29" fill="none" />
            <path d="M566,161a29,29,0,0,1-29,29" fill="none" />
            <circle cx="503" cy="195" r="11" fill="#fff" />
            <circle cx="521.75" cy="195" r="11" fill="#fff" />
            <circle cx="540.5" cy="195" r="11" fill="#fff" />
            <circle cx="559.25" cy="195" r="11" fill="#fff" />
            <circle cx="578" cy="195" r="11" fill="#fff" />
        </g>
        -->

        <!--
            BUNNY EARS
        
        <g fill="#e7e7e7">
            <rect x="324" y="266" width="432" height="40" rx="13" />
            <rect x="396.99" y="200" width="33.02" height="66.18" fill="#ffa6f5" stroke="#000" stroke-linecap="round"
                stroke-miterlimit="10" stroke-width="10" transform="translate(-20 0)" />
            <path
                d="M430,200H361.79a25,25,0,0,0-25,25V337.27A34.73,34.73,0,0,0,371.5,372h0a34.73,34.73,0,0,0,34.73-34.73V215H430v51h18V218A18,18,0,0,0,430,200Z"
                transform="translate(-20 0)" />
            <path
                d="M698.27,266h20V62.73A34.73,34.73,0,0,0,683.5,28h0a34.73,34.73,0,0,0-34.73,34.73V231.05A230.29,230.29,0,0,1,698.27,266Z" />
            <path d="M698.49,266.18H700V129.91a16.51,16.51,0,1,0-33,0V241.68A230.3,230.3,0,0,1,698.49,266.18Z"
                fill="#ffa6f5" />
        </g>
        -->

        <!--
            AIRMAX 1s
        -->
        <g fill="#286e17" transform="translate(0 -30)">
            <path
                d="M710,143.86l-74.41-19.79a6.23,6.23,0,0,0,.07-2.69,6.38,6.38,0,0,0-3.33-4.45L544.1,71.48a6.24,6.24,0,0,0-2-.63c-8.45-5.41-15.73-9.1-19.85-9.1,0,0-14.48,17.16-15.49,40.66a57,57,0,0,1-19.58,4.38c-24.35,1.23-36.58-12-41.36-19.16a9.34,9.34,0,0,0-8.19-4.09l-6.49.3a9.42,9.42,0,0,0-7.76,4.81c-14.12,25.08-12.54,57.52-12.54,57.52l144.84,7.37,52.66,16.62Z"
                fill="#fff" />
            <path
                d="M487.16,106.79c-24.35,1.23-36.58-12-41.36-19.16a9.34,9.34,0,0,0-8.19-4.09l-6.49.3a9.42,9.42,0,0,0-7.76,4.81c-14.12,25.08-12.54,57.52-12.54,57.52l146.39,7.45h0a38.45,38.45,0,0,1,45.33-30l25.56,5.2a6.36,6.36,0,0,0,7.51-7.43h0a6.38,6.38,0,0,0-3.33-4.45L544.1,71.48a6.19,6.19,0,0,0-8.38,2.73C530.59,84.56,516.68,105.3,487.16,106.79Z"
                fill="#b8b8b8" stroke="none" />
            <path
                d="M715.93,176.14s12.35-20.73-6-32.28l-58.27,3.66a34.37,34.37,0,0,0-17.88,6.28c-7.51,5.37-19.66,10.25-25.41-8.4a7.62,7.62,0,0,0-9.2-5.15L569.88,148a52.48,52.48,0,0,1-20.61,1.21L429.76,132.48a16.45,16.45,0,0,0-17.53,10.17l-2.39,6s-.75,12.75,8.39,16.94,160.59,23.71,160.59,23.71l95.26-1.19Z" />
            <path
                d="M715.93,176.14s-33.48,25.11-83.7,25.11H473.09c-5.5,0-11-.25-16.47-.74l-27.26-2.45L414.78,188a5,5,0,0,1-2.15-4.11V170.75a5,5,0,0,1,4.27-4.95c4.21-.63,10.54-2.29,14.41-6.74a5.07,5.07,0,0,1,3.63-1.75c12.85-.45,75.45-1.72,135.51,12.85C637.81,186.5,715.93,176.14,715.93,176.14Z"
                fill="#fff" />
            <path d="M470,120c93.26,24.31,74.15-8,74.15-8l-6.4-10" />
            <line x1="621.1" y1="114.68" x2="616.71" y2="121.86" />
            <line x1="605.15" y1="106.71" x2="600.77" y2="113.89" />
            <line x1="589.21" y1="98.74" x2="584.83" y2="105.92" />
            <line x1="573.27" y1="90.77" x2="568.89" y2="97.94" />
            <rect x="468.02" y="176.54" width="55.4" height="12.75" rx="6.38"
                transform="translate(991.45 365.83) rotate(-180)" fill="#515151" />
            <path
                d="M423.36,88.65a9.42,9.42,0,0,1,7.76-4.81l6.49-.3a9.34,9.34,0,0,1,8.19,4.09c4.78,7.13,17,20.39,41.36,19.16,29.52-1.49,43.43-22.23,48.56-32.58a6.19,6.19,0,0,1,8.38-2.73l21.29,10.89h0s-43.19,40.43-95.28,38h0c-11.21-6.41-31.94-15-52.72-18.32A83.57,83.57,0,0,1,423.36,88.65Z"
                fill="#fff" stroke="none" />
            <line x1="546.47" y1="86.57" x2="546.59" y2="86.54" />
            <path
                d="M710,143.86l-74.41-19.79a6.23,6.23,0,0,0,.07-2.69,6.38,6.38,0,0,0-3.33-4.45L544.1,71.48a6.24,6.24,0,0,0-2-.63c-8.45-5.41-15.73-9.1-19.85-9.1,0,0-14.48,17.16-15.49,40.66a57,57,0,0,1-19.58,4.38c-24.35,1.23-36.58-12-41.36-19.16a9.34,9.34,0,0,0-8.19-4.09l-6.49.3a9.42,9.42,0,0,0-7.76,4.81c-14.12,25.08-12.54,57.52-12.54,57.52h0l-1,2.47s-.75,12.75,8.39,16.94l-1.33.22a5,5,0,0,0-4.27,4.95v13.13a5,5,0,0,0,2.15,4.11l14.58,10.07,27.26,2.45c5.47.49,11,.74,16.47.74H632.23c50.22,0,83.7-25.11,83.7-25.11S728.28,155.41,710,143.86Z"
                fill="none" />
            <path d="M487.16,106.79c29.52-1.49,43.43-22.23,48.56-32.58a6.19,6.19,0,0,1,8.38-2.73" fill="none" />
            <path d="M470,120c93.26,24.31,74.15-8,74.15-8l-6.4-10" fill="none" stroke="#000" stroke-linecap="round"
                stroke-linejoin="round" stroke-width="10" />
        </g>
        -->

        <!--
            BUCKET HAT
        
        <g fill="#ac2f2f" transform="translate(-3 10)">
            <path
                d="M628.94,121.21H464.06l7.25-53.45a16.62,16.62,0,0,1,16.62-16.62H605.07a16.62,16.62,0,0,1,16.62,16.62Z"
                transform="translate(0)" />
            <polygon points="645 159.68 448 159.68 464.06 121.21 628.94 121.21 645 159.68" />
            <line x1="477" y1="143" x2="477" y2="159.67" />
            <line x1="490" y1="143" x2="490" y2="159.67" />
            <line x1="503" y1="143" x2="503" y2="159.67" />
            <line x1="586" y1="78" x2="586" y2="88" stroke="#fff" />
            <line x1="599" y1="83" x2="599" y2="88" stroke="#fff" />
            <line x1="573" y1="83" x2="573" y2="88" stroke="#fff" />
            <line x1="575" y1="101" x2="597" y2="101" opacity="0.3" stroke="#fff" />
        </g>
        -->









        <!-- EYES -->



        <!--
            DEFAULT EYES

        <g transform="translate(0 10)">
            <circle cx="451.88" cy="437.25" r="26" fill="#fff" />
            <circle cx="711.88" cy="437.25" r="26" fill="#fff" />
        </g>
        -->

        <!--
            THREE EYES
        
        <g>
            <circle cx="451.88" cy="437.25" r="26" fill="#fff" />
            <circle cx="711.88" cy="437.25" r="26" fill="#fff" />
            <circle cx="582" cy="407" r="26" fill="#fff" />
        </g>
        -->

        <!--
            SHADES
        -->
        <g transform="translate(30 25) scale(0.95 0.95)">
            <path d="M390,396H279a14,14,0,0,0-14,14h0v19" fill="none" />
            <line x1="514" y1="396.45" x2="650" y2="396.45" />
            <path d="M530,385.39H374V408h15.1v27.68a62.9,62.9,0,0,0,62.9,62.9h0a62.9,62.9,0,0,0,62.9-62.9V408H530Z"
                fill="#000000" opacity="0.9" />
            <path d="M790,385.39H634V408h15.1v27.68a62.9,62.9,0,0,0,62.9,62.9h0a62.9,62.9,0,0,0,62.9-62.9V408H790Z"
                fill="#000000" opacity="0.9" />
            <path d="M530,385.39H374V408h15.1v27.68a62.9,62.9,0,0,0,62.9,62.9h0a62.9,62.9,0,0,0,62.9-62.9V408H530Z"
                fill="none" />
            <path d="M790,385.39H634V408h15.1v27.68a62.9,62.9,0,0,0,62.9,62.9h0a62.9,62.9,0,0,0,62.9-62.9V408H790Z"
                fill="none" />
        </g>
        -->

        <!--
            GLASSES
            
        <g fill="#252525">
            <circle cx="454.88" cy="447.25" r="39.75" />
            <circle cx="714.88" cy="447.25" r="39.75" />
            <line x1="490.27" y1="429.17" x2="679.48" y2="429.17" />
            <path d="M419.48,429.17H298.83A24.83,24.83,0,0,0,274,454h0" fill="none" />
        </g>
        -->

        <!--
            3D GLASSES
        
        <g>
            <path d="M258,446.69V488h40V469.6a5.6,5.6,0,0,1,5.6-5.6H383V412H292.69A34.69,34.69,0,0,0,258,446.69Z"
                fill="#fff" />
            <path d="M383,389v99H553.77a35,35,0,0,1,66.46,0H791V389Z" fill="#fff" />
            <rect x="671" y="413" width="100" height="51" transform="translate(1424 877) rotate(180)" fill="#ff4848" />
            <rect x="411" y="413" width="100" height="51" transform="translate(924 877) rotate(180)" fill="#4a8bff" />
        </g>
        -->

        <!--
            JOKER EYES
            
        <g fill="#7e839c">
            <polygon points="399.79 450 457 354 514.21 450 457 546 399.79 450" />
            <polygon points="659.79 450 717 354 774.21 450 717 546 659.79 450" />
            <circle cx="457" cy="448" r="26" fill="#fff" />
            <circle cx="717" cy="448" r="26" fill="#fff" />
        </g>
        -->

        <!--
            IG GLASSES
        
        <g fill="#ff1717">
            <circle cx="453.88" cy="448.25" r="26" fill="#fff" />
            <circle cx="713.88" cy="448.25" r="26" fill="#fff" />
            <rect x="377" y="448" width="154" height="30" rx="15" opacity="0.5" />
            <rect x="637" y="448" width="154" height="30" rx="15" opacity="0.5" />
            <rect x="377" y="448" width="154" height="30" rx="15" fill="none" />
            <rect x="637" y="448" width="154" height="30" rx="15" fill="none" />
            <line x1="531" y1="463" x2="637" y2="463" />
            <path d="M377,463H292.73A10.72,10.72,0,0,0,282,473.73V489" fill="none" />
        </g>
        -->

        <!--
            NINJA
        
        <g fill="#ff3636" transform="translate(0 -6)">
            <rect x="302" y="420" width="479" height="72" />
            <path d="M481,446a26,26,0,0,1-52,0Z" fill="#fff" />
            <path d="M741,446a26,26,0,0,1-52,0Z" fill="#fff" />
            <circle cx="278" cy="456" r="21" />
            <path d="M257,456H229.69A24.68,24.68,0,0,1,205,431.31V404Z" />
            <path d="M257,456v27.31A24.68,24.68,0,0,1,232.31,508H205Z" />
        </g>
        -->

        <!--
            TIRED 
        
        <g>
            <path d="M481,446a26,26,0,0,1-52,0Z" fill="#fff" stroke="#000" stroke-linecap="round"
                stroke-linejoin="round" stroke-width="10" />
            <path d="M741,446a26,26,0,0,1-52,0Z" fill="#fff" stroke="#000" stroke-linecap="round"
                stroke-linejoin="round" stroke-width="10" />
        </g>
        -->

        <!--
            TEARY 
        
        <g>
            <circle cx="455" cy="446" r="26" />
            <circle cx="439" cy="448" r="5" fill="#fff" stroke="none" />
            <path d="M475.23,425.54a26,26,0,0,0-37.2,2.82,20.48,20.48,0,0,0,37.2-2.82Z" fill="#fff" stroke="none" />
            <path d="M482.76,452.51a20,20,0,0,0-32.43,21.62A25.73,25.73,0,0,0,457,475,26,26,0,0,0,482.76,452.51Z"
                fill="#fff" stroke="none" />
            <circle cx="455" cy="446" r="26" fill="none" />
            <circle cx="715" cy="446" r="26" />
            <circle cx="699" cy="448" r="5" fill="#fff" stroke="none" />
            <path d="M735.23,425.54a26,26,0,0,0-37.2,2.82,20.48,20.48,0,0,0,37.2-2.82Z" fill="#fff" stroke="none" />
            <path d="M742.76,452.51a20,20,0,0,0-32.43,21.62A25.73,25.73,0,0,0,717,475,26,26,0,0,0,742.76,452.51Z"
                fill="#fff" stroke="none" />
            <circle cx="715" cy="446" r="26" fill="none" />
        </g>
        -->

        <!--
            HAPPY 
        
        <g>
            <path d="M739,436a26,26,0,0,0-48,0" fill="none" />
            <path d="M479,436a26,26,0,0,0-48,0" fill="none" />
        </g>
        -->

        <!--
            SAD 
        
        <g>
            <path d="M739,456a26,26,0,0,1-48,0" fill="none" />
            <path d="M479,456a26,26,0,0,1-48,0" fill="none" />
        </g>
        -->

        <!--
            BOUJEE SHADES 
        
        <g fill="#8b2e61" transform="translate(0 -10)">
            <path
                d="M796.36,391.26H702.85a47.71,47.71,0,0,0-32.41,12.65,393.9,393.9,0,0,0-165.11,1.72,47.72,47.72,0,0,0-34.18-14.37H377.64A11.62,11.62,0,0,0,366.05,402H291a32,32,0,0,0-32,32,10,10,0,0,0,20,0,12,12,0,0,1,12-12h75.22a79.29,79.29,0,0,0,79.09,73.74h25.84A47.84,47.84,0,0,0,519,447.9v-8.8a47.6,47.6,0,0,0-2.55-15.4,373.79,373.79,0,0,1,141.74-1.78A47.84,47.84,0,0,0,655,439.1v8.8a47.84,47.84,0,0,0,47.85,47.84h25.84A79.3,79.3,0,0,0,808,416.44V402.89A11.64,11.64,0,0,0,796.36,391.26Z"
                fill="#fff" />
            <path
                d="M403.46,409h61.36a34.5,34.5,0,0,1,34.5,34.5v0a34.5,34.5,0,0,1-34.5,34.5H448.9a57.22,57.22,0,0,1-57.22-57.22v0A11.78,11.78,0,0,1,403.46,409Z" />
            <path
                d="M732.9,409h15.92a34.5,34.5,0,0,1,34.5,34.5v0a34.5,34.5,0,0,1-34.5,34.5H687.46a11.78,11.78,0,0,1-11.78-11.78v0A57.22,57.22,0,0,1,732.9,409Z"
                transform="translate(1459 887) rotate(-180)" />
            <path
                d="M403.46,409h61.36a34.5,34.5,0,0,1,34.5,34.5v0a34.5,34.5,0,0,1-34.5,34.5H448.9a57.22,57.22,0,0,1-57.22-57.22v0A11.78,11.78,0,0,1,403.46,409Z"
                fill="none" />
            <path
                d="M732.9,409h15.92a34.5,34.5,0,0,1,34.5,34.5v0a34.5,34.5,0,0,1-34.5,34.5H687.46a11.78,11.78,0,0,1-11.78-11.78v0A57.22,57.22,0,0,1,732.9,409Z"
                transform="translate(1459 887) rotate(-180)" fill="none" />
        </g>
        -->

        <!--
            VISOR SHADES 
        
        <g transform="translate(0 -15)">
            <defs>
                <linearGradient id="linear-gradient-visor" x1="585" y1="402" x2="585" y2="490"
                    gradientUnits="userSpaceOnUse">
                    <stop offset="0" stop-color="#ff005c" />
                    <stop offset="1" stop-color="#f9ff08" />
                </linearGradient>
            </defs>
            <path
                d="M791,402H298a15,15,0,0,0-15,15v49h15V434.87A14.87,14.87,0,0,1,312.87,420h0a22,22,0,0,1,13.66,4.75L418,490l-9.73-70H791Z" />
            <path
                d="M388,402l7.47,65.72a25.12,25.12,0,0,0,25,22.28h119a27.37,27.37,0,0,0,23.3-13.48,26,26,0,0,1,44.48,0A27.37,27.37,0,0,0,630.54,490h119a25.12,25.12,0,0,0,25-22.28L782,402Z"
                fill="url(#linear-gradient-visor)" />
        </g>
        -->

        <!--
            DEAD 
        
        <g>
            <line x1="473.38" y1="427.62" x2="436.62" y2="464.38" />
            <line x1="473.38" y1="464.38" x2="436.62" y2="427.62" />
            <line x1="733.38" y1="427.62" x2="696.62" y2="464.38" />
            <line x1="733.38" y1="464.38" x2="696.62" y2="427.62" />
        </g>
        -->

        <!--
            WINK 
        
        <g>
            <circle cx="455" cy="446" r="26" fill="#fff" />
            <polyline points="715 472 689 446 715 420" fill="none" />
            <line x1="689" y1="446" x2="741" y2="446" />
        </g>
        -->

        <!--
            EYE LINER
        
        <g>
            <path d="M455,420H413.27a18,18,0,0,0,18,18H455Z" />
            <path d="M715.27,420H757a18,18,0,0,1-18,18H715.27Z" />
            <circle cx="455" cy="446" r="26" fill="#fff" />
            <circle cx="715" cy="446" r="26" fill="#fff" />
        </g>
        -->











        <!-- FACE -->



        <!--
            DEFAULT MOUTH     
        
        <g>
            <line x1="545.38" y1="513" x2="624.38" y2="513" />
        </g>
        -->

        <!--
            SMOKER  
        
        <g>
            <rect x="863" y="443" width="39" height="137" fill="#fff" transform="translate(351 1394) rotate(-90)" />
            <rect x="819" y="487" width="39" height="49" transform="translate(307 1350) rotate(-90)" fill="#d68a25" />
            <rect x="922.5" y="502.5" width="39" height="18" transform="translate(410.5 1453.5) rotate(-90)" />
            <line x1="913" y1="350" x2="913" y2="462"/>
            <line x1="931" y1="462" x2="931" y2="398"/>
            <circle cx="585" cy="511" r="12" />
        </g>
        -->

        <!--
            COVID MASK
        
        <g transform="translate(0 10)">
            <line x1="547.38" y1="513" x2="626.38" y2="513" />
            <rect x="472" y="487" width="229" height="118" rx="23" fill="#cbe7ff" />
            <path d="M472,510a23,23,0,0,1,23-23H678a23,23,0,0,1,23,23Z" fill="#fff" />
            <line x1="498" y1="535" x2="675" y2="535" stroke="#85b9e7" />
            <line x1="498" y1="558" x2="675" y2="558" stroke="#85b9e7" />
            <line x1="498" y1="581" x2="675" y2="581" stroke="#85b9e7" />
            <path d="M472.29,565.25H296.71a29.13,29.13,0,0,1-29.12-29.13h0A29.12,29.12,0,0,1,296.71,507H472.29"
                fill="none" />
            <path d="M772.16,507H700.59" fill="none" />
            <path d="M700.59,565.25h71.57" fill="none" />
        </g>
        -->

        <!--
            MOBSTER
        -->
        <g>
            <g fill="#e2c93a">
                <rect x="594.5" y="592.5" width="19" height="50" />
                <rect x="325" y="572.56" width="440" height="20" />
                <rect x="562" y="618" width="79.5" height="55.5" rx="13.11" />
                <rect x="302" y="563.06" width="39" height="39" rx="13.22" />
                <rect x="364.86" y="563.06" width="39" height="39" rx="13.22" />
                <rect x="427.71" y="563.06" width="39" height="39" rx="13.22" />
                <rect x="490.57" y="563.06" width="39" height="39" rx="13.22" />
                <rect x="679.14" y="563.06" width="39" height="39" rx="13.22" />
                <rect x="742" y="563.06" width="39" height="39" rx="13.22" />
                <rect x="616.29" y="563.06" width="39" height="39" rx="13.22" />
                <rect x="553.43" y="563.06" width="39" height="39" rx="13.22" />
            </g>
            <line x1="544.38" y1="513" x2="623.38" y2="513" />
            <rect x="518" y="491" width="55" height="6" />
            <rect x="594" y="491" width="55" height="6" />
            <rect x="580" y="528" width="8" height="16" />
        </g>
        -->

        <!--
            <BANDANA>
          
        <g fill="#ff3131" transform="translate(0 10)">
            <polygon points="303 503 585 648 654.64 598.71 780 510 780 490 303 490 303 503" />
            <circle cx="288" cy="498" r="21" />
            <path d="M267,498H239.69A24.68,24.68,0,0,1,215,473.31V446Z" />
            <path d="M267,498v27.31A24.68,24.68,0,0,1,242.31,550H215Z" />
            <path d="M615,495a39,39,0,0,1-78,0" />
            <path d="M595,495a19,19,0,0,1-38,0" fill="none" stroke="#fff" stroke-linecap="butt" />
            <polyline points="738.93 498.94 642.56 567.14 588.52 605.38" fill="none" stroke="#000"
                stroke-dasharray="1 14.98" />
            <polyline points="582.41 609.71 582 610 582 610.32 581.55 610.09" />
            <line x1="567.84" y1="603.04" x2="355.3" y2="493.75" fill="none" stroke-dasharray="1.03 15.42"
                stroke-linecap="round" stroke-linejoin="round" />
            <line x1="712" y1="501.72" x2="711.59" y2="502.01" fill="none" stroke="#fff" />
            <polyline points="699.4 510.64 628.43 560.87 588.5 589.12" fill="none" stroke="#fff"
                stroke-dasharray="1 14.93" />
            <polyline points="582 594.39 582 594.89 581.55 594.66" fill="none" stroke="#fff" />
            <line x1="568.53" y1="587.97" x2="408.3" y2="505.58" fill="none" stroke-dasharray="0.98 14.65"
                stroke="#fff" />
            <line x1="401.78" y1="502.23" x2="401.34" y2="502" fill="none" stroke="#fff" />
            <line x1="666.14" y1="506" x2="665.73" y2="506.29" fill="none" stroke="#fff" stroke-width="20" />
            <polyline points="638.56 525.52 612.05 544.28 595.99 555.64" fill="none" stroke="#fff" stroke-width="20"
                stroke-dasharray="1.11 33.29" />
            <polyline points="581.76 567.5 581.7 568 581.25 567.77" fill="none" stroke="#fff" stroke-width="20" />
            <line x1="552.06" y1="552.76" x2="476.16" y2="513.73" fill="none" stroke-dasharray="1.09 32.83"
                stroke-width="20" stroke="#fff" />
            <line x1="461.56" y1="506.23" x2="461.12" y2="506" fill="none" stroke="#fff" stroke-width="20" />

        </g>
        -->

        <!--
            WHISTLE
        
        <g>
            <path d="M485,493a31,31,0,0,1,0,62" fill="none" transform="translate(20 0)" />
            <path d="M659,493a31,31,0,0,1,0,62" fill="none" transform="translate(-20 0)" />
            <circle cx="817" cy="543" r="10" />
            <line x1="827" y1="514" x2="827" y2="546" />
            <rect x="827" y="512" width="12" height="4.94" />
            <path d="M571,520a11,11,0,1,1,11,11" fill="none" />
            <path d="M571,542a11,11,0,1,0,11-11" fill="none" />
            <path
                d="M367.39,475.27a17.5,17.5,0,1,0-12.56,29.86l18.22,18.22a9.5,9.5,0,0,0,13.43-13.43L371.1,494.53A17.49,17.49,0,0,0,367.39,475.27Z"
                fill="#fff" transform="translate(0 20)" />
        </g>
        -->

        <!--
            PUFFER JACKET
        
        <g fill="#ff3535" transform="translate(0 10)">
            <rect x="292" y="620.33" width="503" height="46.67" rx="23.33" transform="translate(0 -30)" />
            <rect x="292" y="573.67" width="503" height="46.67" rx="23.33" transform="translate(0 -30)" />
            <rect x="292" y="520" width="503" height="53.67" rx="24.31" fill="#1e1e1e" transform="translate(0 -30)" />
            <path
                d="M600.19,636c7.63,0,13.81-5.89,13.81-13.15V602.49c0-7.27-6.18-13.16-13.81-13.16h-30c7.63,0,13.81,5.89,13.81,13.16v20.36c0,7.26-6.18,13.15-13.81,13.15Z" />
            <path
                d="M600.19,589.33c7.63,0,13.81-5.89,13.81-13.15V555.82c0-7.26-6.18-13.15-13.81-13.15h-30c7.63,0,13.81,5.89,13.81,13.15v20.36c0,7.26-6.18,13.15-13.81,13.15Z" />
            <path
                d="M600.19,542.67c7.63,0,13.81-6.77,13.81-15.13V504.12c0-8.35-6.18-15.12-13.81-15.12h-30c7.63,0,13.81,6.77,13.81,15.12v23.42c0,8.36-6.18,15.13-13.81,15.13Z" />
            <path d="M392,605h24a39,39,0,0,0,39-39h0" fill="none" opacity="0.3" />
            <path d="M777,605a39,39,0,0,1-39-39h0" fill="none" opacity="0.3" />
            <path d="M712,522v-3.17A10.83,10.83,0,0,0,701.17,508H698" fill="none" stroke="#fff" />
            <circle cx="699" cy="521" r="5" fill="#fff" stroke="none" />
            <line x1="678" y1="508" x2="684" y2="508" opacity="0.3" stroke="#fff" />
            <line x1="673" y1="521" x2="684" y2="521" opacity="0.3" stroke="#fff" />
        </g>
        -->

        <!--
            FLOATIEE
        
        <g fill="#c930a3" transform="translate(-10 0)">
            <path
                d="M241.39,512.39A10.74,10.74,0,0,0,239,524l-1.88-1.88A10.72,10.72,0,1,0,222,537.27l1.88,1.88a10.73,10.73,0,0,0-11.59,17.54l64.62,52.48,8.49-8.49.61-.61,13.95-14,.61-.6L309,577l-52.48-64.62A10.73,10.73,0,0,0,241.39,512.39Z" />
            <rect x="257.15" y="561.14" width="628.85" height="63.86" rx="30.5" />
            <path
                d="M889.36,447h24.08a0,0,0,0,1,0,0v56.56a23,23,0,0,1-23,23h-1.08a0,0,0,0,1,0,0V447A0,0,0,0,1,889.36,447Z"
                fill="#000" />
            <rect x="889.36" y="447.03" width="24.08" height="49.2" fill="#fff" />
            <path
                d="M856.91,581V395.73a9.42,9.42,0,0,1,9.42-9.42h0a9.42,9.42,0,0,1,9.42,9.42v45a25.12,25.12,0,0,0,25.12,25.12h0A25.13,25.13,0,0,0,926,440.75v-45a59.68,59.68,0,0,0-59.67-59.67h0a59.67,59.67,0,0,0-59.67,59.67V581" />
            <circle cx="901.92" cy="432.37" r="3.14" />
            <path d="M866.33,357a38.73,38.73,0,0,1,38.73,38.73" fill="none" stroke="#fff" />
            <line x1="780.59" y1="578.94" x2="649.73" y2="578.94" stroke="#fff" />
            <path d="M555.51,606.16h-44a13.62,13.62,0,0,1-13.61-13.61h0a13.61,13.61,0,0,1,13.61-13.61h44" />
            <path
                d="M573.5,499H605a0,0,0,0,1,0,0v31a0,0,0,0,1,0,0H573.5A15.5,15.5,0,0,1,558,514.5v0A15.5,15.5,0,0,1,573.5,499Z"
                fill="#fff" />
            <line x1="587.76" y1="514.66" x2="603.47" y2="514.66" />
            <line x1="620" y1="499" x2="605" y2="499" />
            <line x1="620" y1="530" x2="605" y2="530" />
        </g>
        -->

        <!--
            SCARF
        
        <g fill="#da9760">
            <rect x="305" y="494" width="479" height="84" />
            <path d="M784,561H305a5,5,0,0,1,0-10H784a5,5,0,0,1,0,10Z" stroke="none" opacity="0.8" fill="#000" />
            <path d="M784,551H305a5,5,0,0,1,0-10H784a5,5,0,0,1,0,10Z" fill="#fff" stroke="none" opacity="0.6" />
            <path d="M632,583a5,5,0,0,1-5-5V494a5,5,0,0,1,10,0v84A5,5,0,0,1,632,583Z" opacity="0.8" stroke="none"
                fill="#000" />
            <path d="M642,583a5,5,0,0,1-5-5V494a5,5,0,0,1,10,0v84A5,5,0,0,1,642,583Z" fill="#fff" opacity="0.6"
                stroke="none" />
            <path d="M662,583a5,5,0,0,1-5-5V494a5,5,0,0,1,10,0v84A5,5,0,0,1,662,583Z" fill="#fff" opacity="0.6"
                stroke="none" />
            <path d="M652,583a5,5,0,0,1-5-5V494a5,5,0,0,1,10,0v84A5,5,0,0,1,652,583Z" opacity="0.8" stroke="none"
                fill="#000" />
            <path
                d="M784,511H737V494a5,5,0,0,0-10,0v17H487V494a5,5,0,0,0-10,0v17H305a5,5,0,0,0,0,10H477v57a5,5,0,0,0,10,0V521H727v57a5,5,0,0,0,10,0V521h47a5,5,0,0,0,0-10Z"
                fill="#ff2c2c" opacity="0.8" stroke="none" />
            <rect x="305" y="494" width="479" height="84" stroke-width="10" stroke="#000" fill="none" />
            <line x1="354.57" y1="704.5" x2="354.57" y2="727" />
            <line x1="376.23" y1="704.5" x2="376.23" y2="727" />
            <line x1="397.9" y1="704.5" x2="397.9" y2="727" />
            <line x1="419.57" y1="704.5" x2="419.57" y2="727" />
            <rect x="275.25" y="551.25" width="222.5" height="84" transform="translate(979.75 206.75) rotate(90)" />
            <path d="M366.5,709.5a5,5,0,0,1-5-5V482a5,5,0,0,1,10,0V704.5A5,5,0,0,1,366.5,709.5Z" opacity="0.8"
                stroke="none" fill="#000" />
            <path d="M376.5,709.5a5,5,0,0,1-5-5V482a5,5,0,0,1,10,0V704.5A5,5,0,0,1,376.5,709.5Z" fill="#fff"
                opacity="0.6" stroke="none" />
            <path
                d="M428.5,539h-17V704.5a5,5,0,0,1-10,0V539h-57a5,5,0,0,1,0-10h57V482a5,5,0,0,1,10,0v47h17a5,5,0,0,1,0,10Z"
                opacity="0.8" stroke="none" fill="#ff2c2c" />
            <path d="M344.5,609h84a5,5,0,0,0,0-10h-84a5,5,0,0,0,0,10Z" opacity="0.8" stroke="none" fill="#000" />
            <path d="M344.5,619h84a5,5,0,0,0,0-10h-84a5,5,0,0,0,0,10Z" fill="#fff" opacity="0.6" stroke="none" />
            <path d="M344.5,629h84a5,5,0,0,0,0-10h-84a5,5,0,0,0,0,10Z" stroke="none" opacity="0.8" fill="#000" />
            <path d="M344.5,639h84a5,5,0,0,0,0-10h-84a5,5,0,0,0,0,10Z" fill="#fff" stroke="none" opacity="0.6" />
            <rect x="275.25" y="551.25" width="222.5" height="84" transform="translate(979.75 206.75) rotate(90)"
                fill="none" />
        </g>
        -->

        <!--
            TEETH
        
        <g>
            <path d="M546,511h61a18,18,0,0,0,18-18h0" fill="none" />
            <path d="M546,511h61a18,18,0,0,1,18,18h0" fill="none" />
            <path d="M578,511a18,18,0,0,0,18-18h0" fill="none" />
            <path d="M578,511a18,18,0,0,1,18,18h0" fill="none" />
            <path d="M548,511a18,18,0,0,0,18-18h0" fill="none" />
            <path d="M548,511a18,18,0,0,1,18,18h0" fill="none" />
            <rect x="705.22" y="500.95" width="78.78" height="17.03" stroke-width="10" stroke="#000"
                stroke-linecap="round" stroke-linejoin="round" fill="#ea8b9d" />
            <rect x="705.22" y="517.98" width="78.78" height="17.03" fill="#fff" />
            <line x1="764.47" y1="517.98" x2="764.47" y2="535.01" />
            <line x1="745.3" y1="517.98" x2="745.3" y2="535.01" />
            <line x1="726.14" y1="517.98" x2="726.14" y2="535.01" />
            <rect x="675.92" y="572.78" width="78.78" height="17.03" transform="translate(620.55 -335.54) rotate(45)"
                fill="#ea8b9d" />
            <rect x="687.96" y="560.74" width="78.78" height="17.03" transform="translate(615.56 -347.59) rotate(45)"
                fill="#fff" />
            <line x1="735.37" y1="589.32" x2="747.42" y2="577.27" />
            <line x1="721.82" y1="575.77" x2="733.87" y2="563.72" />
            <line x1="708.27" y1="562.22" x2="720.32" y2="550.17" />
        </g>
        -->

        <!--
            SUIT
        
        <g fill="#484872">
            <rect x="300" y="531" width="485" height="108" stroke-width="10" />
            <line x1="319" y1="536" x2="319" y2="634" fill="none" stroke="#fff" opacity="0.2" />
            <line x1="349" y1="536" x2="349" y2="634" fill="none" stroke="#fff" opacity="0.2" />
            <line x1="379" y1="536" x2="379" y2="634" fill="none" stroke="#fff" opacity="0.2" />
            <line x1="409" y1="536" x2="409" y2="634" fill="none" stroke="#fff" opacity="0.2" />
            <line x1="439" y1="536" x2="439" y2="634" fill="none" stroke="#fff" opacity="0.2" />
            <line x1="469" y1="536" x2="469" y2="634" fill="none" stroke="#fff" opacity="0.2" />
            <line x1="499" y1="536" x2="499" y2="634" fill="none" stroke="#fff" opacity="0.2" />
            <line x1="529" y1="536" x2="529" y2="634" fill="none" stroke="#fff" opacity="0.2" />
            <line x1="559" y1="536" x2="559" y2="634" fill="none" stroke="#fff" opacity="0.2" />
            <line x1="589" y1="536" x2="589" y2="634" fill="none" stroke="#fff" opacity="0.2" />
            <line x1="619" y1="536" x2="619" y2="634" fill="none" stroke="#fff" opacity="0.2" />
            <line x1="649" y1="536" x2="649" y2="634" fill="none" stroke="#fff" opacity="0.2" />
            <line x1="679" y1="536" x2="679" y2="634" fill="none" stroke="#fff" opacity="0.2" />
            <line x1="709" y1="536" x2="709" y2="634" fill="none" stroke="#fff" opacity="0.2" />
            <line x1="739" y1="536" x2="739" y2="634" fill="none" stroke="#fff" opacity="0.2" />
            <line x1="769" y1="536" x2="769" y2="634" fill="none" stroke="#fff" opacity="0.2" />
            <polygon points="659 552 588.98 592 511 552 511 531 659 531 659 552" fill="#fff" stroke="#000" />
            <circle cx="565" cy="616" r="2" />
            <path d="M575,531h24a0,0,0,0,1,0,0v42a12,12,0,0,1-12,12h0a12,12,0,0,1-12-12V531A0,0,0,0,1,575,531Z"
                fill="#1d1d1d" />
            <rect x="575" y="531" width="24" height="27" fill="#1d1d1d" />
            <polygon points="662 550 605.75 550 587 531 662 531 662 550" fill="#fff" />
            <polygon points="568.25 550 512 550 512 531 587 531 568.25 550" fill="#fff" />
            <polygon points="507.02 545.25 505.27 570.46 587 600 512.48 523 436.13 533 484 560 507.02 545.25" />
            <polygon points="666.11 545.25 667.86 570.46 586.13 600 660.66 524 737 533 689.13 560 666.11 545.25" />
            <polygon points="507.02 545.25 505.27 570.46 587 600 512.48 523 436.13 533 484 560 507.02 545.25"
                fill="#000" opacity="0.2" />
            <polygon points="666.11 545.25 667.86 570.46 586.13 600 660.66 524 737 533 689.13 560 666.11 545.25"
                fill="#000" opacity="0.2" />
            <line x1="587" y1="587" x2="587" y2="639" />
            <line x1="545" y1="511" x2="624" y2="511" transform="translate(0 -10)" />

            <line x1="349" y1="600" x2="409" y2="600" />
            <line x1="709" y1="600" x2="769" y2="600" />
        </g>
        -->

        <!--
            BURP
            
        <g>
            <path d="M568.5,548A21.51,21.51,0,0,1,547,526.5h0A21.51,21.51,0,0,1,568.5,505" fill="none" />
            <path
                d="M620.05,505.62l-3.44,8.44a6.09,6.09,0,0,1-11.57,0l-1.6-4.88a6.09,6.09,0,0,0-11.57,0l-1.6,4.87a6.08,6.08,0,0,1-11.56,0l-1.6-4.86a6.51,6.51,0,0,0-7.11-4.14"
                fill="none" />
            <path
                d="M570,548.1a6,6,0,0,0,7.11-4l1.6-4.87a6.08,6.08,0,0,1,11.56,0l1.6,4.87a6.09,6.09,0,0,0,11.57,0l1.6-4.88a6.09,6.09,0,0,1,11.57,0l3.44,8.45"
                fill="none" />
            <path d="M551,517a18,18,0,0,0-1.81.1A21.44,21.44,0,0,0,562,547a17,17,0,0,0-11-30Z" fill="#912424" />
            <circle cx="649" cy="524" r="8" fill="none" />
            <line x1="690" y1="497" x2="690" y2="513" />
            <line x1="698" y1="505" x2="682" y2="505" />
            <circle cx="679" cy="536" r="5" stroke="none" />
            <circle cx="679" cy="552" r="5" stroke="none" />
            <circle cx="687" cy="544" r="5" stroke="none" />
            <circle cx="671" cy="544" r="5" stroke="none" />
            <circle cx="713" cy="534" r="8" fill="none" />
        </g>
        -->

        <!--
            FOOTBALL KIT
            
        <g fill="#39a4c4">
            <rect x="305" y="529" width="475" height="107" />
            <path d="M624,511H565a20,20,0,0,1-20-20h0" fill="none" />
            <rect x="305" y="529" width="475" height="24" stroke-width="10" fill="#fff" />
            <rect x="320" y="558" width="12" height="73" fill="#fff" stroke="none" />
            <rect x="342" y="558" width="12" height="73" fill="#fff" stroke="none" />
            <circle cx="705" cy="589.75" r="16" fill="#fff" />
            <line x1="439" y1="582.25" x2="465" y2="582.25" />
            <line x1="439" y1="597.25" x2="465" y2="597.25" opacity="0.3" />
            <polyline points="589 579 572 579 572 609 589 609 589 594 572 594" fill="none" stroke="#fff" />
        </g>
        -->

        <!--
            BULLET VEST

        <g>

            <path d="M651,511a30.68,30.68,0,0,0-30.63-29H544.68a30.68,30.68,0,0,0-30.63,29H313v57H772V511Z"
                fill="#4b4b4b" stroke="none" opacity="0.7" />
            <line x1="313" y1="509" x2="313" y2="553" transform="translate(2 0)" />
            <line x1="772" y1="509" x2="772" y2="553" transform="translate(2 0)" />
            <polygon
                points="750 553 750 502 710 502 710 545 460 545 460 502 410 502 410 553 297 553 297 641 782 641 782 553 750 553"
                fill="#262626" />
            <rect x="460" y="545" width="250" height="35" stroke-width="10" />
            <rect x="460" y="580" width="250" height="20.22" fill="#424242" />
            <rect x="460" y="600.39" width="250" height="20.22" fill="#424242" />
            <rect x="460" y="620.78" width="250" height="20.22" fill="#424242" />
            <rect x="290" y="580" width="136" height="49" fill="#424242" />
            <rect x="745" y="580" width="47" height="49" fill="#424242" />
            <line x1="725" y1="522" x2="735" y2="522" opacity="0.2" stroke="#fff" />
            <line x1="427" y1="522" x2="443" y2="522" opacity="0.2" stroke="#fff" />
            <path
                d="M324,607.05v23.52H306V607.05a96.94,96.94,0,0,1,4.22-28.16l1.88-6.17c.7-2.29,5.1-2.29,5.8,0l1.88,6.17A96.94,96.94,0,0,1,324,607.05Z"
                fill="#ffd62c" />
            <path
                d="M344,607.05v23.52H326V607.05a96.94,96.94,0,0,1,4.22-28.16l1.88-6.17c.7-2.29,5.1-2.29,5.8,0l1.88,6.17A96.94,96.94,0,0,1,344,607.05Z"
                fill="#ffd62c" />
            <path
                d="M364,607.05v23.52H346V607.05a96.94,96.94,0,0,1,4.22-28.16l1.88-6.17c.7-2.29,5.1-2.29,5.8,0l1.88,6.17A96.94,96.94,0,0,1,364,607.05Z"
                fill="#ffd62c" />
            <path
                d="M384,607.05v23.52H366V607.05a96.94,96.94,0,0,1,4.22-28.16l1.88-6.17c.7-2.29,5.1-2.29,5.8,0l1.88,6.17A96.94,96.94,0,0,1,384,607.05Z"
                fill="#ffd62c" />
            <path
                d="M404,607.05v23.52H386V607.05a96.94,96.94,0,0,1,4.22-28.16l1.88-6.17c.7-2.29,5.1-2.29,5.8,0l1.88,6.17A96.94,96.94,0,0,1,404,607.05Z"
                fill="#ffd62c" />
            <path d="M566.93,501a15.18,15.18,0,0,0-15.18,15.18h0a15.18,15.18,0,0,0,15.18,15.18h48.68V501Z" />
            <rect x="565" y="501" width="26" height="21" stroke-width="10" fill="#fff" />
        </g>
        -->










        <!-- MASK -->



        <!--
            RAY GOGGLES
        
        <g fill="#ff2f2f">
            <line x1="545.38" y1="511" x2="624.38" y2="511" />
            <rect x="377" y="403" width="416" height="86" rx="43" fill="#fff" />
            <path d="M753.26,434H419.84a12,12,0,1,0,0,24H753.26a12,12,0,0,0,0-24Z" stroke="none" />
        </g>
        -->

        <!--
            HOCKEY MASK
        
        <g>
            <rect x="351" y="322" width="462" height="248" rx="124" fill="#fff" />
            <circle cx="451.88" cy="437.25" r="26" stroke="#000" />
            <circle cx="711.88" cy="437.25" r="26" stroke="#000" />
            <circle cx="585" cy="517" r="5" />
            <circle cx="525" cy="517" r="5" />
            <circle cx="555" cy="477" r="5" />
            <circle cx="615" cy="477" r="5" />
            <circle cx="645" cy="517" r="5" />
            <path d="M538.68,372h91.64a0,0,0,0,1,0,0v0a42,42,0,0,1-42,42h-7.64a42,42,0,0,1-42-42v0a0,0,0,0,1,0,0Z"
                fill="#ff4848" stroke="none" />
            <circle cx="759" cy="496" r="13" fill="#ff4848" stroke="none" />
            <path d="M708,510h0a20,20,0,0,0-20,20v41.75a142.67,142.67,0,0,0,40-11.36V530A20,20,0,0,0,708,510Z"
                fill="#ff4848" stroke="none" />
            <path
                d="M746.5,517A12.5,12.5,0,0,0,734,529.5v32a143.21,143.21,0,0,0,25-16.12V529.5A12.5,12.5,0,0,0,746.5,517Z"
                fill="#ff4848" stroke="none" />
            <rect x="351" y="322" width="462" height="248" rx="124" fill="none" />
            <circle cx="436" cy="520" r="16" fill="#ff4848" stroke="none" />
            <line x1="495" y1="322" x2="495" y2="356" />
            <line x1="475" y1="325" x2="475" y2="379" />
            <path d="M294,419h57a0,0,0,0,1,0,0v36a0,0,0,0,1,0,0H294a18,18,0,0,1-18-18v0A18,18,0,0,1,294,419Z" />
            -->

        <!--
            LAZER EYE
        
        <g fill="#ff00d4">
            <path
                d="M634.86,448.5h0a132.18,132.18,0,0,0,70.5-83.09l9.14-31.91,9.14,31.91a132.18,132.18,0,0,0,70.5,83.09h0a132.18,132.18,0,0,0-70.5,83.09L714.5,563.5l-9.14-31.91a132.18,132.18,0,0,0-70.5-83.09Z"
                fill="#fff" stroke="#000" stroke-linecap="round" stroke-linejoin="round" stroke-width="11.79" />
            <circle cx="714.88" cy="448.25" r="26" />
            <line x1="545" y1="513" x2="624" y2="513" />
            <circle cx="454.87" cy="448.25" r="26" fill="#fff" />
            <rect x="713" y="441" width="367" height="16" stroke="none" />
        </g>
        -->

        <!--
            GOGGLES
            
        <g fill="#ff2a2a">
            <path
                d="M737,508v5.09A22.94,22.94,0,0,1,714.09,536H623.91A22.94,22.94,0,0,1,601,513.09v-19H563v19A61,61,0,0,0,623.91,574h90.18A61,61,0,0,0,775,513.09V508Z"
                fill="#fff" />
            <rect x="533.5" y="466.5" width="101" height="46" fill="#000" />
            <rect x="739.5" y="196.5" width="38" height="196" fill="#fff" />
            <rect x="299.5" y="422.5" width="71" height="44" />
            <rect x="739.5" y="216.5" width="38" height="17" />
            <path
                d="M584,433a53,53,0,0,1,37.57,15.53l31.11,31.12a51.81,51.81,0,0,0,36.88,15.27H714a46.93,46.93,0,1,0,0-93.86H453a46.93,46.93,0,1,0,0,93.86h25.46a51.81,51.81,0,0,0,36.88-15.27l31.11-31.12A53,53,0,0,1,584,433Z"
                fill="#fff" fill-opacity="0.5" />
            <polygon points="446.5 395.5 540 489 601.55 462.44 654 515 727.5 515.5 581.5 369.5 446.5 395.5"
                fill="#ffffff" stroke="none" />
            <path
                d="M714,360H453a88,88,0,0,0,0,176h25.46a92.65,92.65,0,0,0,65.92-27.3l31.11-31.12a12.07,12.07,0,0,1,17.06,0l31.11,31.12A92.65,92.65,0,0,0,689.55,536H714a88,88,0,0,0,0-176Zm0,134.93H689.55a51.81,51.81,0,0,1-36.88-15.27l-31.11-31.12a53.21,53.21,0,0,0-75.14,0l-31.11,31.12a51.81,51.81,0,0,1-36.88,15.27H453a46.93,46.93,0,1,1,0-93.86H714a46.93,46.93,0,1,1,0,93.86Z" />
            <circle cx="734" cy="146" r="13.5" fill="#fff" fill-opacity="0.5" />
            <circle cx="781.5" cy="120.5" r="21" fill="#fff" fill-opacity="0.5" />
            <line x1="327.5" y1="448.5" x2="327.5" y2="466.5" />
            <line x1="340.5" y1="448.5" x2="340.5" y2="466.5" />
        </g>
        -->

        <!--
            GASK MASK
        
        <g>
            <rect x="304" y="467" width="91" height="22" />
            <rect x="304" y="400" width="91" height="22" />
            <path
                d="M741.66,363H415.34C389.75,363,369,382.9,369,407.45v83.1C369,515.1,389.75,535,415.34,535H531.46A16.53,16.53,0,0,1,548,551.54V589h73V551.54A16.53,16.53,0,0,1,637.54,535H741.66c25.59,0,46.34-19.9,46.34-44.45v-83.1C788,382.9,767.25,363,741.66,363Z"
                fill="#444" />
            <rect x="555" y="542" width="59" height="29" fill="#444" />
            <circle cx="455" cy="446" r="58" fill="#939393" />
            <circle cx="455" cy="446" r="35.07" fill="#a6ff27" />
            <circle cx="715" cy="446" r="58" fill="#939393" />
            <circle cx="715" cy="446" r="35.07" fill="#a6ff27" />
            <rect x="555" y="571" width="59" height="18" />
            <rect x="522" y="641" width="125" height="18" fill="#939393" />
            <path
                d="M522,582H647a0,0,0,0,1,0,0v38.57A20.43,20.43,0,0,1,626.57,641H542.43A20.43,20.43,0,0,1,522,620.57V582A0,0,0,0,1,522,582Z"
                transform="translate(1169 1223) rotate(180)" fill="#2a492a" />
            <line x1="584" y1="659" x2="584" y2="653" />
            <line x1="604" y1="659" x2="604" y2="653" />
            <line x1="624" y1="659" x2="624" y2="653" />
            <line x1="564" y1="659" x2="564" y2="653" />
            <line x1="544" y1="659" x2="544" y2="653" />
            <rect x="576" y="570" width="17" height="125" transform="translate(1217 48) rotate(90)" />
            <path d="M555,553V519a18,18,0,0,0-18-18h0" fill="none" />
            <path d="M614,553V519a18,18,0,0,1,18-18h0" fill="none" />
            <line x1="546" y1="408" x2="624" y2="408" />
            <line x1="546" y1="428" x2="624" y2="428" />
            <line x1="546" y1="448" x2="624" y2="448" />
            <line x1="546" y1="468" x2="624" y2="468" />
        </g>
        -->

        <!--
            SASSY
        
        <g>
            <path d="M330,504a69,69,0,1,0,69,69A69,69,0,0,0,330,504Zm0,118a49,49,0,1,1,49-49A49,49,0,0,1,330,622Z"
                fill="#ffe02c" />
            <path d="M772,505.06v20.43a49,49,0,0,1,0,95v20.43a69,69,0,0,0,0-135.88Z" fill="#ffe02c" />
            <path d="M458,405a29,29,0,0,1-29,29" fill="none" />
            <path d="M478,405a29,29,0,0,1-29,29" fill="none" />
            <path d="M498,405a29,29,0,0,1-29,29" fill="none" />
            <path d="M429,446a26,26,0,1,0,49.06-12H431.94A25.78,25.78,0,0,0,429,446Z" fill="#fff" />
            <path d="M718,405a29,29,0,0,1-29,29" fill="none" />
            <path d="M738,405a29,29,0,0,1-29,29" fill="none" />
            <path d="M758,405a29,29,0,0,1-29,29" fill="none" />
            <path d="M689,446a26,26,0,1,0,49.06-12H691.94A25.78,25.78,0,0,0,689,446Z" fill="#fff" />
            <path d="M571,520a11,11,0,1,1,11,11" fill="none" />
            <path d="M571,542a11,11,0,1,0,11-11" fill="none" />
            <circle cx="616" cy="511" r="54" fill="#ffa6f5" opacity="0.5" transform="translate(-20 10)" />
            <circle cx="616" cy="511" r="54" fill="none" transform="translate(-20 10)" />
            <path d="M616,473a38,38,0,0,1,38,38" fill="none" stroke="#fff" transform="translate(-20 10)" />
        </g>
        -->

        <!--
            <MUNCHIES>
        
        <g>
            <path d="M481,446a26,26,0,0,1-52,0Z" fill="#ff6464" />
            <path d="M741,446a26,26,0,0,1-52,0Z" fill="#ff6464" />
            <path
                d="M645.39,531a10.39,10.39,0,0,1,0-20.78,11.85,11.85,0,0,0,11.83-11.83,10.39,10.39,0,0,1,20.78,0A32.65,32.65,0,0,1,645.39,531Z"
                fill="#ffa329" />
            <path d="M594,541H581.5A29.5,29.5,0,0,1,552,511.5h0A29.5,29.5,0,0,1,581.5,482H594" fill="none" />
            <path d="M557.5,496c-.37,0-.75,0-1.12,0a29.5,29.5,0,0,0,25.12,45h2.84a30.51,30.51,0,0,0-26.84-45Z"
                fill="#a82e2e" />
            <polygon points="964 449 937 452 831 452 806 449 806 570 831 567 937 567 964 570 964 449" fill="#ffa329" />
            <polygon points="937 567 827.79 567 876.91 452 937 452 964 449 964 570 937 567" fill="#ff5e33" />
            <path
                d="M899.71,526.3A6,6,0,0,0,889,531.61a6.78,6.78,0,0,1-3,9.09,6,6,0,1,0,5.3,10.68A18.73,18.73,0,0,0,899.71,526.3Z"
                fill="#ffa329" stroke="none" />
            <path
                d="M909.62,530.3a6,6,0,0,1,10.68,5.31,6.78,6.78,0,0,0,3.05,9.09,6,6,0,1,1-5.3,10.68A18.73,18.73,0,0,1,909.62,530.3Z"
                fill="#ffa329" stroke="none" />
            <path
                d="M912.94,500.86a6,6,0,1,0,1.18,11.86,6.79,6.79,0,0,1,7.42,6.08,6,6,0,0,0,11.86-1.18A18.72,18.72,0,0,0,912.94,500.86Z"
                fill="#ffa329" stroke="none" />
            <path
                d="M935.11,541.53a6,6,0,0,1,.17-11.93,6.79,6.79,0,0,0,6.88-6.69,6,6,0,0,1,11.92.17A18.74,18.74,0,0,1,935.11,541.53Z"
                fill="#ffa329" stroke="none" />
            <path
                d="M874.94,493.86a6,6,0,1,0,1.18,11.86,6.79,6.79,0,0,1,7.42,6.08,6,6,0,0,0,11.86-1.18A18.72,18.72,0,0,0,874.94,493.86Z"
                fill="#ffa329" stroke="none" />
            <path
                d="M894.75,484.44A6,6,0,0,0,906,488.38a6.78,6.78,0,0,1,8.64-4.16A6,6,0,0,0,918.59,473,18.74,18.74,0,0,0,894.75,484.44Z"
                fill="#ffa329" stroke="none" />
            <rect x="838" y="467" width="23" height="85" rx="11.5" fill="#ffd62c" />
        </g>
        -->





        <!-- DETAILS -->



        <!--
            BAR CODE
        
        <g transform="translate(0 -19)" opacity="0.6">
            <line x1="530" y1="360" x2="530" y2="376.26" />
            <rect x="546" y="360" width="7" height="16.26" />
            <line x1="567" y1="360" x2="567" y2="376.26" />
            <line x1="580" y1="360" x2="580" y2="376.26" />
            <line x1="617" y1="360" x2="617" y2="376.26" />
            <line x1="629" y1="360" x2="629" y2="376.26" />
            <line x1="642" y1="360" x2="642" y2="376.26" />
            <rect x="594" y="360" width="10" height="16.26" />
            <line x1="530" y1="390" x2="642" y2="390" opacity="0.4" />
        </g>
        -->

        <!--
            LIGHTNING
    
        <g transform="translate(200 -19)" opacity="0.5">
            <polyline points="488 392 488 369 501.5 382.5 501.5 359" />
        </g>
        -->

        <!--
            TATTOO
        
        <g transform="translate(-20 -19)" opacity="0.3">
            <path
                d="M621.33,392.67c12.93-5,25.09-14.73,28.33-28.81.68-3-1.44-6.53-4.82-6.33-6.73.41-11.79,4.45-14.45,10.55-2.27,5.22-3.71,12.16-.34,17.25,4.56,6.89,14,6.16,20.1,2s11-10.6,14.79-16.9c3.32-5.55-5.19-10.47-8.63-5.05a24.37,24.37,0,0,0-4,15.49c.66,6,5.09,10,11.22,9.51,5.5-.42,9.26-3.69,12.29-8,3.45-4.94,6.78-10,10.17-14.95l-8.64-5c-3.63,6-8.41,22.69,3.3,23.18,4.53.19,8.15-2.66,11.47-5.35a61.4,61.4,0,0,0,9-9c2-2.41,3.33-4,6.2-4-.63-1.06-.75-1.07-.37,0q.13,1,.12.51a12.48,12.48,0,0,1,.1,1.83,12.21,12.21,0,0,1-.7,4.14c-1.85,5.84-7.34,10.38-12.94,12.61l4.87,1.29c-1.37-1.09-.09-.16-.37.24s.33-.58.31-.56a35.4,35.4,0,0,1,3.15-2.71c2.5-1.85,5.1-3.81,8.06-4.84,2.2-.76,5.5-1.31,7.67-.06,1.53.89,1.77,4.1,2.63,5.82a10.57,10.57,0,0,0,17.4,2.37,33.33,33.33,0,0,0,8.13-20.14c.39-6.43-9.62-6.41-10,0a22.33,22.33,0,0,1-2.7,9.25,42.88,42.88,0,0,1-2.94,4.3c-.56.78-.67.1-.18.31-.07,0-.24,0-.31-.07a7,7,0,0,1-1.29-3,13.72,13.72,0,0,0-2.79-5.16c-2.37-2.61-5.87-3.78-9.28-4.18-7.48-.88-14,2.67-19.77,7-3,2.28-6.32,4.7-7.57,8.47a9.17,9.17,0,0,0,2.78,10c1.31,1.05,3.12,2,4.86,1.29,6.84-2.74,12.87-6.95,16.93-13.2,3.56-5.48,5.35-13.05,3.11-19.36-3.24-9.11-15.19-6.92-20.48-1.23-2.62,2.82-4.87,5.85-7.72,8.47a47.46,47.46,0,0,1-4.44,3.69c-.53.37-1.07.7-1.61,1-1.26.81-.67.06-.42.25l1.8,1.79q-.06,1.32-.09-.24c0-.56,0-1.12,0-1.67a12.51,12.51,0,0,1,.36-2.43,19.06,19.06,0,0,1,2.36-5.58c3.36-5.56-5-10.31-8.64-5l-6.78,10c-1.57,2.31-3.15,5.72-5.54,7.35a3.81,3.81,0,0,1-2.93.72c.32.09.19.35.11-.69a15,15,0,0,1,2.7-9.28l-8.63-5.05A55.32,55.32,0,0,1,647.07,377,13.54,13.54,0,0,1,642,380.3a4.53,4.53,0,0,1-2.44.2c-.21-.05-1.33-.58-.86-.21-.38-.3-.42-.64-.56-1.36.1.51,0-.55,0-.68a11.43,11.43,0,0,1,0-1.17,14,14,0,0,1,.33-1.83,20.22,20.22,0,0,1,.76-2.48c.92-2.42,2.62-5.06,5.63-5.24L640,361.2c-2.42,10.53-11.6,18.08-21.34,21.82-2.52,1-4.26,3.37-3.49,6.15.66,2.41,3.61,4.47,6.15,3.5Z"
                stroke-width="0" />
        </g>
        -->

        <!--
          SCAR  
        
        <g transform="translate(-40 -19)" opacity="0.5">
            <line x1="706" y1="372.5" x2="753" y2="372.5" />
            <line x1="714" y1="364.83" x2="714" y2="380.17" />
            <line x1="730" y1="364.83" x2="730" y2="380.17" />
            <line x1="746" y1="364.83" x2="746" y2="380.17" />
        </g>
        -->

        <!--
          STUD EARRING
        
        <g fill="#ffd62c" transform="translate(-20 -10)">
            <circle cx="338.5" cy="483.5" r="18.5" />
        </g>
        -->

        <!--
          RING EARRING
        
        <g fill="#ffd62c">
            <path d="M355.45,476.7l-11.23,16.54a11,11,0,1,1-12.44,0L320.55,476.7a31,31,0,1,0,34.9,0Z" />
        </g>
        -->

        <!--
          DIAMOND EARRING
        
        <g transform="translate(10 -20)">
            <rect x="319" y="486" width="38" height="38" transform="translate(934.09 623.09) rotate(135)"
                fill="#c0c0c0" />
            <line x1="347.9" y1="514.9" x2="328.1" y2="495.1" fill="none" stroke="#fff" stroke-linecap="butt" />
            <line x1="328.1" y1="514.9" x2="347.9" y2="495.1" fill="none" stroke="#fff" stroke-linecap="butt" />
            <rect x="333" y="500" width="10" height="10" transform="translate(934.09 623.09) rotate(135)" fill="#e0e0e0"
                stroke="none" />
        </g>
        -->

        <!--
          PRECIOUS STONE
        -->
        <g fill="#ffde4d" stroke="none" style="filter:url(#glow)">
            <rect width="1080" height="1080" fill="#fff" transform="translate(0 -20)" opacity="0" />

            <rect x="699" y="896" width="87" height="61" rx="30" />
            <circle cx="725" cy="915" r="5" fill="#fff" stroke="none" opacity="0.6" />
            <circle cx="739" cy="920" r="5" fill="#000" stroke="none" opacity="0.3" />
            <circle cx="757" cy="914" r="5" fill="#fff" stroke="none" opacity="0.6" />
            <circle cx="754" cy="926" r="5" fill="#fff" stroke="none" opacity="0.6" />
            <circle cx="768" cy="925" r="5" fill="#fff" stroke="none" opacity="0.6" />
            <circle cx="759" cy="939" r="5" fill="#000" stroke="none" opacity="0.3" />
            <circle cx="743" cy="934" r="5" fill="#fff" stroke="none" opacity="0.6" />
            <circle cx="730" cy="938" r="5" fill="#000" stroke="none" opacity="0.3" />
            <circle cx="721" cy="929" r="5" fill="#000" stroke="none" opacity="0.3" />
        </g>
        -->


    </g>


    <!--
    <g transform="translate(0 20)" stroke="#ffffff" stroke-linecap="round" stroke-linejoin="round" stroke-width="10"
        style="filter:url(#glow)">

        <path
            d="M806.25,804.25h-34V434.75c0-126.75-102.75-229.5-229.5-229.5h0c-126.75,0-229.5,102.75-229.5,229.5v369.5h-38a29,29,0,0,0-29,29h0a29,29,0,0,0,29,29h531a29,29,0,0,0,29-29h0A29,29,0,0,0,806.25,804.25Z"
            fill="none" />
        <line x1="545.38" y1="511" x2="624.38" y2="511" fill="none" />
        <line x1="313" y1="804" x2="481" y2="804" fill="none" />
        <circle cx="454.88" cy="446.25" r="26" fill="none" />
        <circle cx="714.88" cy="446.25" r="26" fill="none" />
    </g>
    -->



</svg>