<svg id="Layer_1" data-name="Layer 1" xmlns="http://www.w3.org/2000/svg" viewBox="0 0 1080 1080">
  <title>Bloops</title>
  <defs>
    <linearGradient id="linear-gradient" x2="1080" y2="1080" gradientUnits="userSpaceOnUse">
      <stop offset="0" stop-color="#ffffff" />
      <stop offset="1" stop-color="#ffffff" />
    </linearGradient>
  </defs>
  <rect width="1080" height="1080" fill="url(#linear-gradient)" />



  <!-- BODY -->

  <g fill="#e0e0e0" stroke="#000" stroke-linecap="round" stroke-linejoin="round" stroke-width="10">

    <!-- 
    TIER 1 
    -->

    <path
      d="M806.25,804.25h-34V446.75c0-126.75-102.75-229.5-229.5-229.5h0c-126.75,0-229.5,102.75-229.5,229.5v357.5h-38a29,29,0,0,0-29,29h0a29,29,0,0,0,29,29h531a29,29,0,0,0,29-29h0A29,29,0,0,0,806.25,804.25Z" />
    <rect x="704" y="901" width="77" height="51" rx="25.5" />
    <rect x="155" y="854.88" width="50" height="33.12" rx="16.56" />
    <rect x="870" y="837.88" width="50" height="33.12" rx="16.56" />
    <line x1="320.25" y1="636.08" x2="365" y2="636.08" opacity="0.2" stroke-width="25" stroke-linecap="round" />



    <!-- 
    TIER 2 

        <path
            d="M806.25,804.25H785.52A349,349,0,0,0,895,550c0-193.3-156.7-350-350-350S195,356.7,195,550A349,349,0,0,0,304.48,804.25H275.25a29,29,0,0,0-29,29h0a29,29,0,0,0,29,29h531a29,29,0,0,0,29-29h0A29,29,0,0,0,806.25,804.25Z"
            transform="translate(0)" />
        <rect x="704" y="901" width="77" height="51" rx="25.5" />
        <rect x="155" y="854.88" width="50" height="33.12" rx="16.56" />
        <rect x="870" y="837.88" width="50" height="33.12" rx="16.56" />
        <line x1="215.25" y1="636.08" x2="275" y2="636.08" opacity="0.2" stroke-width="25" stroke-linecap="round" />
        <line x1="225.25" y1="676.08" x2="275" y2="676.08" opacity="0.2" stroke-width="25" stroke-linecap="round" />
    -->


    <!-- 
    TIER 3 
    
        <circle cx="540" cy="473" r="273" stroke-miterlimit="10" />
        <rect x="423" y="834" width="237" height="58" rx="29" opacity="0.2" fill="#000000" stroke="none" />
        <rect x="704" y="901" width="77" height="51" rx="25.5" />
        <rect x="155" y="854.88" width="50" height="33.12" rx="16.56" />
        <rect x="870" y="837.88" width="50" height="33.12" rx="16.56" />
        <line x1="280.25" y1="526.08" x2="356" y2="526.08" opacity="0.2" stroke-width="25" stroke-linecap="round" />
        <line x1="290.25" y1="566.08" x2="356" y2="566.08" opacity="0.2" stroke-width="25" stroke-linecap="round" />
        <line x1="310.25" y1="606.08" x2="356" y2="606.08" opacity="0.2" stroke-width="25" stroke-linecap="round" />
    -->
  </g>



  <!-- FACE -->


  <circle cx="454.88" cy="448.25" r="26" fill="#fff" stroke="#000" stroke-linecap="round" stroke-miterlimit="10"
    stroke-width="10" />
  <circle cx="714.88" cy="448.25" r="26" fill="#fff" stroke="#000" stroke-linecap="round" stroke-miterlimit="10"
    stroke-width="10" />
  <line x1="545.38" y1="513" x2="624.38" y2="513" fill="#fff" stroke="#000" stroke-linecap="round"
    stroke-miterlimit="10" stroke-width="10" />







</svg>