<?xml version="1.0" encoding="UTF-8"?>
<svg xmlns="http://www.w3.org/2000/svg" xmlns:xlink="http://www.w3.org/1999/xlink" width="80px" height="80px" viewBox="0 0 540 540" version="1.1">
<defs>
<linearGradient id="linear0" gradientUnits="userSpaceOnUse" x1="0" y1="0" x2="1080" y2="1080" gradientTransform="matrix(0.5,0,0,0.5,0,0)">
<stop offset="0" style="stop-color:rgb(92.156863%,14.901961%,52.941176%);stop-opacity:1;"/>
<stop offset="1" style="stop-color:rgb(93.72549%,86.27451%,27.843137%);stop-opacity:1;"/>
</linearGradient>
<filter id="alpha" filterUnits="objectBoundingBox" x="0%" y="0%" width="100%" height="100%">
  <feColorMatrix type="matrix" in="SourceGraphic" values="0 0 0 0 1 0 0 0 0 1 0 0 0 0 1 0 0 0 1 0"/>
</filter>
<mask id="mask0">
  <g filter="url(#alpha)">
<rect x="0" y="0" width="540" height="540" style="fill:rgb(0%,0%,0%);fill-opacity:0.2;stroke:none;"/>
  </g>
</mask>
<clipPath id="clip1">
  <rect x="0" y="0" width="540" height="540"/>
</clipPath>
<g id="surface5" clip-path="url(#clip1)">
<path style=" stroke:none;fill-rule:nonzero;fill:rgb(0%,0%,0%);fill-opacity:1;" d="M 212 417 L 335.5 417 C 343.507812 417 350 423.492188 350 431.5 C 350 439.507812 343.507812 446 335.5 446 L 212 446 C 203.992188 446 197.5 439.507812 197.5 431.5 C 197.5 423.492188 203.992188 417 212 417 Z M 212 417 "/>
</g>
</defs>
<g id="surface1">
<rect x="0" y="0" width="540" height="540" style="fill:url(#linear0);stroke:none;"/>
<path style="fill-rule:nonzero;fill:rgb(9.019608%,61.568627%,49.411765%);fill-opacity:1;stroke-width:10;stroke-linecap:round;stroke-linejoin:round;stroke:rgb(0%,0%,0%);stroke-opacity:1;stroke-miterlimit:4;" d="M 173.5625 854.882812 L 190.4375 854.882812 C 199.585938 854.882812 207 862.296875 207 871.4375 C 207 880.585938 199.585938 888 190.4375 888 L 173.5625 888 C 164.414062 888 157 880.585938 157 871.4375 C 157 862.296875 164.414062 854.882812 173.5625 854.882812 Z M 173.5625 854.882812 " transform="matrix(0.5,0,0,0.5,0,0)"/>
<path style="fill-rule:nonzero;fill:rgb(9.019608%,61.568627%,49.411765%);fill-opacity:1;stroke-width:10;stroke-linecap:round;stroke-linejoin:round;stroke:rgb(0%,0%,0%);stroke-opacity:1;stroke-miterlimit:4;" d="M 888.5625 837.882812 L 905.4375 837.882812 C 914.585938 837.882812 922 845.296875 922 854.4375 C 922 863.585938 914.585938 871 905.4375 871 L 888.5625 871 C 879.414062 871 872 863.585938 872 854.4375 C 872 845.296875 879.414062 837.882812 888.5625 837.882812 Z M 888.5625 837.882812 " transform="matrix(0.5,0,0,0.5,0,0)"/>
<path style="fill-rule:nonzero;fill:rgb(9.019608%,61.568627%,49.411765%);fill-opacity:1;stroke-width:10;stroke-linecap:round;stroke-linejoin:round;stroke:rgb(0%,0%,0%);stroke-opacity:1;stroke-miterlimit:4;" d="M 729.5 901 L 755.5 901 C 769.585938 901 781 912.414062 781 926.5 C 781 940.585938 769.585938 952 755.5 952 L 729.5 952 C 715.414062 952 704 940.585938 704 926.5 C 704 912.414062 715.414062 901 729.5 901 Z M 729.5 901 " transform="matrix(0.5,0,0,0.5,0,0)"/>
<use xlink:href="#surface5" mask="url(#mask0)"/>
<path style="fill-rule:nonzero;fill:rgb(9.019608%,61.568627%,49.411765%);fill-opacity:1;stroke-width:10;stroke-linecap:round;stroke-linejoin:round;stroke:rgb(0%,0%,0%);stroke-opacity:1;stroke-miterlimit:4;" d="M 774 630 L 774 434.609375 C 774 307.859375 671.25 205.109375 544.5 205.109375 C 417.75 205.109375 315 307.859375 315 434.609375 L 315 630 L 314.882812 633.382812 C 282.421875 650.1875 262.609375 684.242188 264.039062 720.765625 C 265.476562 757.28125 287.898438 789.679688 321.570312 803.890625 C 355.242188 818.101562 394.09375 811.5625 421.257812 787.109375 C 446.476562 831.289062 493.484375 858.515625 544.359375 858.40625 C 595.234375 858.296875 642.125 830.867188 667.148438 786.578125 C 694.171875 811.304688 733.070312 818.140625 766.898438 804.09375 C 800.726562 790.054688 823.351562 757.6875 824.921875 721.09375 C 826.492188 684.507812 806.71875 650.3125 774.21875 633.429688 Z M 774 630 " transform="matrix(0.5,0,0,0.5,0,0)"/>
<path style="fill:none;stroke-width:10;stroke-linecap:round;stroke-linejoin:round;stroke:rgb(0%,0%,0%);stroke-opacity:1;stroke-miterlimit:4;" d="M 403 717 C 402.984375 737.4375 407.421875 757.632812 416 776.1875 C 417.632812 779.71875 419.40625 783.1875 421.3125 786.539062 C 446.34375 830.828125 493.234375 858.257812 544.109375 858.367188 C 594.984375 858.476562 641.992188 831.25 667.21875 787.070312 C 669.304688 783.414062 671.234375 779.664062 673 775.820312 " transform="matrix(0.5,0,0,0.5,0,0)"/>
<path style="fill-rule:nonzero;fill:rgb(29.019608%,54.509804%,100%);fill-opacity:1;stroke-width:10;stroke-linecap:round;stroke-linejoin:round;stroke:rgb(0%,0%,0%);stroke-opacity:1;stroke-miterlimit:4;" d="M 552 114 L 594 114 L 594 246 L 552 246 Z M 552 114 " transform="matrix(0.5,0,0,0.5,0,0)"/>
<path style="fill-rule:nonzero;fill:rgb(29.019608%,54.509804%,100%);fill-opacity:1;stroke-width:10;stroke-linecap:round;stroke-linejoin:round;stroke:rgb(0%,0%,0%);stroke-opacity:1;stroke-miterlimit:4;" d="M 552 246 L 552 114 C 497.320312 114 453 158.320312 453 213 L 453 227.15625 C 453 227.15625 519 216 552 246 Z M 552 246 " transform="matrix(0.5,0,0,0.5,0,0)"/>
<path style="fill-rule:nonzero;fill:rgb(100%,87.45098%,13.333333%);fill-opacity:1;stroke-width:10;stroke-linecap:round;stroke-linejoin:round;stroke:rgb(0%,0%,0%);stroke-opacity:1;stroke-miterlimit:4;" d="M 594.5 592.5 L 613.5 592.5 L 613.5 642.5 L 594.5 642.5 Z M 594.5 592.5 " transform="matrix(0.5,0,0,0.5,0,0)"/>
<path style="fill-rule:nonzero;fill:rgb(100%,87.45098%,13.333333%);fill-opacity:1;stroke-width:10;stroke-linecap:round;stroke-linejoin:round;stroke:rgb(0%,0%,0%);stroke-opacity:1;stroke-miterlimit:4;" d="M 325 572.5625 L 765 572.5625 L 765 592.5625 L 325 592.5625 Z M 325 572.5625 " transform="matrix(0.5,0,0,0.5,0,0)"/>
<path style="fill-rule:nonzero;fill:rgb(100%,87.45098%,13.333333%);fill-opacity:1;stroke-width:10;stroke-linecap:round;stroke-linejoin:round;stroke:rgb(0%,0%,0%);stroke-opacity:1;stroke-miterlimit:4;" d="M 575.109375 618 L 628.390625 618 C 635.632812 618 641.5 623.867188 641.5 631.109375 L 641.5 660.390625 C 641.5 667.632812 635.632812 673.5 628.390625 673.5 L 575.109375 673.5 C 567.867188 673.5 562 667.632812 562 660.390625 L 562 631.109375 C 562 623.867188 567.867188 618 575.109375 618 Z M 575.109375 618 " transform="matrix(0.5,0,0,0.5,0,0)"/>
<path style="fill-rule:nonzero;fill:rgb(100%,87.45098%,13.333333%);fill-opacity:1;stroke-width:10;stroke-linecap:round;stroke-linejoin:round;stroke:rgb(0%,0%,0%);stroke-opacity:1;stroke-miterlimit:4;" d="M 315.21875 563.0625 L 327.78125 563.0625 C 335.078125 563.0625 341 568.976562 341 576.28125 L 341 588.84375 C 341 596.140625 335.078125 602.0625 327.78125 602.0625 L 315.21875 602.0625 C 307.921875 602.0625 302 596.140625 302 588.84375 L 302 576.28125 C 302 568.976562 307.921875 563.0625 315.21875 563.0625 Z M 315.21875 563.0625 " transform="matrix(0.5,0,0,0.5,0,0)"/>
<path style="fill-rule:nonzero;fill:rgb(100%,87.45098%,13.333333%);fill-opacity:1;stroke-width:10;stroke-linecap:round;stroke-linejoin:round;stroke:rgb(0%,0%,0%);stroke-opacity:1;stroke-miterlimit:4;" d="M 378.078125 563.0625 L 390.640625 563.0625 C 397.9375 563.0625 403.859375 568.976562 403.859375 576.28125 L 403.859375 588.84375 C 403.859375 596.140625 397.9375 602.0625 390.640625 602.0625 L 378.078125 602.0625 C 370.78125 602.0625 364.859375 596.140625 364.859375 588.84375 L 364.859375 576.28125 C 364.859375 568.976562 370.78125 563.0625 378.078125 563.0625 Z M 378.078125 563.0625 " transform="matrix(0.5,0,0,0.5,0,0)"/>
<path style="fill-rule:nonzero;fill:rgb(100%,87.45098%,13.333333%);fill-opacity:1;stroke-width:10;stroke-linecap:round;stroke-linejoin:round;stroke:rgb(0%,0%,0%);stroke-opacity:1;stroke-miterlimit:4;" d="M 440.929688 563.0625 L 453.492188 563.0625 C 460.789062 563.0625 466.710938 568.976562 466.710938 576.28125 L 466.710938 588.84375 C 466.710938 596.140625 460.789062 602.0625 453.492188 602.0625 L 440.929688 602.0625 C 433.625 602.0625 427.710938 596.140625 427.710938 588.84375 L 427.710938 576.28125 C 427.710938 568.976562 433.625 563.0625 440.929688 563.0625 Z M 440.929688 563.0625 " transform="matrix(0.5,0,0,0.5,0,0)"/>
<path style="fill-rule:nonzero;fill:rgb(100%,87.45098%,13.333333%);fill-opacity:1;stroke-width:10;stroke-linecap:round;stroke-linejoin:round;stroke:rgb(0%,0%,0%);stroke-opacity:1;stroke-miterlimit:4;" d="M 503.789062 563.0625 L 516.351562 563.0625 C 523.648438 563.0625 529.570312 568.976562 529.570312 576.28125 L 529.570312 588.84375 C 529.570312 596.140625 523.648438 602.0625 516.351562 602.0625 L 503.789062 602.0625 C 496.492188 602.0625 490.570312 596.140625 490.570312 588.84375 L 490.570312 576.28125 C 490.570312 568.976562 496.492188 563.0625 503.789062 563.0625 Z M 503.789062 563.0625 " transform="matrix(0.5,0,0,0.5,0,0)"/>
<path style="fill-rule:nonzero;fill:rgb(100%,87.45098%,13.333333%);fill-opacity:1;stroke-width:10;stroke-linecap:round;stroke-linejoin:round;stroke:rgb(0%,0%,0%);stroke-opacity:1;stroke-miterlimit:4;" d="M 692.359375 563.0625 L 704.921875 563.0625 C 712.21875 563.0625 718.140625 568.976562 718.140625 576.28125 L 718.140625 588.84375 C 718.140625 596.140625 712.21875 602.0625 704.921875 602.0625 L 692.359375 602.0625 C 685.0625 602.0625 679.140625 596.140625 679.140625 588.84375 L 679.140625 576.28125 C 679.140625 568.976562 685.0625 563.0625 692.359375 563.0625 Z M 692.359375 563.0625 " transform="matrix(0.5,0,0,0.5,0,0)"/>
<path style="fill-rule:nonzero;fill:rgb(100%,87.45098%,13.333333%);fill-opacity:1;stroke-width:10;stroke-linecap:round;stroke-linejoin:round;stroke:rgb(0%,0%,0%);stroke-opacity:1;stroke-miterlimit:4;" d="M 755.21875 563.0625 L 767.78125 563.0625 C 775.078125 563.0625 781 568.976562 781 576.28125 L 781 588.84375 C 781 596.140625 775.078125 602.0625 767.78125 602.0625 L 755.21875 602.0625 C 747.921875 602.0625 742 596.140625 742 588.84375 L 742 576.28125 C 742 568.976562 747.921875 563.0625 755.21875 563.0625 Z M 755.21875 563.0625 " transform="matrix(0.5,0,0,0.5,0,0)"/>
<path style="fill-rule:nonzero;fill:rgb(100%,87.45098%,13.333333%);fill-opacity:1;stroke-width:10;stroke-linecap:round;stroke-linejoin:round;stroke:rgb(0%,0%,0%);stroke-opacity:1;stroke-miterlimit:4;" d="M 629.507812 563.0625 L 642.070312 563.0625 C 649.375 563.0625 655.289062 568.976562 655.289062 576.28125 L 655.289062 588.84375 C 655.289062 596.140625 649.375 602.0625 642.070312 602.0625 L 629.507812 602.0625 C 622.210938 602.0625 616.289062 596.140625 616.289062 588.84375 L 616.289062 576.28125 C 616.289062 568.976562 622.210938 563.0625 629.507812 563.0625 Z M 629.507812 563.0625 " transform="matrix(0.5,0,0,0.5,0,0)"/>
<path style="fill-rule:nonzero;fill:rgb(100%,87.45098%,13.333333%);fill-opacity:1;stroke-width:10;stroke-linecap:round;stroke-linejoin:round;stroke:rgb(0%,0%,0%);stroke-opacity:1;stroke-miterlimit:4;" d="M 566.648438 563.0625 L 579.210938 563.0625 C 586.507812 563.0625 592.429688 568.976562 592.429688 576.28125 L 592.429688 588.84375 C 592.429688 596.140625 586.507812 602.0625 579.210938 602.0625 L 566.648438 602.0625 C 559.351562 602.0625 553.429688 596.140625 553.429688 588.84375 L 553.429688 576.28125 C 553.429688 568.976562 559.351562 563.0625 566.648438 563.0625 Z M 566.648438 563.0625 " transform="matrix(0.5,0,0,0.5,0,0)"/>
<path style="fill-rule:nonzero;fill:rgb(100%,100%,100%);fill-opacity:1;stroke-width:10;stroke-linecap:round;stroke-linejoin:round;stroke:rgb(0%,0%,0%);stroke-opacity:1;stroke-miterlimit:4;" d="M 479.882812 448.25 C 479.882812 462.609375 468.242188 474.25 453.882812 474.25 C 439.523438 474.25 427.882812 462.609375 427.882812 448.25 C 427.882812 433.890625 439.523438 422.25 453.882812 422.25 C 468.242188 422.25 479.882812 433.890625 479.882812 448.25 Z M 479.882812 448.25 " transform="matrix(0.5,0,0,0.5,0,0)"/>
<path style="fill-rule:nonzero;fill:rgb(100%,100%,100%);fill-opacity:1;stroke-width:10;stroke-linecap:round;stroke-linejoin:round;stroke:rgb(0%,0%,0%);stroke-opacity:1;stroke-miterlimit:4;" d="M 739.882812 448.25 C 739.882812 462.609375 728.242188 474.25 713.882812 474.25 C 699.523438 474.25 687.882812 462.609375 687.882812 448.25 C 687.882812 433.890625 699.523438 422.25 713.882812 422.25 C 728.242188 422.25 739.882812 433.890625 739.882812 448.25 Z M 739.882812 448.25 " transform="matrix(0.5,0,0,0.5,0,0)"/>
<path style="fill:none;stroke-width:10;stroke-linecap:round;stroke-linejoin:round;stroke:rgb(0%,0%,0%);stroke-opacity:1;stroke-miterlimit:4;" d="M 544.382812 513 L 623.382812 513 " transform="matrix(0.5,0,0,0.5,0,0)"/>
<path style="fill-rule:nonzero;fill:rgb(0%,0%,0%);fill-opacity:1;stroke-width:10;stroke-linecap:round;stroke-linejoin:round;stroke:rgb(0%,0%,0%);stroke-opacity:1;stroke-miterlimit:4;" d="M 518 491 L 573 491 L 573 497 L 518 497 Z M 518 491 " transform="matrix(0.5,0,0,0.5,0,0)"/>
<path style="fill-rule:nonzero;fill:rgb(0%,0%,0%);fill-opacity:1;stroke-width:10;stroke-linecap:round;stroke-linejoin:round;stroke:rgb(0%,0%,0%);stroke-opacity:1;stroke-miterlimit:4;" d="M 594 491 L 649 491 L 649 497 L 594 497 Z M 594 491 " transform="matrix(0.5,0,0,0.5,0,0)"/>
<path style="fill-rule:nonzero;fill:rgb(0%,0%,0%);fill-opacity:1;stroke-width:10;stroke-linecap:round;stroke-linejoin:round;stroke:rgb(0%,0%,0%);stroke-opacity:1;stroke-miterlimit:4;" d="M 580 528 L 588 528 L 588 544 L 580 544 Z M 580 528 " transform="matrix(0.5,0,0,0.5,0,0)"/>
</g>
</svg>
