<svg id="Layer_1" data-name="Layer 1" xmlns="http://www.w3.org/2000/svg" viewBox="0 0 1080 1080">
    <title>Bloops</title>

    <!-- BG -->










    <g transform="translate(-540 -520)">

        <animateMotion dur="2s" repeatCount="indefinite" path="M540,579.5v-80h0v80" />
        <circle cx="520" cy="500" r="263" fill="#d8ae00" stroke="#000" stroke-miterlimit="10" stroke-width="10" />
        <line x1="473" y1="242" x2="547" y2="242" fill="#F9BD28" stroke="#000" stroke-linecap="round"
            stroke-linejoin="round" stroke-width="10" />
        <line x1="392" y1="272" x2="547" y2="272" fill="#F9BD28" stroke="#000" stroke-linecap="round"
            stroke-linejoin="round" stroke-width="10" />
        <line x1="351" y1="302" x2="547" y2="302" fill="#F9BD28" stroke="#000" stroke-linecap="round"
            stroke-linejoin="round" stroke-width="10" />
        <line x1="320" y1="332" x2="547" y2="332" fill="#F9BD28" stroke="#000" stroke-linecap="round"
            stroke-linejoin="round" stroke-width="10" />
        <line x1="298" y1="362" x2="547" y2="362" fill="#F9BD28" stroke="#000" stroke-linecap="round"
            stroke-linejoin="round" stroke-width="10" />
        <line x1="280" y1="392" x2="547" y2="392" fill="#F9BD28" stroke="#000" stroke-linecap="round"
            stroke-linejoin="round" stroke-width="10" />
        <line x1="270" y1="422" x2="547" y2="422" fill="#F9BD28" stroke="#000" stroke-linecap="round"
            stroke-linejoin="round" stroke-width="10" />
        <line x1="263" y1="452" x2="547" y2="452" fill="#F9BD28" stroke="#000" stroke-linecap="round"
            stroke-linejoin="round" stroke-width="10" />
        <line x1="259" y1="482" x2="547" y2="482" fill="#F9BD28" stroke="#000" stroke-linecap="round"
            stroke-linejoin="round" stroke-width="10" />
        <line x1="259" y1="512" x2="547" y2="512" fill="#F9BD28" stroke="#000" stroke-linecap="round"
            stroke-linejoin="round" stroke-width="10" />
        <line x1="261" y1="542" x2="547" y2="542" fill="#F9BD28" stroke="#000" stroke-linecap="round"
            stroke-linejoin="round" stroke-width="10" />
        <line x1="268" y1="572" x2="547" y2="572" fill="#F9BD28" stroke="#000" stroke-linecap="round"
            stroke-linejoin="round" stroke-width="10" />
        <line x1="278" y1="602" x2="547" y2="602" fill="#F9BD28" stroke="#000" stroke-linecap="round"
            stroke-linejoin="round" stroke-width="10" />
        <line x1="295" y1="632" x2="547" y2="632" fill="#F9BD28" stroke="#000" stroke-linecap="round"
            stroke-linejoin="round" stroke-width="10" />
        <line x1="313" y1="662" x2="547" y2="662" fill="#F9BD28" stroke="#000" stroke-linecap="round"
            stroke-linejoin="round" stroke-width="10" />
        <line x1="341" y1="692" x2="547" y2="692" fill="#F9BD28" stroke="#000" stroke-linecap="round"
            stroke-linejoin="round" stroke-width="10" />
        <line x1="379" y1="722" x2="547" y2="722" fill="#F9BD28" stroke="#000" stroke-linecap="round"
            stroke-linejoin="round" stroke-width="10" />
        <line x1="444" y1="752" x2="547" y2="752" fill="#F9BD28" stroke="#000" stroke-linecap="round"
            stroke-linejoin="round" stroke-width="10" />
        <circle cx="520" cy="500" r="263" fill="none" />
        <rect x="520" y="237" width="40" height="526" stroke-width="10" stroke="#000" stroke-linecap="round"
            stroke-linejoin="round" fill="#F9BD28" />
        <circle cx="560" cy="500" r="263" fill="#F9BD28" stroke="#000" stroke-linecap="round" stroke-linejoin="round"
            stroke-width="10" />
        <circle cx="560" cy="500" r="230" fill="#f2cb27" stroke="#000" stroke-linecap="round" stroke-linejoin="round"
            stroke-width="10" />
        <circle cx="560" cy="500" r="205.25" fill="none" stroke="#d8ae00" stroke-miterlimit="10" stroke-width="10" />
        <circle cx="504.07" cy="631.57" r="16.96" fill="#d8ae00" />
        <circle cx="630.16" cy="631.57" r="16.96" fill="#d8ae00" />
        <rect x="538.34" y="603" width="57.56" height="14.39" rx="6.21" fill="#d8ae00" />
        <circle cx="504.07" cy="372.95" r="16.96" fill="#d8ae00" />
        <circle cx="630.16" cy="372.95" r="16.96" fill="#d8ae00" />
        <rect x="538.34" y="387.14" width="57.56" height="14.39" rx="6.21" fill="#d8ae00" />

        <path
            d="M508.25,500.48a24.36,24.36,0,0,0,5-4.46q4.83-5.75,4.83-15.27v-2.1q0-13.72-9.45-21.15t-27.11-7.42H443.11V554h42.44q12.06,0,20.18-3.51a26.77,26.77,0,0,0,12.32-10,28.12,28.12,0,0,0,4.21-15.62v-2q0-9.81-4.77-15.55A25.32,25.32,0,0,0,508.25,500.48Zm-25.36-32.33q6.45,0,9.46,3.29t3,9.17a12.93,12.93,0,0,1-3,9q-3,3.36-9.46,3.36H465.52V468.15Zm13.45,64.43q-3.22,3.38-9.67,3.37H465.52V510.31h21.15q6.45,0,9.67,3.29t3.22,9.46Q499.56,529.22,496.34,532.58Z"
            fill="#d8ae00" />
        <polygon
            points="563.02 450.92 540.04 450.92 540.04 553.18 560.22 553.18 563.02 553.18 603.08 553.18 603.08 533 563.02 533 563.02 450.92"
            fill="#d8ae00" />
        <path
            d="M692.59,507.37a25.32,25.32,0,0,0-9.24-6.89,24.62,24.62,0,0,0,5-4.46q4.83-5.75,4.83-15.27v-2.1q0-13.72-9.45-21.15t-27.11-7.42H618.21V554h42.44q12,0,20.17-3.51a26.75,26.75,0,0,0,12.33-10,28.2,28.2,0,0,0,4.2-15.62v-2Q697.35,513.11,692.59,507.37ZM658,468.15q6.45,0,9.46,3.29t3,9.17a13,13,0,0,1-3,9q-3,3.36-9.46,3.36H640.62V468.15Zm13.45,64.43q-3.23,3.38-9.67,3.37H640.62V510.31h21.15q6.45,0,9.67,3.29t3.22,9.46Q674.66,529.22,671.44,532.58Z"
            fill="#d8ae00" />
        <rect x="420" y="492.66" width="294" height="17.84" fill="#d8ae00" />
    </g>

    <g transform="translate(0 40)" opacity="0.1" stroke="none" fill="#000">
        <rect x="510" y="834" width="255" height="58" rx="29">
            <animate id="anim1" attributeName="width" attributeType="XML" from="180" to="140" begin="0s;anim2.end"
                dur="1s" />
            <animate id="anim2" attributeName="width" attributeType="XML" from="140" to="180" begin="anim1.end"
                dur="1s" />
        </rect>
        <rect x="510" y="834" width="255" height="58" rx="29" transform="scale (-1, 1)" transform-origin="center">
            <animate id="anim1" attributeName="width" attributeType="XML" from="180" to="140" begin="0s;anim2.end"
                dur="1s" />
            <animate id="anim2" attributeName="width" attributeType="XML" from="140" to="180" begin="anim1.end"
                dur="1s" />
        </rect>

    </g>



</svg>