<svg id="Layer_1" data-name="Layer 1" xmlns="http://www.w3.org/2000/svg" viewBox="0 0 1037.68 200.6">
    <title>logo</title>
    <path
        d="M144.05,579.59c1.24-15.37-7.94-28.79-21.54-39a20.48,20.48,0,0,0,3.35-3.36,30.27,30.27,0,0,0,.53-41.33c-15.72-18.9-63.76-20.31-87.95-16.42-6.19.88-11.48,3-13.25,6.71C20.6,495.87,19,607.49,21.48,617.74a8.67,8.67,0,0,0,4.59,4.77c2.65,1.59,7.07,2.47,11.84,3,28.08,2.83,71.88,4.06,94.13-18.19a30.23,30.23,0,0,1,2.12-2.3,22.4,22.4,0,0,0,2-2.47,39.36,39.36,0,0,0,5.82-11.13c.71-2.12,1.07-4.06,1.59-6C143.7,583.3,144.05,581.53,144.05,579.59ZM69,586.65c.71-7.06,1.24-14.83,1.77-23.13C110.5,562.63,107.14,592.48,69,586.65Zm3.71-60.22c.35-6.54.35-12.72.35-18.55C104.67,506.82,104.84,524.13,72.7,526.43Z"
        transform="translate(-20.32 -439.24)" fill="#fff" />
    <path
        d="M249.48,616.63c-.35,5.47-4.59,6.36-4.59,6.36-16.6,4.24-53.69,3.53-70.12,2.12-4.41-.36-9.89-.18-11.83-5.13-6.18-17.48-5.83-118.86-1.24-130.69.71-1.77,2.3-2.83,4.42-3.71,7.59-3.36,29.32-2.65,34.61-1.06,2.83.71,4.77,2.12,5,4.24,0,0,6.53,65.35,5.12,96.78,15.72-.35,33-.35,35.68.89C252.31,589.43,249.66,611.33,249.48,616.63Z"
        transform="translate(-20.32 -439.24)" fill="#fff" />
    <path
        d="M558.11,579.59c1.24-15.37-8-28.79-21.55-39a20.15,20.15,0,0,0,3.36-3.36,30.28,30.28,0,0,0,.53-41.33c-15.72-18.9-63.76-20.31-88-16.42-6.18.88-11.48,3-13.24,6.71-4.6,9.71-6.18,121.33-3.71,131.58a8.63,8.63,0,0,0,4.59,4.77c2.65,1.59,7.07,2.47,11.83,3,28.09,2.83,71.89,4.06,94.14-18.19a28.3,28.3,0,0,1,2.12-2.3,22.27,22.27,0,0,0,1.94-2.47A39.39,39.39,0,0,0,556,591.42c.71-2.12,1.06-4.06,1.59-6C557.76,583.3,558.11,581.53,558.11,579.59Zm-75.06,7.06c.7-7.06,1.23-14.83,1.76-23.13C524.55,562.63,521.2,592.48,483.05,586.65Zm3.71-60.22c.35-6.54.35-12.72.35-18.55C518.72,506.82,518.9,524.13,486.76,526.43Z"
        transform="translate(-20.32 -439.24)" fill="#fff" />
    <path
        d="M696,579.59c1.23-15.37-7.95-28.79-21.55-39a20.1,20.1,0,0,0,3.35-3.36,30.26,30.26,0,0,0,.53-41.33c-15.71-18.9-63.75-20.31-88-16.42-6.18.88-11.48,3-13.25,6.71-4.59,9.71-6.18,121.33-3.71,131.58a8.7,8.7,0,0,0,4.59,4.77c2.66,1.59,7.07,2.47,11.84,3,28.08,2.83,71.88,4.06,94.14-18.19a28.25,28.25,0,0,1,2.11-2.3,22.4,22.4,0,0,0,2-2.47,39.36,39.36,0,0,0,5.82-11.13c.71-2.12,1.07-4.06,1.6-6C695.68,583.3,696,581.53,696,579.59ZM621,586.65c.71-7.06,1.24-14.83,1.77-23.13C662.48,562.63,659.12,592.48,621,586.65Zm3.71-60.22c.35-6.54.35-12.72.35-18.55C656.65,506.82,656.83,524.13,624.68,526.43Z"
        transform="translate(-20.32 -439.24)" fill="#fff" />
    <path
        d="M749.19,535.38v8c10.59-1.23,26.13-1.94,33.55,0a4.14,4.14,0,0,1,3,3.89c.18,3.53.53,18.19-2.82,20.31-2.3,1.59-21.55,1.77-34.09,1.06-.17,3.71-.35,6.71-.35,9.89,16.78-2.12,36.38-4.06,47-2.47,0,0,4.41.35,5.3,6,.88,6,3.18,29-2.48,32.85-5.82,4.06-74,7.77-80.36,5.83a6.83,6.83,0,0,1-3.18-3.71c-1.41-3.18-2.29-9.71-2.82-15.72-3.53-30.91-2.65-62.34-2.65-102.61.18-7.6,2.12-12.19,13.6-13.42,17.48-2,56.69-5.83,73.83-1.24,0,0,4.41.88,4.94,8.12.35,7.25,1.41,36-4.77,40.63C793.34,535.21,770,536.09,749.19,535.38Z"
        transform="translate(-20.32 -439.24)" fill="#fff" />
    <path
        d="M938.86,535.21c-3.35,15.36-14.83,30.38-28.61,38.32v.18a140.8,140.8,0,0,1,11.48,8.83A76.34,76.34,0,0,1,935,597.2s2.47,3.71-1.59,7.59a113.49,113.49,0,0,1-15.19,12.55c-8.48,6-9.89,6.71-18.55-.53-4.23-3.36-9.89-7.78-15.19-12-4.23-3.53-8.65-6.88-12.36-10.06a224,224,0,0,1-.35,27.2s-.36,7.42-7.24,8.48c-6.72,1.23-34.09,4.23-38.86-5.66-4.94-9.53-10.24-123.45-7.77-133.87,2.65-11.48,34.62-16.6,59.17-17.66C917.67,471.27,945.93,502.71,938.86,535.21Zm-43.27-13.6c-3.71-9.54-19.43-10.25-28.43-7.07,1.23,9.37,2.29,21.37,3.7,33.56C882,547.22,902.13,538,895.59,521.61Z"
        transform="translate(-20.32 -439.24)" fill="#fff" />
    <path
        d="M1057.54,579.72c3.71,22.6-15.37,44.68-39,46.45-17.3,1.23-36.91-2.48-51.21-8.31-6.72-2.64-12.9-5.47-14.49-9.53-2.29-6,2.65-24.55,11.31-28.44a16.49,16.49,0,0,1,9.36-1.23c2.29.35,18.19,5.47,24,6.53,20.13,4.06,16.42-4.24,4.94-10.24-14.48-7.77-32.85-13.07-41.5-30-15-27,5.83-54.22,34.26-60,16.25-3.53,36.91-.88,52.1,7.95,9,5.12,9.72,13.42,7.78,20.66-3.89,16.08-9.72,21-24.73,14.84-21.2-8.12-35.85-2.83-21.9,5.48C1025.92,544.75,1053.3,554.81,1057.54,579.72Z"
        transform="translate(-20.32 -439.24)" fill="#fff" />
    <rect x="268.68" y="177.12" width="91.27" height="23.48" rx="11.32" opacity="0.2" />
    <path
        d="M335.67,439.24a82.83,82.83,0,1,0,82.83,82.83A82.82,82.82,0,0,0,335.67,439.24ZM304.75,531a11.75,11.75,0,1,1,11.74-11.75A11.75,11.75,0,0,1,304.75,531Zm65.15,3.24a4.8,4.8,0,0,1-4.8,4.81H334.83a4.8,4.8,0,0,1-4.8-4.81v-.35a4.8,4.8,0,0,1,4.8-4.81H365.1a4.8,4.8,0,0,1,4.8,4.81ZM392.09,531a11.75,11.75,0,1,1,11.74-11.75A11.75,11.75,0,0,1,392.09,531Z"
        transform="translate(-20.32 -439.24)" fill="#fff" />
</svg>