<svg id="Layer_1" data-name="Layer 1" xmlns="http://www.w3.org/2000/svg" viewBox="0 0 1047.93 203.18"><title>logo2</title><path d="M97.14,1594.78q-3.45.38-13.46.62t-21.45.19q-11.43,0-21.59-.67T27,1592.77q-3.36-1.35-5.17-19.54t-2.39-40.83q-.59-22.65-.1-43.67t1.82-28.1q.86-4.5,9.62-8a81.84,81.84,0,0,1,21.21-4.74,133.92,133.92,0,0,1,26.48,0,84,84,0,0,1,25.51,6.32q16.75,7.47,22.41,24.51t-3.93,32l.29.2q12.64,7.65,16.71,19.91a46.35,46.35,0,0,1,.81,25.85,50.31,50.31,0,0,1-15.12,25.71A46.2,46.2,0,0,1,97.14,1594.78ZM66.88,1483.51q-1.16,4-.34,10.78c.54,4.5,1.74,7,3.59,7.61q5.27,1.72,10.87-2t5.6-9.39a9.24,9.24,0,0,0-3.2-6.79q-3.21-3.07-9.82-3.16Q67.64,1480.55,66.88,1483.51Zm2,72.68q2.3,5.18,13.88,2t9.87-13q-1.24-7.08-8.81-11t-13.89-1q-3.25,1.53-3.3,9.81C66.61,1548.55,67.36,1552.93,68.89,1556.19Z" transform="translate(-19.07 -1409.83)" fill="#fff"/><path d="M208.11,1454.41q.48,4.5.72,16.75t.43,25.47q.19,13.21.43,23.89t.72,12q.68,2.2,6.37,2.44t12.73-.14q7-.39,13.55-.82t8.91.34q3.43,1.16,5.6,10a108.78,108.78,0,0,1,2.77,19.15,99.1,99.1,0,0,1-.52,19q-1.15,8.67-4.41,9.44-4.87,1.24-19.48,2.34t-30.88,1.29q-16.28.2-30.16-1t-17.14-4.6q-3.25-3.45-5-22.31t-2.39-41.46q-.63-22.59-.48-43t.91-27q.38-3.93,9.28-5.75a100.36,100.36,0,0,1,19.44-1.87,111.33,111.33,0,0,1,19.39,1.49Q207.74,1451.63,208.11,1454.41Z" transform="translate(-19.07 -1409.83)" fill="#fff"/><path d="M516.4,1594.78q-3.45.38-13.46.62t-21.45.19q-11.43,0-21.59-.67t-13.69-2.15q-3.36-1.35-5.17-19.54t-2.4-40.83q-.57-22.65-.09-43.67t1.82-28.1q.86-4.5,9.62-8a81.84,81.84,0,0,1,21.21-4.74,133.92,133.92,0,0,1,26.48,0,84,84,0,0,1,25.51,6.32q16.75,7.47,22.41,24.51t-3.93,32l.29.2q12.64,7.65,16.71,19.91a46.35,46.35,0,0,1,.81,25.85,50.31,50.31,0,0,1-15.12,25.71A46.2,46.2,0,0,1,516.4,1594.78Zm-30.26-111.27q-1.15,4-.34,10.78c.54,4.5,1.74,7,3.59,7.61q5.26,1.72,10.87-2t5.6-9.39a9.24,9.24,0,0,0-3.2-6.79q-3.21-3.07-9.82-3.16Q486.9,1480.55,486.14,1483.51Zm2,72.68q2.3,5.18,13.88,2t9.87-13q-1.25-7.08-8.81-11t-13.89-1q-3.26,1.53-3.3,9.81C485.87,1548.55,486.62,1552.93,488.15,1556.19Z" transform="translate(-19.07 -1409.83)" fill="#fff"/><path d="M647.1,1594.78q-3.45.38-13.46.62t-21.44.19q-11.44,0-21.6-.67t-13.69-2.15q-3.35-1.35-5.17-19.54t-2.39-40.83q-.58-22.65-.1-43.67t1.82-28.1q.85-4.5,9.62-8a81.84,81.84,0,0,1,21.21-4.74,133.92,133.92,0,0,1,26.48,0,84.14,84.14,0,0,1,25.52,6.32q16.76,7.47,22.4,24.51t-3.92,32l.28.2q12.65,7.65,16.71,19.91a46.35,46.35,0,0,1,.81,25.85,50.31,50.31,0,0,1-15.12,25.71A46.2,46.2,0,0,1,647.1,1594.78Zm-30.26-111.27q-1.15,4-.34,10.78c.55,4.5,1.74,7,3.59,7.61q5.26,1.72,10.87-2t5.6-9.39a9.24,9.24,0,0,0-3.2-6.79q-3.21-3.07-9.82-3.16Q617.6,1480.55,616.84,1483.51Zm2,72.68q2.29,5.18,13.88,2t9.87-13q-1.25-7.08-8.81-11t-13.89-1q-3.25,1.53-3.3,9.81C616.57,1548.55,617.32,1552.93,618.85,1556.19Z" transform="translate(-19.07 -1409.83)" fill="#fff"/><path d="M760.85,1544.7q16.75-.2,30.26-1t15.89,1.82q2.6,2.12,3.78,18.29t-.91,23.46q-.95,3.06-15,5.07a314.28,314.28,0,0,1-31.6,2.73q-17.52.72-33.61.24t-21-2.58q-2.88-1.15-4.74-15.47T701,1543.79q-1.07-19.2-1.25-39.16t.38-32.51a64.25,64.25,0,0,1,1.15-12.59q1.15-5.7,3.55-7.13t16.85-2.49q14.44-1.07,31.21-1.3t31,.58q14.27.81,16.37,2.92,2.58,2.1,2.92,16.61t-1.77,21.88q-1.05,3.45-13.45,4.26t-29,1.39c0,.77,0,1.66.1,2.68s.12,1.92.19,2.68a96.37,96.37,0,0,1,17.62,1.63q1.62.48,3.2,5.7a59.89,59.89,0,0,1,2.21,11.39,51.24,51.24,0,0,1-.05,11.44c-.45,3.51-1.57,5.4-3.35,5.65a39.41,39.41,0,0,1-7,1c-3.35.29-7.07.49-11.15.62v5.65Z" transform="translate(-19.07 -1409.83)" fill="#fff"/><path d="M920.56,1534.17A211.22,211.22,0,0,1,937.7,1550q7.38,7.65,7.47,11.49,0,2.77-3.16,8.23a106.22,106.22,0,0,1-7.28,10.92,120.09,120.09,0,0,1-7.94,9.57c-2.56,2.75-4.31,4.12-5.27,4.12q-6.22,1.25-18.14-6.46t-19.2-10.2q-7.09-2.21-7.66,1.82c.06,4.59-.35,8.11-1.25,10.53s-4,3.93-9.38,4.5q-9.2,1-21,1t-15-.57a5.14,5.14,0,0,1-3.55-2.49q-1.9-2.58-4.11-23.75t-3.45-45.86q-1.24-24.7-1.1-45.39t3-22.31q10.44-5.84,28-8.42a100.86,100.86,0,0,1,34.91.91A72.52,72.52,0,0,1,914.68,1462q13.73,10.86,16.8,31.84Q935.41,1521.82,920.56,1534.17ZM872.4,1516q7.27-.77,11.3-5.36t4-9.57q0-5-4.59-8.62T869,1489.83q-7.85.87-6.17,13.94T872.4,1516Z" transform="translate(-19.07 -1409.83)" fill="#fff"/><path d="M1020.82,1496.06a5,5,0,0,1-3.64-1,4.15,4.15,0,0,1-2.06-3.16,4.44,4.44,0,0,0-2-3.26q-4.8-3.73-12.16,1.34t6.12,7.85l3.16.62c1.15.23,2.33.44,3.55.63q22,3.83,34.75,13.11,15.7,11.49,18.05,30t-10.29,33.18q-14.94,17.33-40.46,19.87t-44.09-10.68q-16-11.21-20-28.24-1.72-8.05,8-12.45a36.3,36.3,0,0,1,9.53-2.87,68.72,68.72,0,0,1,10-1,49.84,49.84,0,0,1,14.18,1.87q6.32,1.86,7.18,5.31a3.62,3.62,0,0,0,.48,1.34,6.74,6.74,0,0,0,4,3.54q3.54,1.44,8.28-.43t2.73-6.37q-1.05-2.1-5.75-3.44a170.07,170.07,0,0,0-22.31-4.93,47,47,0,0,1-21.06-9.05,34.52,34.52,0,0,1-11.25-14.17q-4.08-9-2.73-23.85,1.92-20,19.25-32.93a56.21,56.21,0,0,1,23.17-10.11,63.65,63.65,0,0,1,25.28,0,53.31,53.31,0,0,1,22.07,10.15,38.85,38.85,0,0,1,13.55,20.25q1.43,4.89-2.73,8.38a34.93,34.93,0,0,1-10.39,5.8,84.55,84.55,0,0,1-22.5,4.69Z" transform="translate(-19.07 -1409.83)" fill="#fff"/><rect x="276.84" y="179.4" width="92.45" height="23.78" rx="11.47" opacity="0.2"/><path d="M343.18,1409.83a83.9,83.9,0,1,0,83.89,83.89A83.89,83.89,0,0,0,343.18,1409.83Zm-31.32,93a11.9,11.9,0,1,1,11.89-11.9A11.9,11.9,0,0,1,311.86,1502.81Zm66,3.28A4.87,4.87,0,0,1,373,1511H342.33a4.87,4.87,0,0,1-4.87-4.87v-.36a4.87,4.87,0,0,1,4.87-4.87H373a4.87,4.87,0,0,1,4.87,4.87Zm22.48-3.28a11.9,11.9,0,1,1,11.89-11.9A11.9,11.9,0,0,1,400.33,1502.81Z" transform="translate(-19.07 -1409.83)" fill="#fff"/></svg>