<svg id="Layer_1" data-name="Layer 1" xmlns="http://www.w3.org/2000/svg" viewBox="0 0 1080 1080">
    <title>upgrade</title>

    <defs>
        <linearGradient id="linear-gradient-crown" x1="400" y1="400" x2="600" y2="600" gradientUnits="userSpaceOnUse">
            <stop offset="0" stop-color="#ff00a4" />
            <stop offset="1" stop-color="#ffe000" />
        </linearGradient>
    </defs>


    <g transform="translate(-540 -530)">

        <animateMotion dur="2s" repeatCount="indefinite" path="M540,579.5v-80h0v80" begin="0.4s" />


        <rect x="276" y="265.62" width="434.38" height="434.38" rx="52.19" fill="#a81b77" stroke="#000"
            stroke-miterlimit="10" stroke-width="10" />
        <rect x="369.62" y="265.62" width="434.38" height="434.38" rx="52.19" stroke-width="10" stroke="#000"
            stroke-linecap="round" stroke-linejoin="round" fill="url(#linear-gradient-crown)" />
        <rect x="414.26" y="310.26" width="345.11" height="345.11" rx="25.96" fill="none" stroke="#fff"
            stroke-miterlimit="10" stroke-width="10" />
        <rect x="393.62" y="289.62" width="386.38" height="386.38" rx="29.06" stroke-width="10" stroke="#000"
            stroke-linecap="round" stroke-linejoin="round" fill="none" />
        <path d="M741.06,337.18a8.62,8.62,0,0,0-8.62-8.62" fill="none" stroke="#fff" stroke-linecap="round"
            stroke-linejoin="round" stroke-width="10" />
        <path d="M732.44,637.06a8.62,8.62,0,0,0,8.62-8.62" fill="none" stroke="#fff" stroke-linecap="round"
            stroke-linejoin="round" stroke-width="10" />
        <path d="M432.56,628.44a8.62,8.62,0,0,0,8.62,8.62" fill="none" stroke="#fff" stroke-linecap="round"
            stroke-linejoin="round" stroke-width="10" />
        <path d="M441.18,328.56a8.62,8.62,0,0,0-8.62,8.62" fill="none" stroke="#fff" stroke-linecap="round"
            stroke-linejoin="round" stroke-width="10" />
        <rect x="309.75" y="313.53" width="28.31" height="338.57" rx="14.02" fill="none" stroke="#bebebe"
            stroke-miterlimit="10" stroke-width="10" />
        <path
            d="M600.58,512.08H575.5V495.31a17,17,0,0,1,4.38-11.41,22.78,22.78,0,0,1,11-7l2.27-.6a11.54,11.54,0,0,0,5.82-4.08,10.62,10.62,0,0,0,2.34-6.65,11.13,11.13,0,0,0-3.32-8.16,11,11,0,0,0-8-3.32,10.36,10.36,0,0,0-8,3.7,14.62,14.62,0,0,0-3.63,9.29H551.78A41.65,41.65,0,0,1,555,451.41a40.71,40.71,0,0,1,8.31-12.69,39.14,39.14,0,0,1,12.09-8.46,35.15,35.15,0,0,1,14.58-3.1,36.57,36.57,0,0,1,14.88,3.1,38.3,38.3,0,0,1,12.16,8.39A40.19,40.19,0,0,1,625.21,451a37.55,37.55,0,0,1,3,15,32.88,32.88,0,0,1-2,11.34,40.49,40.49,0,0,1-5.59,10.35,43.27,43.27,0,0,1-8.23,8.38,34,34,0,0,1-10.12,5.44Zm2.72,24.63a5.12,5.12,0,0,1-1.66,3.85,5.68,5.68,0,0,1-4.08,1.58H579.28a5.72,5.72,0,0,1-4-1.58,5,5,0,0,1-1.74-3.85V521a5.26,5.26,0,0,1,1.74-3.93,5.63,5.63,0,0,1,4-1.66h18.28a5.58,5.58,0,0,1,4.08,1.66A5.37,5.37,0,0,1,603.3,521Z"
            fill="#ffffff" />
        <g fill="#ffffff">
            <circle cx="540.44" cy="622.6" r="12.65" />
            <circle cx="634.53" cy="622.6" r="12.65" />
            <rect x="566.01" y="601.27" width="42.96" height="10.74" rx="4.64" />
            <circle cx="540.44" cy="342.51" r="12.65" />
            <circle cx="634.53" cy="342.51" r="12.65" />
            <rect x="566.01" y="353.1" width="42.96" height="10.74" rx="4.64" />
            <circle cx="447.44" cy="435.51" r="12.65" />
            <circle cx="447.44" cy="529.6" r="12.65" />
            <rect x="441.92" y="477.18" width="42.96" height="10.74" rx="4.64"
                transform="translate(945.95 19.16) rotate(90)" />
            <circle cx="727.53" cy="435.51" r="12.65" />
            <circle cx="727.53" cy="529.6" r="12.65" />
            <rect x="690.09" y="477.18" width="42.96" height="10.74" rx="4.64"
                transform="translate(1194.13 -229.02) rotate(90)" />
        </g>



    </g>

    <g transform="translate(0 40)" opacity="0.1" stroke="none" fill="#000">
        <rect x="510" y="834" width="255" height="58" rx="29">
            <animate id="anim1" attributeName="width" attributeType="XML" from="180" to="140" begin="0.4s;anim2.end"
                dur="1s" />
            <animate id="anim2" attributeName="width" attributeType="XML" from="140" to="180" begin="anim1.end"
                dur="1s" />
        </rect>
        <rect x="510" y="834" width="255" height="58" rx="29" transform="scale (-1, 1)" transform-origin="center">
            <animate id="anim1" attributeName="width" attributeType="XML" from="180" to="140" begin="0s;anim2.end"
                dur="1s" />
            <animate id="anim2" attributeName="width" attributeType="XML" from="140" to="180" begin="anim1.end"
                dur="1s" />
        </rect>

    </g>






</svg>